G04 ================== begin FILE IDENTIFICATION RECORD ==================*
G04 Layout Name:  E:/ZNCZII/BRD/ZNCZII_V03_202403172153.brd*
G04 Film Name:    L1-SOLDER*
G04 File Format:  Gerber RS274X*
G04 File Origin:  Cadence Allegro 17.4-S037*
G04 Origin Date:  Wed Mar 20 21:19:16 2024*
G04 *
G04 Layer:  VIA CLASS/SOLDERMASK_TOP*
G04 Layer:  PIN/SOLDERMASK_TOP*
G04 Layer:  PACKAGE GEOMETRY/SOLDERMASK_TOP*
G04 Layer:  BOARD GEOMETRY/SOLDERMASK_TOP*
G04 *
G04 Offset:    (0.0000 0.0000)*
G04 Mirror:    No*
G04 Mode:      Positive*
G04 Rotation:  0*
G04 FullContactRelief:  No*
G04 UndefLineWidth:     0.1000*
G04 ================== end FILE IDENTIFICATION RECORD ====================*
%FSLAX25Y25*MOIN*%
%IR0*IPPOS*OFA0.00000B0.00000*MIA0B0*SFA1.00000B1.00000*%
%ADD18R,.027559X.043311*%
%ADD23R,.035559X.057209*%
%ADD12R,.03937X.07874*%
%ADD29C,.082677*%
%ADD19R,.173228X.137799*%
%ADD27O,.05524X.067059*%
%ADD20R,.067059X.043429*%
%ADD21C,.062992*%
%ADD26C,.102362*%
%ADD31R,.045339X.04337*%
%ADD17C,.074803*%
%ADD30R,.09061X.045339*%
%ADD10R,.043402X.070902*%
%ADD25R,.062992X.062992*%
%ADD24R,.063059X.094551*%
%ADD22R,.0395X.0395*%
%ADD11R,.04202X.039748*%
%ADD13R,.039748X.04202*%
%ADD28R,.038252X.015811*%
%ADD15R,.01902X.029461*%
%ADD16R,.02926X.030272*%
%ADD14R,.030272X.02926*%
%LPD*%
G75*
G54D10*
X69093Y137404D03*
Y163384D03*
X83663Y137404D03*
X83653Y163384D03*
G54D11*
X69291Y190341D03*
Y196272D03*
X75197Y190341D03*
Y196272D03*
X89764Y228950D03*
Y223019D03*
X177165Y177769D03*
Y171838D03*
X171260Y177769D03*
Y171838D03*
X200394Y176981D03*
Y171050D03*
X232677Y241942D03*
Y236011D03*
X238583Y241942D03*
Y236011D03*
X258661Y235224D03*
Y241155D03*
G54D20*
X100254Y266811D03*
Y256811D03*
X123482D03*
X123368Y266811D03*
G54D30*
X233918Y247996D03*
Y259610D03*
G54D21*
X126732Y138583D03*
X136732D03*
X146732D03*
X144882Y275197D03*
X134882D03*
X156732Y138583D03*
G54D12*
X73511Y207087D03*
X80819D03*
X189874Y159055D03*
X182567D03*
X249323Y222441D03*
X242015D03*
G54D13*
X76562Y100394D03*
X82493D03*
X117507Y275591D03*
X123438D03*
G54D22*
X122049Y208661D03*
X128345D03*
X210628D03*
X204332D03*
G54D31*
X227914Y253803D03*
G54D14*
X76052Y185039D03*
X79459D03*
X107352Y192913D03*
X100129Y236220D03*
X96722D03*
X108533Y246063D03*
X110759Y192913D03*
X111940Y246063D03*
X130186Y179921D03*
X133593D03*
Y175591D03*
X130186D03*
Y185039D03*
X133593D03*
Y192520D03*
X130186D03*
X174538Y138583D03*
X171131D03*
X192255Y188583D03*
X188848D03*
Y183858D03*
X192255D03*
X188318Y209055D03*
X184911D03*
G54D23*
X135630Y217322D03*
X143111D03*
X139370Y208662D03*
X214370Y192520D03*
X206889D03*
X210630Y201180D03*
G54D15*
X80315Y221565D03*
X82282D03*
X84252D03*
Y227254D03*
X82282D03*
X80315D03*
X190157Y171565D03*
X192125D03*
X194094D03*
Y177254D03*
X192125D03*
X190157D03*
X248819Y235738D03*
X250786D03*
Y241427D03*
X248819D03*
X252756Y235738D03*
Y241427D03*
G54D24*
X157283Y190748D03*
X157284Y226574D03*
X175000Y190748D03*
Y226574D03*
G54D16*
X77559Y238711D03*
Y235304D03*
X87008D03*
Y238711D03*
X82283Y235304D03*
Y238711D03*
X107480Y142391D03*
X97638D03*
X107480Y145798D03*
X97638D03*
X102756Y194359D03*
Y197767D03*
X91732Y238711D03*
Y235304D03*
X122047Y214832D03*
Y218239D03*
X134646Y162667D03*
Y166074D03*
X140551Y250265D03*
Y253672D03*
X146063Y233987D03*
Y230580D03*
X196850Y187924D03*
Y184517D03*
X188189Y200659D03*
Y204066D03*
X196850Y205383D03*
Y208790D03*
X250787Y249478D03*
Y252885D03*
X244094Y245934D03*
Y249341D03*
G54D25*
X154882Y275197D03*
G54D17*
X102463Y100787D03*
X112305D03*
X177266D03*
X196951D03*
G54D26*
X175591Y86614D03*
X198819D03*
X228740D03*
G54D27*
X184842Y255906D03*
X184841Y274804D03*
X201772Y255906D03*
Y274804D03*
G54D18*
X97618Y154331D03*
X102618D03*
X107618D03*
Y185039D03*
X102618D03*
X97618D03*
X112618Y154331D03*
Y185039D03*
G54D28*
X189902Y254528D03*
Y260433D03*
Y262402D03*
Y264370D03*
Y266339D03*
Y268307D03*
Y270276D03*
X196713Y254528D03*
Y270276D03*
Y268307D03*
Y266339D03*
Y264370D03*
Y262402D03*
Y260433D03*
X189902Y276181D03*
X196713D03*
G54D19*
X105118Y169685D03*
G54D29*
X228821Y100003D03*
Y119847D03*
Y199217D03*
X258583Y100003D03*
Y119847D03*
Y199217D03*
M02*
