G04 ================== begin FILE IDENTIFICATION RECORD ==================*
G04 Layout Name:  E:/ZNCZII/BRD/ZNCZII_V03_202403172153.brd*
G04 Film Name:    L1-SILK*
G04 File Format:  Gerber RS274X*
G04 File Origin:  Cadence Allegro 17.4-S037*
G04 Origin Date:  Wed Mar 20 21:19:16 2024*
G04 *
G04 Layer:  REF DES/SILKSCREEN_TOP*
G04 Layer:  PACKAGE GEOMETRY/SILKSCREEN_TOP*
G04 Layer:  BOARD GEOMETRY/SILKSCREEN_TOP*
G04 *
G04 Offset:    (0.0000 0.0000)*
G04 Mirror:    No*
G04 Mode:      Positive*
G04 Rotation:  0*
G04 FullContactRelief:  No*
G04 UndefLineWidth:     0.1000*
G04 ================== end FILE IDENTIFICATION RECORD ====================*
%FSLAX25Y25*MOIN*%
%IR0*IPPOS*OFA0.00000B0.00000*MIA0B0*SFA1.00000B1.00000*%
%ADD10C,.003937*%
%ADD11C,.011811*%
%ADD12C,.015748*%
%ADD13C,.01*%
G75*
%LPD*%
G75*
G54D10*
G01X70069Y126772D02*
Y129872D01*
X71027D01*
X71333Y129717D01*
X71525Y129510D01*
X71602Y129096D01*
X71525Y128683D01*
X71295Y128425D01*
X71027Y128270D01*
X70069D01*
G01X71027D02*
X71602Y126772D01*
G01X74702D02*
X73169D01*
Y129872D01*
X74702D01*
G01X74088Y128373D02*
X73169D01*
G01X76230Y127185D02*
X76537Y126927D01*
X76882Y126772D01*
X77188D01*
X77495Y126927D01*
X77725Y127185D01*
X77840Y127547D01*
X77763Y127908D01*
X77572Y128218D01*
X77227Y128425D01*
X76767Y128528D01*
X76498Y128735D01*
X76383Y129096D01*
X76460Y129458D01*
X76652Y129717D01*
X76920Y129872D01*
X77188D01*
X77457Y129769D01*
X77687Y129510D01*
G01X80902Y126772D02*
X79369D01*
Y129872D01*
X80902D01*
G01X80288Y128373D02*
X79369D01*
G01X83235Y129872D02*
Y126772D01*
G01X82354Y129872D02*
X84117D01*
G01X66333Y145374D02*
X69853Y141854D01*
G01X71773Y140354D02*
X80973D01*
G01X81393Y150394D02*
G03I-5020J0D01*
G01X66333Y155414D02*
Y145374D01*
G01X69853Y158934D02*
X66333Y155414D01*
G01X71773Y160434D02*
X80973D01*
G01X72443Y157484D02*
X68893Y153934D01*
G01D02*
Y147244D01*
G01D02*
X72833Y143304D01*
G01X68196Y183833D02*
X68351Y184063D01*
X68454Y184332D01*
Y184639D01*
X68299Y184983D01*
X68041Y185252D01*
X67731Y185443D01*
X67214Y185597D01*
X66749Y185635D01*
X66284Y185558D01*
X65974Y185443D01*
X65664Y185213D01*
X65457Y184945D01*
X65354Y184677D01*
Y184408D01*
X65457Y184140D01*
X65613Y183910D01*
X65819Y183719D01*
G01X65354Y181577D02*
X68454D01*
X67834Y182037D01*
G01X65354D02*
Y181117D01*
G01X67938Y179205D02*
X68248Y178975D01*
X68403Y178707D01*
X68454Y178400D01*
X68351Y178017D01*
X68093Y177748D01*
X67783Y177672D01*
X67472Y177710D01*
X67214Y177863D01*
X66698Y178630D01*
X66336Y178975D01*
X65819Y179205D01*
X65354Y179282D01*
Y177672D01*
G01X72133Y183833D02*
X72288Y184063D01*
X72391Y184332D01*
Y184639D01*
X72236Y184983D01*
X71978Y185252D01*
X71668Y185443D01*
X71151Y185597D01*
X70686Y185635D01*
X70221Y185558D01*
X69911Y185443D01*
X69601Y185213D01*
X69394Y184945D01*
X69291Y184677D01*
Y184408D01*
X69394Y184140D01*
X69550Y183910D01*
X69756Y183719D01*
G01X71875Y182305D02*
X72185Y182075D01*
X72340Y181807D01*
X72391Y181500D01*
X72288Y181117D01*
X72030Y180848D01*
X71720Y180772D01*
X71409Y180810D01*
X71151Y180963D01*
X70635Y181730D01*
X70273Y182075D01*
X69756Y182305D01*
X69291Y182382D01*
Y180772D01*
G01X72391Y178477D02*
X72288Y178783D01*
X72030Y179013D01*
X71720Y179167D01*
X71306Y179282D01*
X70841Y179320D01*
X70376Y179282D01*
X69963Y179167D01*
X69653Y179013D01*
X69394Y178783D01*
X69291Y178477D01*
X69394Y178170D01*
X69653Y177940D01*
X69963Y177787D01*
X70376Y177672D01*
X70841Y177633D01*
X71306Y177672D01*
X71720Y177787D01*
X72030Y177940D01*
X72288Y178170D01*
X72391Y178477D01*
G01X68849Y169705D02*
X69156Y169446D01*
X69501Y169291D01*
X69807D01*
X70114Y169446D01*
X70344Y169705D01*
X70459Y170067D01*
X70382Y170428D01*
X70191Y170738D01*
X69846Y170945D01*
X69385Y171048D01*
X69117Y171255D01*
X69002Y171616D01*
X69079Y171978D01*
X69270Y172236D01*
X69539Y172391D01*
X69807D01*
X70076Y172288D01*
X70306Y172030D01*
G01X71604Y172391D02*
X72141Y169291D01*
X72754Y172391D01*
X73367Y169291D01*
X73904Y172391D01*
G01X75854Y169291D02*
Y172391D01*
X75394Y171771D01*
G01Y169291D02*
X76314D01*
G01X70079Y187853D02*
X66690D01*
Y198759D01*
X70472D01*
G01D02*
X71893D01*
Y187853D01*
X70079D01*
G01X71943Y202850D02*
X82386D01*
G01X71943Y202806D02*
Y202850D01*
G01Y211324D02*
X82386D01*
G01X71943D02*
Y211367D01*
G01X79159Y107960D02*
X78929Y108115D01*
X78660Y108218D01*
X78354D01*
X78009Y108063D01*
X77741Y107805D01*
X77549Y107495D01*
X77395Y106978D01*
X77357Y106513D01*
X77434Y106048D01*
X77549Y105738D01*
X77779Y105428D01*
X78047Y105221D01*
X78315Y105118D01*
X78584D01*
X78852Y105221D01*
X79082Y105376D01*
X79274Y105583D01*
G01X81875Y105118D02*
Y108218D01*
X80457Y105996D01*
X82374D01*
G01X74074Y99606D02*
Y102995D01*
X84980D01*
Y99213D01*
G01D02*
Y97793D01*
X74074D01*
Y99606D01*
G01X86413Y145374D02*
X82893Y141854D01*
G01X72833Y143304D02*
X79913D01*
G01X83463Y146854D02*
X79913Y143304D01*
G01X90945Y147648D02*
X94045D01*
Y146690D01*
X93890Y146383D01*
X93683Y146191D01*
X93270Y146115D01*
X92857Y146191D01*
X92598Y146422D01*
X92443Y146690D01*
Y147648D01*
G01Y146690D02*
X90945Y146115D01*
G01X91410Y144625D02*
X91152Y144395D01*
X90996Y144126D01*
X90945Y143781D01*
X91048Y143437D01*
X91255Y143168D01*
X91617Y142976D01*
X92030Y142938D01*
X92443Y143015D01*
X92702Y143207D01*
X92908Y143475D01*
X92960Y143743D01*
X92908Y144011D01*
X92702Y144356D01*
X94045Y144241D01*
Y143207D01*
G01X92237Y141410D02*
X92598Y141141D01*
X92805Y140911D01*
X92908Y140605D01*
X92805Y140337D01*
X92598Y140145D01*
X92288Y139991D01*
X91926Y139953D01*
X91617Y139991D01*
X91306Y140145D01*
X91048Y140375D01*
X90945Y140643D01*
X91048Y140950D01*
X91358Y141218D01*
X91823Y141372D01*
X92340Y141410D01*
X93011Y141333D01*
X93373Y141218D01*
X93735Y141026D01*
X93993Y140758D01*
X94045Y140490D01*
X93942Y140222D01*
X93683Y140030D01*
G01X86413Y155414D02*
Y145374D01*
G01X82893Y158934D02*
X86413Y155414D01*
G01X80313Y157484D02*
X83463Y154334D01*
G01X72443Y157484D02*
X80313D01*
G01X83463Y154334D02*
Y146854D01*
G01X76796Y181582D02*
X76567Y181737D01*
X76298Y181840D01*
X75991D01*
X75646Y181685D01*
X75378Y181427D01*
X75187Y181117D01*
X75033Y180600D01*
X74995Y180135D01*
X75072Y179670D01*
X75187Y179360D01*
X75417Y179050D01*
X75685Y178843D01*
X75953Y178740D01*
X76222D01*
X76490Y178843D01*
X76720Y178998D01*
X76911Y179205D01*
G01X78210D02*
X78440Y178947D01*
X78708Y178792D01*
X79053Y178740D01*
X79398Y178843D01*
X79667Y179050D01*
X79858Y179412D01*
X79896Y179825D01*
X79820Y180239D01*
X79628Y180497D01*
X79360Y180704D01*
X79091Y180755D01*
X78823Y180704D01*
X78478Y180497D01*
X78593Y181840D01*
X79628D01*
G01X82153D02*
X81846Y181737D01*
X81617Y181478D01*
X81463Y181169D01*
X81348Y180755D01*
X81310Y180290D01*
X81348Y179825D01*
X81463Y179412D01*
X81617Y179102D01*
X81846Y178843D01*
X82153Y178740D01*
X82460Y178843D01*
X82690Y179102D01*
X82843Y179412D01*
X82958Y179825D01*
X82996Y180290D01*
X82958Y180755D01*
X82843Y181169D01*
X82690Y181478D01*
X82460Y181737D01*
X82153Y181840D01*
G01X84165Y173179D02*
Y170957D01*
X84318Y170492D01*
X84625Y170182D01*
X85008Y170079D01*
X85392Y170182D01*
X85698Y170492D01*
X85852Y170957D01*
Y173179D01*
G01X88108Y170079D02*
Y173179D01*
X87648Y172559D01*
G01Y170079D02*
X88568D01*
G01X90365Y170544D02*
X90595Y170285D01*
X90863Y170130D01*
X91208Y170079D01*
X91553Y170182D01*
X91822Y170389D01*
X92013Y170750D01*
X92052Y171164D01*
X91975Y171577D01*
X91783Y171835D01*
X91515Y172042D01*
X91246Y172094D01*
X90978Y172042D01*
X90633Y171835D01*
X90748Y173179D01*
X91783D01*
G01X75984Y187853D02*
X72596D01*
Y198759D01*
X76378D01*
G01D02*
X77798D01*
Y187853D01*
X75984D01*
G01X74038Y186402D02*
Y183076D01*
X81474D01*
Y187002D01*
X74038D01*
Y186402D01*
G01X77472Y217273D02*
Y215052D01*
X77625Y214587D01*
X77932Y214276D01*
X78315Y214173D01*
X78699Y214276D01*
X79006Y214587D01*
X79159Y215052D01*
Y217273D01*
G01X81415Y214173D02*
Y217273D01*
X80956Y216653D01*
G01Y214173D02*
X81875D01*
G01X84515D02*
Y217273D01*
X84056Y216653D01*
G01Y214173D02*
X84975D01*
G01X85029Y208612D02*
Y205512D01*
X86562D01*
G01X88167Y208095D02*
X88397Y208405D01*
X88666Y208560D01*
X88972Y208612D01*
X89356Y208509D01*
X89624Y208250D01*
X89701Y207940D01*
X89662Y207630D01*
X89509Y207372D01*
X88743Y206855D01*
X88397Y206493D01*
X88167Y205977D01*
X88091Y205512D01*
X89701D01*
G01X82386Y202806D02*
Y202850D01*
G01Y211324D02*
Y211367D01*
G01X88976Y231438D02*
X92365D01*
Y220532D01*
X88583D01*
G01D02*
X87163D01*
Y231438D01*
X88976D01*
G01X78784Y220409D02*
G03I-394J0D01*
G01X78833Y221748D02*
Y227072D01*
G01X85732Y221748D02*
Y227072D01*
G01X78735Y240725D02*
X79522D01*
Y233290D01*
X78735D01*
G01X76383Y240725D02*
X75596D01*
Y233290D01*
X76383D01*
G01X85832Y233291D02*
X85045D01*
Y240726D01*
X85832D01*
G01X88183Y233291D02*
X88971D01*
Y240726D01*
X88183D01*
G01X81108Y233291D02*
X80320D01*
Y240726D01*
X81108D01*
G01X83459Y233291D02*
X84246D01*
Y240726D01*
X83459D01*
G01X93095D02*
X89769D01*
Y233290D01*
X93695D01*
Y240726D01*
X93095D01*
G01X80709Y251191D02*
X83809D01*
Y250233D01*
X83654Y249926D01*
X83447Y249735D01*
X83033Y249658D01*
X82620Y249735D01*
X82362Y249965D01*
X82207Y250233D01*
Y251191D01*
G01Y250233D02*
X80709Y249658D01*
G01X81329Y248168D02*
X80967Y247938D01*
X80760Y247631D01*
X80709Y247287D01*
X80760Y246980D01*
X81019Y246673D01*
X81329Y246481D01*
X81639Y246443D01*
X82000Y246520D01*
X82259Y246788D01*
X82362Y247056D01*
Y247402D01*
G01Y247056D02*
X82517Y246826D01*
X82775Y246635D01*
X83085Y246558D01*
X83395Y246635D01*
X83654Y246826D01*
X83809Y247172D01*
X83757Y247517D01*
X83550Y247861D01*
G01X80709Y243765D02*
X83809D01*
X81587Y245183D01*
Y243267D01*
G01X88583Y251191D02*
X91683D01*
Y250233D01*
X91528Y249926D01*
X91321Y249735D01*
X90907Y249658D01*
X90494Y249735D01*
X90236Y249965D01*
X90081Y250233D01*
Y251191D01*
G01Y250233D02*
X88583Y249658D01*
G01Y246865D02*
X91683D01*
X89461Y248283D01*
Y246367D01*
G01X91683Y244225D02*
X91580Y244531D01*
X91321Y244761D01*
X91011Y244915D01*
X90598Y245030D01*
X90133Y245068D01*
X89668Y245030D01*
X89254Y244915D01*
X88944Y244761D01*
X88686Y244531D01*
X88583Y244225D01*
X88686Y243918D01*
X88944Y243688D01*
X89254Y243535D01*
X89668Y243420D01*
X90133Y243381D01*
X90598Y243420D01*
X91011Y243535D01*
X91321Y243688D01*
X91580Y243918D01*
X91683Y244225D01*
G01X84646Y251191D02*
X87746D01*
Y250233D01*
X87591Y249926D01*
X87384Y249735D01*
X86970Y249658D01*
X86557Y249735D01*
X86299Y249965D01*
X86144Y250233D01*
Y251191D01*
G01Y250233D02*
X84646Y249658D01*
G01X85266Y248168D02*
X84904Y247938D01*
X84697Y247631D01*
X84646Y247287D01*
X84697Y246980D01*
X84956Y246673D01*
X85266Y246481D01*
X85576Y246443D01*
X85937Y246520D01*
X86196Y246788D01*
X86299Y247056D01*
Y247402D01*
G01Y247056D02*
X86454Y246826D01*
X86712Y246635D01*
X87022Y246558D01*
X87332Y246635D01*
X87591Y246826D01*
X87746Y247172D01*
X87694Y247517D01*
X87487Y247861D01*
G01X85111Y245068D02*
X84852Y244838D01*
X84697Y244570D01*
X84646Y244225D01*
X84749Y243880D01*
X84956Y243611D01*
X85317Y243420D01*
X85731Y243381D01*
X86144Y243458D01*
X86402Y243650D01*
X86609Y243918D01*
X86661Y244187D01*
X86609Y244455D01*
X86402Y244800D01*
X87746Y244685D01*
Y243650D01*
G01X89754Y258494D02*
X89945Y258184D01*
X90175Y257977D01*
X90443Y257874D01*
X90750Y257977D01*
X90980Y258184D01*
X91210Y258494D01*
X91287Y258907D01*
Y260974D01*
G01X92969Y258235D02*
X93237Y257977D01*
X93543Y257874D01*
X93850Y257977D01*
X94119Y258287D01*
X94310Y258752D01*
X94387Y259217D01*
Y259786D01*
X94310Y260251D01*
X94119Y260664D01*
X93889Y260871D01*
X93620Y260974D01*
X93313Y260871D01*
X93083Y260664D01*
X92930Y260354D01*
X92854Y259941D01*
X92930Y259579D01*
X93122Y259217D01*
X93352Y259011D01*
X93620Y258959D01*
X93927Y259062D01*
X94157Y259320D01*
X94387Y259786D01*
G01X208762Y69287D02*
X90652D01*
G01X90451Y132787D02*
Y69287D01*
G01X208762Y132787D02*
X90451D01*
G01X106305Y140377D02*
X105517D01*
Y147812D01*
X106305D01*
G01X96462Y140377D02*
X95675D01*
Y147812D01*
X96462D01*
G01X98813Y140377D02*
X99601D01*
Y147812D01*
X98813D01*
G01X105527Y153937D02*
X104709D01*
G01X100527D02*
X99709D01*
G01X93307D02*
Y185236D01*
G01X95527Y153937D02*
X93307D01*
G01X96457Y198435D02*
X99557D01*
Y197477D01*
X99402Y197170D01*
X99195Y196979D01*
X98781Y196902D01*
X98369Y196979D01*
X98110Y197209D01*
X97955Y197477D01*
Y198435D01*
G01Y197477D02*
X96457Y196902D01*
G01Y194109D02*
X99557D01*
X97335Y195527D01*
Y193611D01*
G01X97077Y192312D02*
X96715Y192082D01*
X96508Y191776D01*
X96457Y191431D01*
X96508Y191124D01*
X96767Y190817D01*
X97077Y190626D01*
X97387Y190587D01*
X97748Y190664D01*
X98007Y190932D01*
X98110Y191200D01*
Y191546D01*
G01Y191200D02*
X98265Y190970D01*
X98523Y190779D01*
X98833Y190702D01*
X99143Y190779D01*
X99402Y190970D01*
X99557Y191316D01*
X99505Y191661D01*
X99298Y192006D01*
G01X101580Y192346D02*
X100793D01*
Y199781D01*
X101580D01*
G01X103931Y192346D02*
X104719D01*
Y199781D01*
X103931D01*
G01X106289Y196850D02*
Y199950D01*
X107247D01*
X107554Y199795D01*
X107746Y199589D01*
X107822Y199175D01*
X107746Y198762D01*
X107515Y198504D01*
X107247Y198349D01*
X106289D01*
G01X107247D02*
X107822Y196850D01*
G01X110615D02*
Y199950D01*
X109197Y197729D01*
X111114D01*
G01X113715Y196850D02*
Y199950D01*
X112297Y197729D01*
X114214D01*
G01X105338Y194089D02*
Y194876D01*
X112773D01*
Y194089D01*
G01X105338Y191738D02*
Y190950D01*
X112773D01*
Y191738D01*
G01X95527Y185433D02*
X93307D01*
G01X100527D02*
X99709D01*
G01X105527D02*
X104709D01*
G01X96543Y228322D02*
X96698Y228552D01*
X96801Y228820D01*
Y229127D01*
X96646Y229472D01*
X96387Y229740D01*
X96078Y229931D01*
X95561Y230085D01*
X95096Y230123D01*
X94631Y230046D01*
X94321Y229931D01*
X94011Y229702D01*
X93804Y229433D01*
X93701Y229165D01*
Y228896D01*
X93804Y228628D01*
X93959Y228398D01*
X94166Y228207D01*
G01X93701Y226065D02*
X96801D01*
X96181Y226525D01*
G01X93701D02*
Y225605D01*
G01X94062Y223617D02*
X93804Y223348D01*
X93701Y223042D01*
X93804Y222735D01*
X94114Y222467D01*
X94579Y222275D01*
X95044Y222198D01*
X95613D01*
X96078Y222275D01*
X96491Y222467D01*
X96698Y222696D01*
X96801Y222965D01*
X96698Y223272D01*
X96491Y223502D01*
X96181Y223655D01*
X95767Y223731D01*
X95406Y223655D01*
X95044Y223463D01*
X94837Y223233D01*
X94786Y222965D01*
X94889Y222658D01*
X95147Y222428D01*
X95613Y222198D01*
G01X103139Y235039D02*
Y238139D01*
X104098D01*
X104404Y237984D01*
X104596Y237778D01*
X104672Y237364D01*
X104596Y236951D01*
X104366Y236693D01*
X104098Y236538D01*
X103139D01*
G01X104098D02*
X104672Y235039D01*
G01X106163Y235659D02*
X106393Y235298D01*
X106699Y235091D01*
X107044Y235039D01*
X107351Y235091D01*
X107657Y235349D01*
X107849Y235659D01*
X107887Y235969D01*
X107811Y236331D01*
X107543Y236589D01*
X107274Y236693D01*
X106929D01*
G01X107274D02*
X107504Y236848D01*
X107696Y237106D01*
X107772Y237416D01*
X107696Y237726D01*
X107504Y237984D01*
X107159Y238139D01*
X106814Y238088D01*
X106469Y237881D01*
G01X109454Y235401D02*
X109722Y235143D01*
X110029Y235039D01*
X110336Y235143D01*
X110604Y235453D01*
X110796Y235918D01*
X110872Y236383D01*
Y236951D01*
X110796Y237416D01*
X110604Y237830D01*
X110374Y238036D01*
X110106Y238139D01*
X109799Y238036D01*
X109569Y237830D01*
X109416Y237519D01*
X109339Y237106D01*
X109416Y236744D01*
X109607Y236383D01*
X109837Y236176D01*
X110106Y236124D01*
X110413Y236228D01*
X110643Y236486D01*
X110872Y236951D01*
G01X102143Y235045D02*
Y234257D01*
X94707D01*
Y235045D01*
G01X102143Y237396D02*
Y238183D01*
X94707D01*
Y237396D01*
G01X113954Y244887D02*
Y244100D01*
X106519D01*
Y244887D01*
G01X113954Y247239D02*
Y248026D01*
X106519D01*
Y247239D01*
G01X95361Y249581D02*
X95517Y249811D01*
X95620Y250080D01*
Y250387D01*
X95465Y250731D01*
X95206Y251000D01*
X94896Y251191D01*
X94380Y251345D01*
X93915Y251383D01*
X93450Y251306D01*
X93140Y251191D01*
X92830Y250961D01*
X92623Y250693D01*
X92520Y250425D01*
Y250156D01*
X92623Y249888D01*
X92778Y249658D01*
X92985Y249467D01*
G01X95103Y248053D02*
X95413Y247823D01*
X95568Y247555D01*
X95620Y247248D01*
X95517Y246865D01*
X95258Y246596D01*
X94948Y246520D01*
X94638Y246558D01*
X94380Y246711D01*
X93863Y247478D01*
X93501Y247823D01*
X92985Y248053D01*
X92520Y248130D01*
Y246520D01*
G01X93140Y245068D02*
X92778Y244838D01*
X92571Y244531D01*
X92520Y244187D01*
X92571Y243880D01*
X92830Y243573D01*
X93140Y243381D01*
X93450Y243343D01*
X93811Y243420D01*
X94070Y243688D01*
X94173Y243956D01*
Y244302D01*
G01Y243956D02*
X94328Y243726D01*
X94586Y243535D01*
X94896Y243458D01*
X95206Y243535D01*
X95465Y243726D01*
X95620Y244072D01*
X95568Y244417D01*
X95361Y244761D01*
G01X117889Y264811D02*
G03I-6021J0D01*
G01X103994Y251969D02*
Y271654D01*
G01Y251969D02*
X119742D01*
G01X107111Y276070D02*
X106881Y276225D01*
X106613Y276328D01*
X106306D01*
X105961Y276173D01*
X105693Y275915D01*
X105502Y275605D01*
X105348Y275088D01*
X105310Y274623D01*
X105387Y274158D01*
X105502Y273848D01*
X105731Y273538D01*
X106000Y273331D01*
X106268Y273228D01*
X106537D01*
X106805Y273331D01*
X107035Y273487D01*
X107226Y273693D01*
G01X108640Y274520D02*
X108908Y274882D01*
X109138Y275088D01*
X109445Y275192D01*
X109713Y275088D01*
X109905Y274882D01*
X110058Y274572D01*
X110096Y274210D01*
X110058Y273900D01*
X109905Y273590D01*
X109675Y273331D01*
X109406Y273228D01*
X109100Y273331D01*
X108831Y273642D01*
X108678Y274107D01*
X108640Y274623D01*
X108717Y275295D01*
X108831Y275657D01*
X109023Y276019D01*
X109291Y276277D01*
X109560Y276328D01*
X109828Y276225D01*
X110020Y275967D01*
G01X111625Y273693D02*
X111855Y273435D01*
X112123Y273280D01*
X112468Y273228D01*
X112813Y273331D01*
X113081Y273538D01*
X113273Y273900D01*
X113311Y274313D01*
X113235Y274727D01*
X113043Y274985D01*
X112775Y275192D01*
X112506Y275243D01*
X112238Y275192D01*
X111893Y274985D01*
X112008Y276328D01*
X113043D01*
G01X103994Y271654D02*
X119742D01*
G01X118504Y135040D02*
Y158662D01*
G01Y135040D02*
X124041D01*
G01X111024Y147648D02*
X114124D01*
Y146690D01*
X113969Y146383D01*
X113762Y146191D01*
X113348Y146115D01*
X112935Y146191D01*
X112677Y146422D01*
X112522Y146690D01*
Y147648D01*
G01Y146690D02*
X111024Y146115D01*
G01X111489Y144625D02*
X111230Y144395D01*
X111075Y144126D01*
X111024Y143781D01*
X111127Y143437D01*
X111333Y143168D01*
X111695Y142976D01*
X112109Y142938D01*
X112522Y143015D01*
X112780Y143207D01*
X112987Y143475D01*
X113039Y143743D01*
X112987Y144011D01*
X112780Y144356D01*
X114124Y144241D01*
Y143207D01*
G01X111489Y141525D02*
X111230Y141295D01*
X111075Y141026D01*
X111024Y140681D01*
X111127Y140337D01*
X111333Y140068D01*
X111695Y139876D01*
X112109Y139838D01*
X112522Y139915D01*
X112780Y140107D01*
X112987Y140375D01*
X113039Y140643D01*
X112987Y140911D01*
X112780Y141256D01*
X114124Y141141D01*
Y140107D01*
G01X108656Y140377D02*
X109443D01*
Y147812D01*
X108656D01*
G01X118898Y158662D02*
X164567D01*
G01X116929Y153937D02*
X114709D01*
G01X116929D02*
Y185433D01*
G01X110527Y153937D02*
X109709D01*
G01X110527Y185433D02*
X109709D01*
G01X116929D02*
X114709D01*
G01X112511Y207087D02*
Y210187D01*
X113278D01*
X113585Y210031D01*
X113815Y209825D01*
X114006Y209515D01*
X114160Y209153D01*
X114198Y208637D01*
X114160Y208120D01*
X114006Y207758D01*
X113815Y207448D01*
X113585Y207242D01*
X113278Y207087D01*
X112511D01*
G01X116455D02*
Y210187D01*
X115995Y209567D01*
G01Y207087D02*
X116915D01*
G01X125747Y205678D02*
X130078D01*
X131062Y206662D01*
Y207253D01*
G01Y210009D02*
Y210600D01*
X130078Y211584D01*
X125747D01*
G01X119526Y211495D02*
Y205669D01*
G01X124250Y211575D02*
X119723D01*
G01X124250Y205669D02*
X119723D01*
G01X123223Y220253D02*
X124010D01*
Y212818D01*
X123223D01*
G01X120872Y220253D02*
X120084D01*
Y212818D01*
X120872D01*
G01X120472Y229931D02*
X123572D01*
Y228973D01*
X123417Y228667D01*
X123211Y228475D01*
X122797Y228398D01*
X122384Y228475D01*
X122126Y228705D01*
X121971Y228973D01*
Y229931D01*
G01Y228973D02*
X120472Y228398D01*
G01X123056Y226793D02*
X123366Y226563D01*
X123521Y226295D01*
X123572Y225988D01*
X123469Y225605D01*
X123211Y225337D01*
X122901Y225260D01*
X122591Y225298D01*
X122332Y225452D01*
X121816Y226218D01*
X121454Y226563D01*
X120937Y226793D01*
X120472Y226870D01*
Y225260D01*
G01Y223042D02*
X121144Y222965D01*
X121712Y222850D01*
X122229Y222696D01*
X122797Y222505D01*
X123572Y222198D01*
Y223731D01*
G01X115344Y244488D02*
Y247588D01*
X116302D01*
X116609Y247433D01*
X116801Y247226D01*
X116877Y246813D01*
X116801Y246400D01*
X116570Y246142D01*
X116302Y245987D01*
X115344D01*
G01X116302D02*
X116877Y244488D01*
G01X118367Y244953D02*
X118597Y244695D01*
X118866Y244540D01*
X119211Y244488D01*
X119556Y244591D01*
X119824Y244798D01*
X120016Y245160D01*
X120054Y245573D01*
X119977Y245987D01*
X119785Y246245D01*
X119517Y246452D01*
X119249Y246503D01*
X118981Y246452D01*
X118636Y246245D01*
X118751Y247588D01*
X119785D01*
G01X122770Y244488D02*
Y247588D01*
X121352Y245367D01*
X123269D01*
G01X119742Y251969D02*
Y271654D01*
G01X115019Y274803D02*
Y278192D01*
X125925D01*
Y274409D01*
G01D02*
Y272989D01*
X115019D01*
Y274803D01*
G01X139424Y135040D02*
X144041D01*
G01X129424D02*
X134041D01*
G01X130007Y167298D02*
X130162Y167528D01*
X130265Y167796D01*
Y168103D01*
X130110Y168448D01*
X129852Y168716D01*
X129542Y168908D01*
X129025Y169061D01*
X128560Y169100D01*
X128095Y169023D01*
X127785Y168908D01*
X127475Y168678D01*
X127269Y168410D01*
X127165Y168141D01*
Y167873D01*
X127269Y167605D01*
X127424Y167375D01*
X127630Y167183D01*
G01X127165Y165041D02*
X130265D01*
X129645Y165501D01*
G01X127165D02*
Y164581D01*
G01Y161481D02*
X130265D01*
X128044Y162900D01*
Y160983D01*
G01X136009Y168088D02*
X132683D01*
Y160652D01*
X136609D01*
Y168088D01*
X136009D01*
G01X149026Y181496D02*
Y178396D01*
X148068D01*
X147761Y178551D01*
X147569Y178758D01*
X147493Y179171D01*
X147569Y179584D01*
X147800Y179843D01*
X148068Y179998D01*
X149026D01*
G01X148068D02*
X147493Y181496D01*
G01X144700D02*
Y178396D01*
X146118Y180618D01*
X144201D01*
G01X142136Y181496D02*
X142059Y180824D01*
X141944Y180256D01*
X141791Y179739D01*
X141600Y179171D01*
X141293Y178396D01*
X142826D01*
G01X128172Y178746D02*
Y177958D01*
X135607D01*
Y178746D01*
G01X149026Y176772D02*
Y173672D01*
X148068D01*
X147761Y173827D01*
X147569Y174033D01*
X147493Y174447D01*
X147569Y174860D01*
X147800Y175118D01*
X148068Y175273D01*
X149026D01*
G01X148068D02*
X147493Y176772D01*
G01X144700D02*
Y173672D01*
X146118Y175893D01*
X144201D01*
G01X142903Y176307D02*
X142673Y176565D01*
X142404Y176720D01*
X142059Y176772D01*
X141715Y176669D01*
X141446Y176462D01*
X141254Y176100D01*
X141216Y175687D01*
X141293Y175273D01*
X141485Y175015D01*
X141753Y174808D01*
X142021Y174757D01*
X142289Y174808D01*
X142634Y175015D01*
X142519Y173672D01*
X141485D01*
G01X135607Y174415D02*
Y173628D01*
X128172D01*
Y174415D01*
G01X135607Y176766D02*
Y177554D01*
X128172D01*
Y176766D01*
G01X149026Y185827D02*
Y182727D01*
X148068D01*
X147761Y182882D01*
X147569Y183089D01*
X147493Y183502D01*
X147569Y183915D01*
X147800Y184173D01*
X148068Y184328D01*
X149026D01*
G01X148068D02*
X147493Y185827D01*
G01X144700D02*
Y182727D01*
X146118Y184948D01*
X144201D01*
G01X142059Y185827D02*
X141791Y185775D01*
X141485Y185620D01*
X141293Y185362D01*
X141216Y185000D01*
X141293Y184639D01*
X141523Y184328D01*
X141868Y184173D01*
X142251D01*
X142481Y184070D01*
X142673Y183812D01*
X142750Y183450D01*
X142634Y183089D01*
X142366Y182830D01*
X142059Y182727D01*
X141753Y182830D01*
X141485Y183089D01*
X141369Y183450D01*
X141446Y183812D01*
X141638Y184070D01*
X141868Y184173D01*
X142251D01*
X142596Y184328D01*
X142826Y184639D01*
X142903Y185000D01*
X142826Y185362D01*
X142634Y185620D01*
X142328Y185775D01*
X142059Y185827D01*
G01X128172Y186215D02*
Y187002D01*
X135607D01*
Y186215D01*
G01X128172Y183864D02*
Y183076D01*
X135607D01*
Y183864D01*
G01X128172Y181097D02*
Y181884D01*
X135607D01*
Y181097D01*
G01X149026Y193701D02*
Y190601D01*
X148068D01*
X147761Y190756D01*
X147569Y190963D01*
X147493Y191376D01*
X147569Y191789D01*
X147800Y192047D01*
X148068Y192202D01*
X149026D01*
G01X148068D02*
X147493Y193701D01*
G01X144700D02*
Y190601D01*
X146118Y192822D01*
X144201D01*
G01X142788Y192409D02*
X142519Y192047D01*
X142289Y191841D01*
X141983Y191737D01*
X141715Y191841D01*
X141523Y192047D01*
X141369Y192357D01*
X141331Y192719D01*
X141369Y193029D01*
X141523Y193339D01*
X141753Y193598D01*
X142021Y193701D01*
X142328Y193598D01*
X142596Y193287D01*
X142750Y192822D01*
X142788Y192306D01*
X142711Y191634D01*
X142596Y191272D01*
X142404Y190911D01*
X142136Y190652D01*
X141868Y190601D01*
X141600Y190704D01*
X141408Y190963D01*
G01X135607Y191344D02*
Y190557D01*
X128172D01*
Y191344D01*
G01X135607Y193695D02*
Y194483D01*
X128172D01*
Y193695D01*
G01X131969Y206757D02*
Y210301D01*
G01X131062Y210009D02*
Y207253D01*
G01X138158Y199213D02*
X137851Y199264D01*
X137583Y199471D01*
X137353Y199781D01*
X137200Y200143D01*
X137123Y200556D01*
Y200969D01*
X137200Y201383D01*
X137353Y201744D01*
X137583Y202054D01*
X137851Y202261D01*
X138158Y202313D01*
X138465Y202261D01*
X138733Y202054D01*
X138963Y201744D01*
X139116Y201383D01*
X139193Y200969D01*
Y200556D01*
X139116Y200143D01*
X138963Y199781D01*
X138733Y199471D01*
X138465Y199264D01*
X138158Y199213D01*
G01X138465Y200039D02*
X138924Y199213D01*
G01X141181D02*
X141258Y199884D01*
X141373Y200452D01*
X141526Y200969D01*
X141718Y201537D01*
X142024Y202313D01*
X140491D01*
G01X137795Y215852D02*
X140944D01*
G01X133362D02*
Y210133D01*
X137086D01*
G01X145379Y215852D02*
Y210133D01*
X141811D01*
G01X141818Y234621D02*
X141973Y234851D01*
X142076Y235119D01*
Y235426D01*
X141921Y235771D01*
X141663Y236039D01*
X141353Y236231D01*
X140836Y236384D01*
X140371Y236422D01*
X139906Y236346D01*
X139596Y236231D01*
X139286Y236001D01*
X139080Y235733D01*
X138976Y235464D01*
Y235196D01*
X139080Y234928D01*
X139235Y234698D01*
X139441Y234506D01*
G01X138976Y232364D02*
X142076D01*
X141456Y232824D01*
G01X138976D02*
Y231904D01*
G01X140268Y229993D02*
X140630Y229724D01*
X140836Y229494D01*
X140940Y229187D01*
X140836Y228919D01*
X140630Y228728D01*
X140320Y228574D01*
X139958Y228536D01*
X139648Y228574D01*
X139338Y228728D01*
X139080Y228957D01*
X138976Y229226D01*
X139080Y229533D01*
X139390Y229801D01*
X139855Y229954D01*
X140371Y229993D01*
X141043Y229916D01*
X141405Y229801D01*
X141767Y229609D01*
X142025Y229341D01*
X142076Y229072D01*
X141973Y228804D01*
X141715Y228613D01*
G01X144094Y255916D02*
X147194D01*
Y254957D01*
X147039Y254651D01*
X146833Y254459D01*
X146419Y254383D01*
X146006Y254459D01*
X145748Y254689D01*
X145593Y254957D01*
Y255916D01*
G01Y254957D02*
X144094Y254383D01*
G01X144559Y252893D02*
X144301Y252663D01*
X144146Y252394D01*
X144094Y252049D01*
X144198Y251704D01*
X144404Y251436D01*
X144766Y251244D01*
X145180Y251206D01*
X145593Y251283D01*
X145851Y251474D01*
X146058Y251743D01*
X146109Y252011D01*
X146058Y252279D01*
X145851Y252624D01*
X147194Y252509D01*
Y251474D01*
G01X144715Y249793D02*
X144353Y249563D01*
X144146Y249256D01*
X144094Y248911D01*
X144146Y248604D01*
X144404Y248298D01*
X144715Y248106D01*
X145024Y248068D01*
X145386Y248144D01*
X145644Y248413D01*
X145748Y248681D01*
Y249026D01*
G01Y248681D02*
X145903Y248451D01*
X146161Y248259D01*
X146471Y248183D01*
X146781Y248259D01*
X147039Y248451D01*
X147194Y248796D01*
X147143Y249141D01*
X146936Y249486D01*
G01X139376Y248251D02*
X138588D01*
Y255686D01*
X139376D01*
G01X141727Y248251D02*
X142514D01*
Y255686D01*
X141727D01*
G01X132089Y267298D02*
X132856D01*
Y266368D01*
X132625Y266058D01*
X132357Y265851D01*
X131974Y265748D01*
X131590Y265851D01*
X131322Y266058D01*
X131092Y266368D01*
X130939Y266730D01*
X130862Y267143D01*
Y267505D01*
X130939Y267815D01*
X131092Y268176D01*
X131322Y268486D01*
X131552Y268693D01*
X131859Y268848D01*
X132127D01*
X132433Y268745D01*
X132664Y268538D01*
G01X134077Y265748D02*
Y268848D01*
X135840Y265748D01*
Y268848D01*
G01X137215Y265748D02*
Y268848D01*
X137982D01*
X138289Y268693D01*
X138519Y268486D01*
X138710Y268176D01*
X138864Y267815D01*
X138902Y267298D01*
X138864Y266781D01*
X138710Y266420D01*
X138519Y266109D01*
X138289Y265903D01*
X137982Y265748D01*
X137215D01*
G01X142509D02*
Y268848D01*
X143468D01*
X143774Y268693D01*
X143966Y268486D01*
X144043Y268073D01*
X143966Y267660D01*
X143736Y267402D01*
X143468Y267246D01*
X142509D01*
G01X143468D02*
X144043Y265748D01*
G01X145571D02*
X147181Y268848D01*
G01X145571D02*
X147181Y265748D01*
G01X160709Y280197D02*
X129055D01*
G01X160709Y270197D02*
X129055D01*
G01Y280197D02*
Y270197D01*
G01X159424Y135040D02*
X164567D01*
G01X149424D02*
X154041D01*
G01X162291Y177534D02*
X162446Y177764D01*
X162549Y178033D01*
Y178339D01*
X162394Y178684D01*
X162135Y178952D01*
X161826Y179144D01*
X161309Y179298D01*
X160844Y179336D01*
X160379Y179259D01*
X160069Y179144D01*
X159759Y178914D01*
X159552Y178646D01*
X159449Y178378D01*
Y178109D01*
X159552Y177841D01*
X159707Y177611D01*
X159914Y177419D01*
G01X159449Y175278D02*
X162549D01*
X161929Y175737D01*
G01X159449D02*
Y174818D01*
G01Y172178D02*
X159500Y171909D01*
X159656Y171603D01*
X159914Y171411D01*
X160276Y171334D01*
X160637Y171411D01*
X160947Y171641D01*
X161102Y171986D01*
Y172369D01*
X161206Y172599D01*
X161464Y172791D01*
X161826Y172868D01*
X162187Y172752D01*
X162446Y172484D01*
X162549Y172178D01*
X162446Y171871D01*
X162187Y171603D01*
X161826Y171487D01*
X161464Y171564D01*
X161206Y171756D01*
X161102Y171986D01*
Y172369D01*
X160947Y172714D01*
X160637Y172944D01*
X160276Y173021D01*
X159914Y172944D01*
X159656Y172752D01*
X159500Y172446D01*
X159449Y172178D01*
G01X154331Y196850D02*
Y220472D01*
G01X177953Y196850D02*
X154331D01*
G01X172163Y208661D02*
G03I-6021J0D01*
G01X160142Y216661D02*
G03I-2000J0D01*
G01X160148Y200669D02*
G03I-2000J0D01*
G01X177953Y220472D02*
X154331D01*
G01X147426Y236001D02*
X144100D01*
Y228566D01*
X148026D01*
Y236001D01*
X147426D01*
G01X153512Y268848D02*
Y265748D01*
G01X152631Y268848D02*
X154394D01*
G01X155807Y265748D02*
X157417Y268848D01*
G01X155807D02*
X157417Y265748D01*
G01X160709Y280197D02*
Y270197D01*
G01X149790Y280197D02*
Y270197D01*
G01X164567Y135040D02*
Y158662D01*
G01X179946Y139850D02*
X179716Y140005D01*
X179448Y140108D01*
X179141D01*
X178796Y139953D01*
X178528Y139694D01*
X178336Y139385D01*
X178183Y138868D01*
X178144Y138403D01*
X178221Y137938D01*
X178336Y137628D01*
X178566Y137318D01*
X178834Y137111D01*
X179103Y137008D01*
X179371D01*
X179639Y137111D01*
X179869Y137266D01*
X180061Y137473D01*
G01X182203Y137008D02*
Y140108D01*
X181743Y139488D01*
G01Y137008D02*
X182663D01*
G01X184459Y137473D02*
X184689Y137215D01*
X184958Y137059D01*
X185303Y137008D01*
X185648Y137111D01*
X185916Y137318D01*
X186108Y137680D01*
X186146Y138093D01*
X186069Y138506D01*
X185878Y138765D01*
X185609Y138971D01*
X185341Y139023D01*
X185073Y138971D01*
X184728Y138765D01*
X184843Y140108D01*
X185878D01*
G01X176552Y137220D02*
Y140546D01*
X169117D01*
Y136620D01*
X176552D01*
Y137220D01*
G01X167236Y150738D02*
Y148516D01*
X167389Y148051D01*
X167696Y147741D01*
X168079Y147638D01*
X168463Y147741D01*
X168769Y148051D01*
X168922Y148516D01*
Y150738D01*
G01X171179Y147638D02*
X171448Y147689D01*
X171754Y147844D01*
X171946Y148103D01*
X172022Y148465D01*
X171946Y148826D01*
X171716Y149136D01*
X171371Y149291D01*
X170987D01*
X170757Y149394D01*
X170566Y149653D01*
X170489Y150015D01*
X170604Y150376D01*
X170872Y150635D01*
X171179Y150738D01*
X171486Y150635D01*
X171754Y150376D01*
X171869Y150015D01*
X171793Y149653D01*
X171601Y149394D01*
X171371Y149291D01*
X170987D01*
X170643Y149136D01*
X170413Y148826D01*
X170336Y148465D01*
X170413Y148103D01*
X170604Y147844D01*
X170911Y147689D01*
X171179Y147638D01*
G01X172824Y160187D02*
Y157087D01*
X174357D01*
G01X176691D02*
Y160187D01*
X176231Y159567D01*
G01Y157087D02*
X177151D01*
G01X166621Y177534D02*
X166776Y177764D01*
X166880Y178033D01*
Y178339D01*
X166724Y178684D01*
X166466Y178952D01*
X166156Y179144D01*
X165639Y179298D01*
X165174Y179336D01*
X164709Y179259D01*
X164400Y179144D01*
X164089Y178914D01*
X163883Y178646D01*
X163780Y178378D01*
Y178109D01*
X163883Y177841D01*
X164038Y177611D01*
X164244Y177419D01*
G01X163780Y175278D02*
X166880D01*
X166259Y175737D01*
G01X163780D02*
Y174818D01*
G01X164400Y173021D02*
X164038Y172791D01*
X163831Y172484D01*
X163780Y172139D01*
X163831Y171833D01*
X164089Y171526D01*
X164400Y171334D01*
X164709Y171296D01*
X165071Y171372D01*
X165330Y171641D01*
X165433Y171909D01*
Y172254D01*
G01Y171909D02*
X165588Y171679D01*
X165846Y171487D01*
X166156Y171411D01*
X166466Y171487D01*
X166724Y171679D01*
X166880Y172024D01*
X166828Y172369D01*
X166621Y172714D01*
G01X176378Y180257D02*
X179767D01*
Y169351D01*
X175984D01*
G01D02*
X174564D01*
Y180257D01*
X176378D01*
G01X170472D02*
X173861D01*
Y169351D01*
X170079D01*
G01D02*
X168659D01*
Y180257D01*
X170472D01*
G01X177953Y196850D02*
Y220472D01*
G01X180709Y205916D02*
X183809D01*
Y204957D01*
X183654Y204651D01*
X183447Y204459D01*
X183033Y204383D01*
X182620Y204459D01*
X182362Y204689D01*
X182207Y204957D01*
Y205916D01*
G01Y204957D02*
X180709Y204383D01*
G01X183292Y202778D02*
X183602Y202548D01*
X183757Y202279D01*
X183809Y201972D01*
X183706Y201589D01*
X183447Y201321D01*
X183137Y201244D01*
X182827Y201283D01*
X182569Y201436D01*
X182052Y202202D01*
X181690Y202548D01*
X181174Y202778D01*
X180709Y202854D01*
Y201244D01*
G01X181070Y199601D02*
X180812Y199333D01*
X180709Y199026D01*
X180812Y198719D01*
X181122Y198451D01*
X181587Y198259D01*
X182052Y198183D01*
X182620D01*
X183085Y198259D01*
X183499Y198451D01*
X183706Y198681D01*
X183809Y198949D01*
X183706Y199256D01*
X183499Y199486D01*
X183189Y199639D01*
X182775Y199716D01*
X182414Y199639D01*
X182052Y199448D01*
X181845Y199218D01*
X181794Y198949D01*
X181897Y198643D01*
X182155Y198413D01*
X182620Y198183D01*
G01X176142Y216661D02*
G03I-2000J0D01*
G01Y200661D02*
G03I-2000J0D01*
G01X162943Y235453D02*
X163250Y235194D01*
X163595Y235039D01*
X163902D01*
X164208Y235194D01*
X164439Y235453D01*
X164554Y235815D01*
X164477Y236176D01*
X164285Y236486D01*
X163940Y236693D01*
X163480Y236796D01*
X163212Y237003D01*
X163097Y237364D01*
X163174Y237726D01*
X163365Y237984D01*
X163633Y238139D01*
X163902D01*
X164170Y238036D01*
X164400Y237778D01*
G01X165698Y238139D02*
X166235Y235039D01*
X166848Y238139D01*
X167462Y235039D01*
X167998Y238139D01*
G01X169105Y235659D02*
X169335Y235298D01*
X169642Y235091D01*
X169987Y235039D01*
X170293Y235091D01*
X170600Y235349D01*
X170792Y235659D01*
X170830Y235969D01*
X170754Y236331D01*
X170485Y236589D01*
X170217Y236693D01*
X169872D01*
G01X170217D02*
X170447Y236848D01*
X170639Y237106D01*
X170715Y237416D01*
X170639Y237726D01*
X170447Y237984D01*
X170102Y238139D01*
X169757Y238088D01*
X169412Y237881D01*
G01X163376Y274636D02*
X163567Y274326D01*
X163797Y274119D01*
X164065Y274016D01*
X164372Y274119D01*
X164602Y274326D01*
X164832Y274636D01*
X164909Y275049D01*
Y277116D01*
G01X166514Y276599D02*
X166744Y276909D01*
X167012Y277064D01*
X167319Y277116D01*
X167702Y277013D01*
X167970Y276754D01*
X168047Y276444D01*
X168009Y276134D01*
X167856Y275876D01*
X167089Y275359D01*
X166744Y274997D01*
X166514Y274481D01*
X166437Y274016D01*
X168047D01*
G01X191441Y154774D02*
Y154818D01*
G01X180998D02*
X191441D01*
G01X180998Y154774D02*
Y154818D01*
G01X199213Y168563D02*
X197793D01*
Y179470D01*
X199606D01*
G01X194007Y166092D02*
Y163870D01*
X194161Y163406D01*
X194467Y163095D01*
X194851Y162992D01*
X195234Y163095D01*
X195541Y163406D01*
X195694Y163870D01*
Y166092D01*
G01X197951Y162992D02*
Y166092D01*
X197491Y165472D01*
G01Y162992D02*
X198411D01*
G01X201051Y166092D02*
X200744Y165989D01*
X200514Y165730D01*
X200361Y165420D01*
X200246Y165007D01*
X200207Y164542D01*
X200246Y164077D01*
X200361Y163664D01*
X200514Y163354D01*
X200744Y163095D01*
X201051Y162992D01*
X201357Y163095D01*
X201587Y163354D01*
X201741Y163664D01*
X201856Y164077D01*
X201894Y164542D01*
X201856Y165007D01*
X201741Y165420D01*
X201587Y165730D01*
X201357Y165989D01*
X201051Y166092D01*
G01X188626Y170409D02*
G03I-394J0D01*
G01X188676Y171748D02*
Y177072D01*
G01X195575Y171748D02*
Y177072D01*
G01X191441Y163292D02*
Y163336D01*
G01X180998Y163292D02*
X191441D01*
G01X180998D02*
Y163336D01*
G01X195669Y199223D02*
X198769D01*
Y198265D01*
X198614Y197958D01*
X198407Y197766D01*
X197994Y197690D01*
X197581Y197766D01*
X197323Y197996D01*
X197168Y198265D01*
Y199223D01*
G01Y198265D02*
X195669Y197690D01*
G01X196289Y196200D02*
X195928Y195970D01*
X195721Y195663D01*
X195669Y195318D01*
X195721Y195011D01*
X195979Y194705D01*
X196289Y194513D01*
X196599Y194475D01*
X196961Y194551D01*
X197219Y194820D01*
X197323Y195088D01*
Y195433D01*
G01Y195088D02*
X197478Y194858D01*
X197736Y194666D01*
X198046Y194590D01*
X198356Y194666D01*
X198614Y194858D01*
X198769Y195203D01*
X198718Y195548D01*
X198511Y195893D01*
G01X195669Y192256D02*
X195721Y191988D01*
X195876Y191681D01*
X196134Y191490D01*
X196496Y191413D01*
X196857Y191490D01*
X197168Y191720D01*
X197323Y192065D01*
Y192448D01*
X197426Y192678D01*
X197684Y192870D01*
X198046Y192946D01*
X198407Y192831D01*
X198666Y192563D01*
X198769Y192256D01*
X198666Y191950D01*
X198407Y191681D01*
X198046Y191566D01*
X197684Y191643D01*
X197426Y191835D01*
X197323Y192065D01*
Y192448D01*
X197168Y192793D01*
X196857Y193023D01*
X196496Y193100D01*
X196134Y193023D01*
X195876Y192831D01*
X195721Y192525D01*
X195669Y192256D01*
G01X195675Y189938D02*
X194887D01*
Y182503D01*
X195675D01*
G01X186210Y194882D02*
Y197982D01*
X187169D01*
X187475Y197827D01*
X187667Y197620D01*
X187743Y197207D01*
X187667Y196794D01*
X187437Y196535D01*
X187169Y196380D01*
X186210D01*
G01X187169D02*
X187743Y194882D01*
G01X189233Y195502D02*
X189463Y195140D01*
X189770Y194933D01*
X190115Y194882D01*
X190422Y194933D01*
X190728Y195192D01*
X190920Y195502D01*
X190958Y195812D01*
X190882Y196174D01*
X190613Y196432D01*
X190345Y196535D01*
X190000D01*
G01X190345D02*
X190575Y196690D01*
X190767Y196948D01*
X190843Y197259D01*
X190767Y197569D01*
X190575Y197827D01*
X190230Y197982D01*
X189885Y197930D01*
X189540Y197724D01*
G01X192333Y195502D02*
X192563Y195140D01*
X192870Y194933D01*
X193215Y194882D01*
X193522Y194933D01*
X193828Y195192D01*
X194020Y195502D01*
X194058Y195812D01*
X193982Y196174D01*
X193713Y196432D01*
X193445Y196535D01*
X193100D01*
G01X193445D02*
X193675Y196690D01*
X193867Y196948D01*
X193943Y197259D01*
X193867Y197569D01*
X193675Y197827D01*
X193330Y197982D01*
X192985Y197930D01*
X192640Y197724D01*
G01X194269Y187407D02*
Y186620D01*
X186833D01*
Y187407D01*
G01X194269Y189758D02*
Y190546D01*
X186833D01*
Y189758D01*
G01X186210Y191339D02*
Y194439D01*
X187169D01*
X187475Y194283D01*
X187667Y194077D01*
X187743Y193663D01*
X187667Y193250D01*
X187437Y192992D01*
X187169Y192837D01*
X186210D01*
G01X187169D02*
X187743Y191339D01*
G01X189233Y191959D02*
X189463Y191597D01*
X189770Y191390D01*
X190115Y191339D01*
X190422Y191390D01*
X190728Y191648D01*
X190920Y191959D01*
X190958Y192269D01*
X190882Y192630D01*
X190613Y192889D01*
X190345Y192992D01*
X190000D01*
G01X190345D02*
X190575Y193147D01*
X190767Y193405D01*
X190843Y193715D01*
X190767Y194025D01*
X190575Y194283D01*
X190230Y194439D01*
X189885Y194387D01*
X189540Y194180D01*
G01X192448Y193922D02*
X192678Y194232D01*
X192947Y194387D01*
X193254Y194439D01*
X193637Y194335D01*
X193905Y194077D01*
X193982Y193767D01*
X193943Y193457D01*
X193790Y193198D01*
X193024Y192682D01*
X192678Y192320D01*
X192448Y191804D01*
X192372Y191339D01*
X193982D01*
G01X186834Y185034D02*
Y185821D01*
X194269D01*
Y185034D01*
G01X186834Y182683D02*
Y181895D01*
X194269D01*
Y182683D01*
G01X187013Y198645D02*
X186226D01*
Y206080D01*
X187013D01*
G01X189365Y198645D02*
X190152D01*
Y206080D01*
X189365D01*
G01X182667Y212598D02*
Y215698D01*
X183625D01*
X183932Y215543D01*
X184124Y215337D01*
X184200Y214923D01*
X184124Y214510D01*
X183893Y214252D01*
X183625Y214097D01*
X182667D01*
G01X183625D02*
X184200Y212598D01*
G01X185690Y213219D02*
X185920Y212857D01*
X186227Y212650D01*
X186572Y212598D01*
X186878Y212650D01*
X187185Y212908D01*
X187377Y213219D01*
X187415Y213528D01*
X187339Y213890D01*
X187070Y214148D01*
X186802Y214252D01*
X186457D01*
G01X186802D02*
X187032Y214407D01*
X187224Y214665D01*
X187300Y214975D01*
X187224Y215285D01*
X187032Y215543D01*
X186687Y215698D01*
X186342Y215647D01*
X185997Y215440D01*
G01X189633Y215698D02*
X189327Y215595D01*
X189097Y215337D01*
X188943Y215027D01*
X188828Y214613D01*
X188790Y214148D01*
X188828Y213683D01*
X188943Y213270D01*
X189097Y212960D01*
X189327Y212702D01*
X189633Y212598D01*
X189940Y212702D01*
X190170Y212960D01*
X190324Y213270D01*
X190439Y213683D01*
X190477Y214148D01*
X190439Y214613D01*
X190324Y215027D01*
X190170Y215337D01*
X189940Y215595D01*
X189633Y215698D01*
G01X190331Y207880D02*
Y207092D01*
X182896D01*
Y207880D01*
G01X190331Y210231D02*
Y211018D01*
X182896D01*
Y210231D01*
G01X194488Y220089D02*
X197588D01*
Y219131D01*
X197433Y218824D01*
X197226Y218632D01*
X196813Y218556D01*
X196400Y218632D01*
X196142Y218863D01*
X195987Y219131D01*
Y220089D01*
G01Y219131D02*
X194488Y218556D01*
G01X197072Y216951D02*
X197381Y216721D01*
X197537Y216452D01*
X197588Y216146D01*
X197485Y215763D01*
X197226Y215494D01*
X196917Y215417D01*
X196606Y215456D01*
X196348Y215609D01*
X195831Y216376D01*
X195470Y216721D01*
X194953Y216951D01*
X194488Y217028D01*
Y215417D01*
G01Y213122D02*
X194540Y212854D01*
X194695Y212548D01*
X194953Y212356D01*
X195315Y212279D01*
X195676Y212356D01*
X195987Y212586D01*
X196142Y212931D01*
Y213314D01*
X196245Y213544D01*
X196503Y213736D01*
X196865Y213813D01*
X197226Y213697D01*
X197485Y213429D01*
X197588Y213122D01*
X197485Y212816D01*
X197226Y212548D01*
X196865Y212432D01*
X196503Y212509D01*
X196245Y212701D01*
X196142Y212931D01*
Y213314D01*
X195987Y213659D01*
X195676Y213889D01*
X195315Y213966D01*
X194953Y213889D01*
X194695Y213697D01*
X194540Y213391D01*
X194488Y213122D01*
G01X195675Y203369D02*
X194887D01*
Y210804D01*
X195675D01*
G01X190935Y243140D02*
X191126Y242830D01*
X191356Y242623D01*
X191624Y242520D01*
X191931Y242623D01*
X192161Y242830D01*
X192391Y243140D01*
X192468Y243553D01*
Y245620D01*
G01X193958Y243140D02*
X194188Y242778D01*
X194494Y242571D01*
X194839Y242520D01*
X195146Y242571D01*
X195453Y242830D01*
X195644Y243140D01*
X195683Y243450D01*
X195606Y243811D01*
X195338Y244070D01*
X195070Y244173D01*
X194724D01*
G01X195070D02*
X195300Y244328D01*
X195491Y244586D01*
X195568Y244896D01*
X195491Y245206D01*
X195300Y245465D01*
X194954Y245620D01*
X194609Y245568D01*
X194265Y245361D01*
G01X199807Y247354D02*
X187307D01*
G01X187807D02*
X186807D01*
G01D02*
Y252700D01*
G01Y259111D02*
Y271598D01*
G01Y278007D02*
Y283354D01*
G01X187307D02*
X186807D01*
G01X199807D02*
X187307D01*
G01X208762Y132787D02*
Y69287D01*
G01X198338Y138927D02*
Y136705D01*
X198491Y136240D01*
X198798Y135930D01*
X199181Y135827D01*
X199565Y135930D01*
X199872Y136240D01*
X200025Y136705D01*
Y138927D01*
G01X201553Y138410D02*
X201783Y138720D01*
X202052Y138875D01*
X202358Y138927D01*
X202741Y138824D01*
X203010Y138565D01*
X203087Y138255D01*
X203048Y137945D01*
X202895Y137687D01*
X202128Y137170D01*
X201783Y136808D01*
X201553Y136292D01*
X201476Y135827D01*
X203087D01*
G01X211724Y151919D02*
Y149697D01*
X211877Y149232D01*
X212184Y148922D01*
X212567Y148819D01*
X212951Y148922D01*
X213257Y149232D01*
X213411Y149697D01*
Y151919D01*
G01X215591Y148819D02*
X215667Y149491D01*
X215782Y150059D01*
X215936Y150576D01*
X216127Y151144D01*
X216434Y151919D01*
X214901D01*
G01X207566Y172810D02*
X207721Y173040D01*
X207824Y173308D01*
Y173615D01*
X207669Y173960D01*
X207411Y174228D01*
X207101Y174420D01*
X206584Y174573D01*
X206119Y174611D01*
X205654Y174535D01*
X205344Y174420D01*
X205034Y174190D01*
X204828Y173922D01*
X204724Y173653D01*
Y173385D01*
X204828Y173117D01*
X204983Y172887D01*
X205189Y172695D01*
G01X204724Y170553D02*
X207824D01*
X207204Y171013D01*
G01X204724D02*
Y170093D01*
G01X207824Y167453D02*
X207721Y167760D01*
X207463Y167990D01*
X207153Y168143D01*
X206739Y168258D01*
X206274Y168296D01*
X205809Y168258D01*
X205396Y168143D01*
X205086Y167990D01*
X204828Y167760D01*
X204724Y167453D01*
X204828Y167146D01*
X205086Y166917D01*
X205396Y166763D01*
X205809Y166648D01*
X206274Y166610D01*
X206739Y166648D01*
X207153Y166763D01*
X207463Y166917D01*
X207721Y167146D01*
X207824Y167453D01*
G01X199606Y179470D02*
X202995D01*
Y168563D01*
X199213D01*
G01X209418Y183858D02*
X209111Y183910D01*
X208843Y184117D01*
X208613Y184426D01*
X208459Y184788D01*
X208383Y185202D01*
Y185615D01*
X208459Y186028D01*
X208613Y186390D01*
X208843Y186700D01*
X209111Y186907D01*
X209418Y186958D01*
X209724Y186907D01*
X209993Y186700D01*
X210223Y186390D01*
X210376Y186028D01*
X210453Y185615D01*
Y185202D01*
X210376Y184788D01*
X210223Y184426D01*
X209993Y184117D01*
X209724Y183910D01*
X209418Y183858D01*
G01X209724Y184685D02*
X210184Y183858D01*
G01X212518D02*
X212786Y183910D01*
X213093Y184065D01*
X213284Y184323D01*
X213361Y184685D01*
X213284Y185046D01*
X213054Y185357D01*
X212709Y185512D01*
X212326D01*
X212096Y185615D01*
X211904Y185873D01*
X211828Y186235D01*
X211943Y186596D01*
X212211Y186855D01*
X212518Y186958D01*
X212824Y186855D01*
X213093Y186596D01*
X213208Y186235D01*
X213131Y185873D01*
X212939Y185615D01*
X212709Y185512D01*
X212326D01*
X211981Y185357D01*
X211751Y185046D01*
X211674Y184685D01*
X211751Y184323D01*
X211943Y184065D01*
X212249Y183910D01*
X212518Y183858D01*
G01X212205Y193991D02*
X209056D01*
G01X204621D02*
Y199710D01*
X208189D01*
G01X198026Y189938D02*
X198813D01*
Y182503D01*
X198026D01*
G01X206212Y215748D02*
Y218848D01*
X206979D01*
X207285Y218693D01*
X207515Y218486D01*
X207707Y218176D01*
X207861Y217815D01*
X207899Y217298D01*
X207861Y216781D01*
X207707Y216420D01*
X207515Y216109D01*
X207285Y215903D01*
X206979Y215748D01*
X206212D01*
G01X209427Y218331D02*
X209657Y218641D01*
X209926Y218796D01*
X210232Y218848D01*
X210615Y218745D01*
X210884Y218486D01*
X210961Y218176D01*
X210922Y217866D01*
X210769Y217608D01*
X210002Y217091D01*
X209657Y216730D01*
X209427Y216213D01*
X209350Y215748D01*
X210961D01*
G01X214252Y206757D02*
Y210301D01*
G01X208030Y205678D02*
X212361D01*
X213345Y206662D01*
Y207253D01*
G01Y210009D02*
Y207253D01*
G01Y210009D02*
Y210600D01*
X212361Y211584D01*
X208030D01*
G01X201809Y211495D02*
Y205669D01*
G01X206533Y211575D02*
X202006D01*
G01X206533Y205669D02*
X202006D01*
G01X216638Y193991D02*
Y199710D01*
X212914D01*
G01X198026Y203369D02*
X198813D01*
Y210804D01*
X198026D01*
G01X199807Y247354D02*
Y252700D01*
G01Y259111D02*
Y271598D01*
G01Y278007D02*
Y283354D01*
G01X218701Y95112D02*
X226040D01*
G01X218701Y209612D02*
Y95112D01*
G01X231602D02*
X255800D01*
G01X218701Y209612D02*
X268701D01*
G01X228039Y235408D02*
X228194Y235638D01*
X228297Y235907D01*
Y236213D01*
X228142Y236558D01*
X227883Y236826D01*
X227574Y237018D01*
X227057Y237172D01*
X226592Y237210D01*
X226127Y237133D01*
X225817Y237018D01*
X225507Y236788D01*
X225300Y236520D01*
X225197Y236252D01*
Y235983D01*
X225300Y235715D01*
X225455Y235485D01*
X225662Y235293D01*
G01X225197Y233152D02*
X228297D01*
X227677Y233611D01*
G01X225197D02*
Y232692D01*
G01Y230052D02*
X228297D01*
X227677Y230511D01*
G01X225197D02*
Y229592D01*
G01X223708Y235408D02*
X223863Y235638D01*
X223966Y235907D01*
Y236213D01*
X223811Y236558D01*
X223553Y236826D01*
X223243Y237018D01*
X222726Y237172D01*
X222261Y237210D01*
X221796Y237133D01*
X221486Y237018D01*
X221176Y236788D01*
X220969Y236520D01*
X220866Y236252D01*
Y235983D01*
X220969Y235715D01*
X221124Y235485D01*
X221331Y235293D01*
G01X223450Y233880D02*
X223759Y233650D01*
X223915Y233381D01*
X223966Y233075D01*
X223863Y232692D01*
X223604Y232423D01*
X223294Y232346D01*
X222984Y232385D01*
X222726Y232538D01*
X222209Y233305D01*
X221848Y233650D01*
X221331Y233880D01*
X220866Y233957D01*
Y232346D01*
G01X223450Y230780D02*
X223759Y230550D01*
X223915Y230281D01*
X223966Y229975D01*
X223863Y229592D01*
X223604Y229323D01*
X223294Y229246D01*
X222984Y229285D01*
X222726Y229438D01*
X222209Y230205D01*
X221848Y230550D01*
X221331Y230780D01*
X220866Y230857D01*
Y229246D01*
G01X231890Y244430D02*
X235278D01*
Y233524D01*
X231496D01*
G01D02*
X230076D01*
Y244430D01*
X231890D01*
G01X236154Y253803D02*
G03I-2236J0D01*
G01X228416Y248803D02*
X228677D01*
G01X228416D02*
Y250925D01*
G01X231092Y265581D02*
X231284Y265270D01*
X231514Y265064D01*
X231782Y264961D01*
X232089Y265064D01*
X232319Y265270D01*
X232549Y265581D01*
X232625Y265994D01*
Y268061D01*
G01X234230Y266252D02*
X234499Y266614D01*
X234729Y266820D01*
X235035Y266924D01*
X235304Y266820D01*
X235495Y266614D01*
X235649Y266304D01*
X235687Y265942D01*
X235649Y265632D01*
X235495Y265322D01*
X235265Y265064D01*
X234997Y264961D01*
X234690Y265064D01*
X234422Y265374D01*
X234269Y265839D01*
X234230Y266356D01*
X234307Y267027D01*
X234422Y267389D01*
X234614Y267751D01*
X234882Y268009D01*
X235150Y268061D01*
X235419Y267957D01*
X235610Y267699D01*
G01X228416Y256682D02*
Y258803D01*
G01D02*
X228677D01*
G01X242903Y216092D02*
Y212992D01*
X244436D01*
G01X245926Y213612D02*
X246156Y213250D01*
X246463Y213044D01*
X246808Y212992D01*
X247115Y213044D01*
X247421Y213302D01*
X247613Y213612D01*
X247651Y213922D01*
X247575Y214284D01*
X247306Y214542D01*
X247038Y214646D01*
X246693D01*
G01X247038D02*
X247268Y214800D01*
X247460Y215059D01*
X247536Y215369D01*
X247460Y215679D01*
X247268Y215937D01*
X246923Y216092D01*
X246578Y216041D01*
X246233Y215834D01*
G01X237795Y244430D02*
X241184D01*
Y233524D01*
X237402D01*
G01D02*
X235981D01*
Y244430D01*
X237795D01*
G01X240070Y231840D02*
Y229619D01*
X240224Y229154D01*
X240530Y228843D01*
X240914Y228740D01*
X241297Y228843D01*
X241604Y229154D01*
X241757Y229619D01*
Y231840D01*
G01X243362Y229102D02*
X243630Y228843D01*
X243937Y228740D01*
X244244Y228843D01*
X244512Y229154D01*
X244704Y229619D01*
X244780Y230083D01*
Y230652D01*
X244704Y231117D01*
X244512Y231530D01*
X244282Y231737D01*
X244014Y231840D01*
X243707Y231737D01*
X243477Y231530D01*
X243324Y231220D01*
X243247Y230807D01*
X243324Y230445D01*
X243515Y230083D01*
X243745Y229877D01*
X244014Y229825D01*
X244320Y229928D01*
X244550Y230187D01*
X244780Y230652D01*
G01X250890Y218160D02*
Y218204D01*
G01X240447D02*
X250890D01*
G01X240447Y218160D02*
Y218204D01*
G01X250890Y226678D02*
Y226722D01*
G01X240447Y226678D02*
X250890D01*
G01X240447D02*
Y226722D01*
G01X247288Y234582D02*
G03I-394J0D01*
G01X247337Y235921D02*
Y241246D01*
G01X249612Y247464D02*
X248824D01*
Y254899D01*
X249612D01*
G01X242919Y243920D02*
X242131D01*
Y251356D01*
X242919D01*
G01X245270Y243920D02*
X246057D01*
Y251356D01*
X245270D01*
G01X239420Y250925D02*
Y256682D01*
G01Y248803D02*
Y250925D01*
G01X239158Y248803D02*
X239420D01*
G01X245276Y263790D02*
X248376D01*
Y262831D01*
X248220Y262525D01*
X248014Y262333D01*
X247600Y262257D01*
X247187Y262333D01*
X246929Y262563D01*
X246774Y262831D01*
Y263790D01*
G01Y262831D02*
X245276Y262257D01*
G01X245896Y260767D02*
X245534Y260537D01*
X245327Y260230D01*
X245276Y259885D01*
X245327Y259578D01*
X245585Y259272D01*
X245896Y259080D01*
X246206Y259042D01*
X246567Y259118D01*
X246826Y259387D01*
X246929Y259655D01*
Y260000D01*
G01Y259655D02*
X247084Y259425D01*
X247342Y259233D01*
X247652Y259157D01*
X247962Y259233D01*
X248220Y259425D01*
X248376Y259770D01*
X248324Y260115D01*
X248117Y260460D01*
G01X245276Y256900D02*
X245947Y256823D01*
X246515Y256708D01*
X247032Y256555D01*
X247600Y256363D01*
X248376Y256057D01*
Y257590D01*
G01X240945Y263790D02*
X244045D01*
Y262831D01*
X243890Y262525D01*
X243683Y262333D01*
X243270Y262257D01*
X242857Y262333D01*
X242598Y262563D01*
X242443Y262831D01*
Y263790D01*
G01Y262831D02*
X240945Y262257D01*
G01X241565Y260767D02*
X241203Y260537D01*
X240996Y260230D01*
X240945Y259885D01*
X240996Y259578D01*
X241255Y259272D01*
X241565Y259080D01*
X241875Y259042D01*
X242237Y259118D01*
X242495Y259387D01*
X242598Y259655D01*
Y260000D01*
G01Y259655D02*
X242753Y259425D01*
X243011Y259233D01*
X243322Y259157D01*
X243631Y259233D01*
X243890Y259425D01*
X244045Y259770D01*
X243993Y260115D01*
X243787Y260460D01*
G01X242237Y257552D02*
X242598Y257283D01*
X242805Y257053D01*
X242908Y256746D01*
X242805Y256478D01*
X242598Y256287D01*
X242288Y256133D01*
X241926Y256095D01*
X241617Y256133D01*
X241306Y256287D01*
X241048Y256517D01*
X240945Y256785D01*
X241048Y257092D01*
X241358Y257360D01*
X241823Y257513D01*
X242340Y257552D01*
X243011Y257475D01*
X243373Y257360D01*
X243735Y257168D01*
X243993Y256900D01*
X244045Y256631D01*
X243942Y256363D01*
X243683Y256172D01*
G01X239158Y258803D02*
X239420D01*
G01Y256682D02*
Y258803D01*
G01X268701Y209612D02*
Y95112D01*
G01X261362D02*
X268701D01*
G01X260322Y229109D02*
X260477Y229339D01*
X260580Y229607D01*
Y229914D01*
X260425Y230259D01*
X260167Y230527D01*
X259857Y230719D01*
X259340Y230872D01*
X258875Y230911D01*
X258410Y230834D01*
X258100Y230719D01*
X257790Y230489D01*
X257583Y230221D01*
X257480Y229952D01*
Y229684D01*
X257583Y229416D01*
X257739Y229186D01*
X257945Y228994D01*
G01X260064Y227581D02*
X260374Y227351D01*
X260529Y227082D01*
X260580Y226776D01*
X260477Y226393D01*
X260219Y226124D01*
X259909Y226047D01*
X259598Y226086D01*
X259340Y226239D01*
X258824Y227006D01*
X258462Y227351D01*
X257945Y227581D01*
X257480Y227657D01*
Y226047D01*
G01Y223752D02*
X260580D01*
X259960Y224212D01*
G01X257480D02*
Y223293D01*
G01X257874Y243643D02*
X261263D01*
Y232737D01*
X257480D01*
G01D02*
X256060D01*
Y243643D01*
X257874D01*
G01X254236Y235921D02*
Y241246D01*
G01X251963Y247464D02*
X252750D01*
Y254899D01*
X251963D01*
G54D11*
G01X95079Y151772D02*
G03I-591J0D01*
G54D12*
G01X100868Y272311D02*
G03X100878I5J-787D01*
G54D13*
G01X123468Y144488D02*
G03I-1420J0D01*
M02*
