G04 ================== begin FILE IDENTIFICATION RECORD ==================*
G04 Layout Name:  E:/ZNCZII/BRD/ZNCZII_V03_202403172153.brd*
G04 Film Name:    L2-ETCH*
G04 File Format:  Gerber RS274X*
G04 File Origin:  Cadence Allegro 17.4-S037*
G04 Origin Date:  Wed Mar 20 21:19:16 2024*
G04 *
G04 Layer:  VIA CLASS/L2*
G04 Layer:  PIN/L2*
G04 Layer:  ETCH/L2*
G04 *
G04 Offset:    (0.0000 0.0000)*
G04 Mirror:    No*
G04 Mode:      Positive*
G04 Rotation:  0*
G04 FullContactRelief:  No*
G04 UndefLineWidth:     0.1000*
G04 ================== end FILE IDENTIFICATION RECORD ====================*
%FSLAX25Y25*MOIN*%
%IR0*IPPOS*OFA0.00000B0.00000*MIA0B0*SFA1.00000B1.00000*%
%ADD10C,.018*%
%ADD11C,.019*%
%ADD17C,.07874*%
%ADD13C,.059055*%
%ADD15C,.098425*%
%ADD12C,.070866*%
%ADD14R,.059055X.059055*%
%ADD16O,.04724X.059059*%
%ADD18C,.007874*%
%ADD20C,.02365*%
%ADD22C,.044016*%
%ADD19C,.173252*%
%ADD23C,.085071*%
%ADD21C,.096882*%
G75*
%LPD*%
G75*
G36*
G01X130431Y283015D02*
X202479D01*
G02X268935Y216559I0J-66456D01*
G01Y188976D01*
X209449D01*
G03X207480Y187008I0J-1969D01*
G01Y152362D01*
G02X205512Y150394I-1969J0D01*
G01X166535D01*
G03X164567Y148425I0J-1969D01*
G01Y132283D01*
G02X162598Y130315I-1969J0D01*
G01X118504D01*
G03X116535Y128346I0J-1969D01*
G01Y91732D01*
G02X114567Y89764I-1969J0D01*
G01X63976D01*
Y216559D01*
G02X130431Y283015I66456J0D01*
G37*
%LPC*%
G75*
G36*
G01X150628Y272244D02*
Y278150D01*
G02X151929Y279450I1301J0D01*
G01X157835D01*
G02X159135Y278150I0J-1301D01*
G01Y272244D01*
G02X157835Y270943I-1301J0D01*
G01X151929D01*
G02X150628Y272244I0J1301D01*
G37*
G36*
G01X164264Y169155D02*
G03X164870I303J262D01*
G02X168201I1666J-1438D01*
G03X168807I303J262D01*
G02X170472Y169917I1666J-1438D01*
G02X172673Y167717I0J-2201D01*
G02X172189Y166339I-2201J0D01*
G02X172673Y164961I-1717J-1378D01*
G02X170472Y162760I-2201J0D01*
G02X168807Y163522I0J2201D01*
G03X168201I-303J-262D01*
G02X164870I-1666J1438D01*
G03X164264I-303J-262D01*
G02X162598Y162760I-1666J1438D01*
G02X160398Y164961I0J2201D01*
G02X160882Y166339I2201J0D01*
G02X160398Y167717I1717J1378D01*
G02X162598Y169917I2201J0D01*
G02X164264Y169155I0J-2201D01*
G37*
G36*
G01X117191Y180007D02*
G03X117454I131J151D01*
G02X118898Y180547I1444J-1661D01*
G02X121098Y178346I0J-2201D01*
G02X121094Y178206I-2201J-2D01*
G03X121457Y177782I399J-26D01*
G02X123460Y175626I-197J-2192D01*
G03X123657Y175429I200J3D01*
G02X125822Y173228I-35J-2200D01*
G02X123622Y171028I-2201J0D01*
G02X121421Y173193I0J2201D01*
G03X121224Y173390I-200J-3D01*
G02X119059Y175591I35J2200D01*
G02X119063Y175731I2201J2D01*
G03X118700Y176155I-399J26D01*
G02X117454Y176685I197J2192D01*
G03X117191I-131J-151D01*
G02X115748Y176146I-1444J1661D01*
G02Y180547I0J2201D01*
G02X117191Y180007I0J-2201D01*
G37*
G36*
G01X145979Y209493D02*
G02X146689Y207874I-1490J-1619D01*
G02X142287I-2201J0D01*
G02X142604Y209011I2200J0D01*
G02X141894Y210630I1490J1619D01*
G02X146295I2201J0D01*
G02X145979Y209493I-2200J0D01*
G37*
G36*
G01X70677Y225000D02*
G02X71148Y223622I-1779J-1378D01*
G02X66647I-2251J0D01*
G02X67118Y225000I2251J0D01*
G02X66647Y226378I1779J1378D01*
G02X71148I2251J0D01*
G02X70677Y225000I-2251J0D01*
G37*
G36*
G01X110904Y219933D02*
Y235997D01*
G02X110398Y237402I1694J1404D01*
G02X114799I2201J0D01*
G02X114293Y235997I-2201J0D01*
G01Y219026D01*
G02X113796Y217828I-1694J0D01*
G01X113009Y217041D01*
G02X111811Y216544I-1198J1197D01*
G01X108615D01*
G03X108259Y215963I0J-400D01*
G02X108500Y214961I-1959J-1002D01*
G02X107283Y212992I-2201J0D01*
G02X107319Y212598I-2165J-393D01*
G02X102917I-2201J0D01*
G02X104134Y214567I2201J0D01*
G02X104098Y214961I2165J393D01*
G02X104893Y216654I2201J0D01*
G03X104926Y216927I-128J154D01*
G02X104492Y218239I1767J1312D01*
G02X106693Y220440I2201J0D01*
G02X108097Y219933I0J-2201D01*
G01X110904D01*
G37*
G36*
G01X98556Y238103D02*
G03X98294I-131J-151D01*
G02X96850Y237563I-1444J1661D01*
G02Y241965I0J2201D01*
G02X98294Y241425I0J-2201D01*
G03X98556I131J151D01*
G02X100000Y241965I1444J-1661D01*
G02Y237563I0J-2201D01*
G02X98556Y238103I0J2201D01*
G37*
G36*
G01X75865Y217049D02*
Y241509D01*
G02X75358Y242913I1694J1404D01*
G02X79760I2201J0D01*
G02X79254Y241509I-2201J0D01*
G01Y216142D01*
G02X78757Y214944I-1694J0D01*
G01X77970Y214156D01*
G02X76772Y213660I-1198J1198D01*
G01X73845D01*
G02X72441Y213154I-1404J1694D01*
G02Y217555I0J2201D01*
G02X73845Y217049I0J-2201D01*
G01X75865D01*
G37*
G36*
G01X201772Y250535D02*
G02X203150Y251020I1378J-1717D01*
G02Y246618I0J-2201D01*
G02X201772Y247103I0J2201D01*
G02X200394Y246618I-1378J1717D01*
G02Y251020I0J2201D01*
G02X201772Y250535I0J-2201D01*
G37*
G36*
G01X80195Y199790D02*
Y251969D01*
G02X83465Y255238I3269J0D01*
G01X153150D01*
G02X156419Y251969I0J-3269D01*
G01Y249213D01*
G02X153150Y245943I-3269J0D01*
G01X87402D01*
G03X86734Y245276I0J-668D01*
G01Y184799D01*
G03X87235Y184412I400J0D01*
G02X87795Y184484I560J-2128D01*
G02Y180083I0J-2201D01*
G02X87286Y180143I0J2201D01*
G03X86881Y179503I-93J-389D01*
G03X87402Y179254I520J418D01*
G01X91339D01*
G02X94608Y175984I0J-3269D01*
G01Y165748D01*
G03X95276Y165080I668J0D01*
G01X149606D01*
G02X152876Y161811I0J-3269D01*
G01Y160236D01*
G02X149606Y156967I-3269J0D01*
G01X79921D01*
G02X76652Y160236I0J3269D01*
G01Y161024D01*
G02X79921Y164293I3269J0D01*
G01X87008D01*
G03X87676Y164961I0J668D01*
G01Y172441D01*
G03X87008Y173109I-668J0D01*
G01X83465D01*
G02X81650Y173659I0J3269D01*
G03X81371Y173602I-111J-166D01*
G02X79528Y172602I-1844J1201D01*
G02Y177004I0J2201D01*
G02X79754Y176992I-1J-2201D01*
G03X80195Y177390I41J398D01*
G01Y194698D01*
G03X79713Y195090I-400J0D01*
G02X79263Y195043I-452J2154D01*
G02Y199445I0J2201D01*
G02X79713Y199398I-1J-2201D01*
G03X80195Y199790I82J392D01*
G37*
G36*
G01X178519Y263957D02*
G03X178322Y264138I-199J-20D01*
G02X176146Y266339I25J2201D01*
G02X178346Y268539I2201J0D01*
G02X180537Y266554I0J-2201D01*
G03X180733Y266374I199J20D01*
G02X182900Y264370I-25J-2201D01*
G03X183324Y264007I398J36D01*
G02X183465Y264012I138J-2197D01*
G02Y259610I0J-2201D01*
G02X181273Y261614I0J2201D01*
G03X180849Y261977I-398J-36D01*
G02X180709Y261972I-138J2197D01*
G02X178519Y263957I0J2201D01*
G37*
G36*
G01X202974Y266564D02*
G02X203150Y266571I176J-2194D01*
G02Y262170I0J-2201D01*
G02X200960Y264149I0J2201D01*
G02X200785Y264142I-176J2194D01*
G02Y268544I0J2201D01*
G02X202974Y266564I0J-2201D01*
G37*
G36*
G01X210998Y269042D02*
G02X212063Y270106I1994J-932D01*
G02X213780Y270592I1716J-2783D01*
G01X214173D01*
G02X217443Y267323I0J-3269D01*
G01Y266929D01*
G03X218110Y266261I668J0D01*
G01X240551D01*
G02X243820Y262992I0J-3269D01*
G01Y219685D01*
G03X244488Y219017I668J0D01*
G01X261024D01*
G02X264293Y215748I0J-3269D01*
G01Y196850D01*
G02X261024Y193581I-3269J0D01*
G01X256299D01*
G02X253030Y196850I0J3269D01*
G01Y207072D01*
G03X252468Y207437I-400J0D01*
G02X251575Y207248I-893J2011D01*
G02X249374Y209449I0J2201D01*
G02X249747Y210675I2201J0D01*
G03X249415Y211298I-332J223D01*
G01X238583D01*
G02X235313Y214567I0J3269D01*
G01Y258268D01*
G03X234646Y258935I-668J0D01*
G01X213780D01*
G02X210510Y262205I0J3269D01*
G01Y264414D01*
G03X210009Y264801I-400J0D01*
G02X209449Y264728I-560J2128D01*
G02Y269130I0J2201D01*
G02X210464Y268881I0J-2201D01*
G03X210998Y269042I185J355D01*
G37*
G36*
G01X103719Y230563D02*
G02X102130Y232677I612J2114D01*
G02X106531I2201J0D01*
G02X106517Y232429I-2201J1D01*
G02X108106Y230315I-612J-2114D01*
G02X107567Y228871I-2201J0D01*
G03Y228609I151J-131D01*
G02X108106Y227165I-1661J-1444D01*
G02X106796Y225153I-2201J0D01*
G02X106925Y224409I-2072J-743D01*
G02X104724Y222209I-2201J0D01*
G02X104069Y222309I0J2201D01*
G03X103584Y221764I-119J-382D01*
G02X103776Y220866I-2010J-898D01*
G02X101726Y218670I-2201J0D01*
G03X101363Y218186I27J-399D01*
G02X101413Y217717I-2150J-470D01*
G02X99213Y215516I-2201J0D01*
G02X97808Y216022I0J2201D01*
G01X94214D01*
Y185117D01*
X99291Y180041D01*
X101745D01*
G02X103150Y180547I1404J-1694D01*
G02Y176146I0J-2201D01*
G02X101745Y176652I0J2201D01*
G01X98589D01*
G02X97391Y177148I0J1694D01*
G01X91322Y183217D01*
G02X90825Y184415I1197J1198D01*
G01Y216929D01*
G02X91322Y218127I1694J0D01*
G01X92109Y218915D01*
G02X93307Y219411I1198J-1198D01*
G01X97808D01*
G02X99061Y219912I1404J-1694D01*
G03X99425Y220396I-27J399D01*
G02X99374Y220866I2150J470D01*
G02X101575Y223067I2201J0D01*
G02X102231Y222967I0J-2201D01*
G03X102715Y223512I119J382D01*
G02X102524Y224409I2010J898D01*
G02X103834Y226422I2201J0D01*
G02X103705Y227165I2072J743D01*
G02X104244Y228609I2201J0D01*
G03Y228871I-151J131D01*
G02X103705Y230315I1661J1444D01*
G02X103719Y230563I2201J-1D01*
G37*
G36*
G01X218035Y246099D02*
G03X218580I272J293D01*
G02X220079Y246689I1499J-1611D01*
G02X221483Y246183I0J-2201D01*
G01X229925D01*
G02X231123Y245686I0J-1694D01*
G01X232300Y244509D01*
G02X232797Y243311I-1197J-1198D01*
G01Y232900D01*
G02X233303Y231496I-1694J-1404D01*
G02X228902I-2201J0D01*
G02X229408Y232900I2201J0D01*
G01Y242609D01*
X229223Y242794D01*
X221773D01*
Y235039D01*
G02X221277Y233841I-1694J0D01*
G01X220489Y233054D01*
G02X219291Y232557I-1198J1197D01*
G01X200153D01*
G03X199766Y232056I0J-400D01*
G02X199839Y231496I-2128J-560D01*
G02X197638Y229295I-2201J0D01*
G02X197244Y229331I0J2201D01*
G02X196488Y228478I-1968J985D01*
G02X196689Y227559I-2000J-919D01*
G02X194488Y225358I-2201J0D01*
G02X193084Y225865I0J2201D01*
G01X180041D01*
Y225216D01*
G03X180567Y224836I400J0D01*
G02X181102Y224923I535J-1608D01*
G01X228911D01*
G02X230315Y225429I1404J-1694D01*
G02X232505Y223450I0J-2201D01*
G02X234484Y221260I-221J-2190D01*
G02X232283Y219059I-2201J0D01*
G02X230879Y219565I0J2201D01*
G01X202206D01*
G03X201806Y219154I0J-400D01*
G02X201807Y219094I-2200J-59D01*
G02X201806Y219037I-2201J1D01*
G03X202206Y218626I400J-11D01*
G01X202531D01*
X202585Y218669D01*
G02X203937Y219133I1352J-1737D01*
G02X206138Y216932I0J-2201D01*
G02X205488Y215370I-2200J0D01*
G03X205770Y214687I282J-284D01*
G01X213556D01*
G02X214961Y215193I1404J-1694D01*
G02X217161Y212992I0J-2201D01*
G02X217147Y212744I-2201J1D01*
G02X218736Y210630I-612J-2114D01*
G02X218651Y210023I-2201J0D01*
G02X219524Y208268I-1328J-1755D01*
G02X219509Y208020I-2201J1D01*
G02X220546Y207363I-612J-2114D01*
G03X220809Y207331I150J133D01*
G02X222048Y207713I1239J-1819D01*
G02X222607Y207640I-1J-2201D01*
G03X223109Y208027I102J387D01*
G01Y214961D01*
G02X223605Y216159I1694J0D01*
G01X224393Y216946D01*
G02X225591Y217443I1198J-1197D01*
G01X229304D01*
G02X230709Y217949I1404J-1694D01*
G02Y213547I0J-2201D01*
G02X229304Y214054I0J2201D01*
G01X226498D01*
Y204517D01*
G03X227034Y204141I400J0D01*
G02X228821Y204455I1787J-4924D01*
G02X223583Y199217I0J-5238D01*
G02X223615Y199794I5238J0D01*
G03X222994Y200169I-398J44D01*
G02X222047Y199880I-947J1406D01*
G01X204949D01*
G03X204551Y199439I0J-400D01*
G02X204563Y199213I-2189J-228D01*
G02X204078Y197835I-2201J0D01*
G02X204563Y196457I-1717J-1378D01*
G02X204057Y195052I-2201J0D01*
G01Y189200D01*
G02X204563Y187795I-1694J-1404D01*
G02X200161I-2201J0D01*
G02X200668Y189200I2201J0D01*
G01Y195052D01*
G02X200161Y196457I1694J1404D01*
G02X200646Y197835I2201J0D01*
G02X200161Y199213I1717J1378D01*
G02X200173Y199439I2201J-1D01*
G03X199775Y199880I-398J41D01*
G01X197757D01*
Y173228D01*
G02X197261Y172030I-1694J0D01*
G01X196474Y171243D01*
G02X195276Y170746I-1198J1197D01*
G01X139200D01*
G02X137795Y170240I-1404J1694D01*
G02X136137Y170994I0J2201D01*
G03X135491Y170933I-301J-263D01*
G02X133593Y169846I-1898J1114D01*
G02Y174248I0J2201D01*
G02X135251Y173494I0J-2201D01*
G03X135897Y173555I301J263D01*
G02X137795Y174642I1898J-1114D01*
G02X138265Y174591I0J-2201D01*
G03X138749Y174954I85J391D01*
G02X140945Y177004I2196J-151D01*
G02X141085Y177000I2J-2201D01*
G03X141509Y177363I26J399D01*
G02X143701Y179366I2192J-197D01*
G02X145053Y178902I0J-2201D01*
G01X145107Y178860D01*
X145838D01*
G03X146236Y179301I0J400D01*
G02X146224Y179528I2189J228D01*
G02X148153Y181711I2201J0D01*
G01X148221Y181720D01*
X148376Y181875D01*
G03X148093Y182557I-283J283D01*
G01X99213D01*
G02X98015Y183054I0J1694D01*
G01X96440Y184629D01*
G02X95943Y185827I1197J1198D01*
G01Y198989D01*
G02X95437Y200394I1694J1404D01*
G02X97638Y202594I2201J0D01*
G02X97886Y202580I-1J-2201D01*
G02X100000Y204169I2114J-612D01*
G02X100248Y204155I-1J-2201D01*
G02X102362Y205744I2114J-612D01*
G02X102610Y205730I-1J-2201D01*
G02X104724Y207319I2114J-612D01*
G02X106925Y205118I0J-2201D01*
G02X106419Y203714I-2201J0D01*
G01Y191852D01*
X114807D01*
G03X115194Y192354I0J400D01*
G02X115127Y192762I2128J560D01*
G03X114643Y193126I-399J-27D01*
G02X114173Y193075I-470J2150D01*
G02Y197476I0J2201D01*
G02X115577Y196970I0J-2201D01*
G01X155991D01*
X156180Y197159D01*
Y243307D01*
G02X156676Y244505I1694J0D01*
G01X157857Y245686D01*
G02X159055Y246183I1198J-1197D01*
G01X215131D01*
G02X216535Y246689I1404J-1694D01*
G02X218035Y246099I0J-2200D01*
G37*
G54D20*
X193307Y250590D03*
Y280118D03*
G54D22*
X88583Y137402D03*
X108661Y178346D03*
X126378Y179134D03*
X98819Y209055D03*
X145276Y222835D03*
X108268Y239764D03*
X122047Y239370D03*
X127559Y239764D03*
X143701Y239763D03*
X134646Y238976D03*
X151969Y242913D03*
X226376Y240157D03*
X223583Y253543D03*
G54D19*
X166455Y259866D03*
G54D23*
X136732Y138583D03*
X146732D03*
X156732D03*
X144882Y275197D03*
G54D21*
X102463Y100787D03*
%LPD*%
G75*
G36*
G01X83465Y253937D02*
X153150D01*
G02X155118Y251969I0J-1969D01*
G01Y249213D01*
G02X153150Y247244I-1969J0D01*
G01X87402D01*
G03X85433Y245276I0J-1969D01*
G01Y179921D01*
G03X87402Y177953I1969J0D01*
G01X91339D01*
G02X93307Y175984I0J-1969D01*
G01Y165748D01*
G03X95276Y163780I1969J0D01*
G01X149606D01*
G02X151575Y161811I0J-1969D01*
G01Y160236D01*
G02X149606Y158268I-1969J0D01*
G01X79921D01*
G02X77953Y160236I0J1969D01*
G01Y161024D01*
G02X79921Y162992I1969J0D01*
G01X87008D01*
G03X88976Y164961I0J1969D01*
G01Y172441D01*
G03X87008Y174409I-1969J0D01*
G01X83465D01*
G02X81496Y176378I0J1969D01*
G01Y251969D01*
G02X83465Y253937I1969J0D01*
G37*
G36*
G01X168624Y235215D02*
X172581D01*
G02X172953Y234668I0J-400D01*
G03X172799Y233858I2046J-810D01*
G03X173808Y232008I2201J0D01*
G02X173874Y231389I-216J-336D01*
G01X173211Y230726D01*
G03X172715Y229528I1197J-1198D01*
G01Y203458D01*
X170558Y201301D01*
X168739D01*
G02X168393Y201902I0J400D01*
G03X168624Y202756I-1464J854D01*
G01Y211264D01*
G02X169125Y211651I400J0D01*
G03X169685Y211579I560J2128D01*
G03Y215980I0J2201D01*
G03X169125Y215908I0J-2201D01*
G02X168624Y216295I-102J387D01*
G01Y235215D01*
G37*
G36*
G01X214173Y269291D02*
G02X216142Y267323I0J-1969D01*
G01Y266929D01*
G03X218110Y264961I1969J0D01*
G01X240551D01*
G02X242520Y262992I0J-1969D01*
G01Y219685D01*
G03X244488Y217717I1969J0D01*
G01X261024D01*
G02X262992Y215748I0J-1969D01*
G01Y196850D01*
G02X261024Y194882I-1969J0D01*
G01X256299D01*
G02X254331Y196850I0J1969D01*
G01Y210630D01*
G03X252362Y212598I-1969J0D01*
G01X238583D01*
G02X236614Y214567I0J1969D01*
G01Y258268D01*
G03X234646Y260236I-1969J0D01*
G01X213780D01*
G02X211811Y262205I0J1969D01*
G01Y267323D01*
G02X213780Y269291I1969J0D01*
G01X214173D01*
G37*
G54D10*
X67126Y102362D03*
Y92520D03*
Y122835D03*
Y113386D03*
X65157Y150000D03*
Y170866D03*
X72441Y215354D03*
X65354Y218701D03*
X88583Y137402D03*
X79528Y159714D03*
Y174803D03*
X83858Y192519D03*
X83336Y187924D03*
X83465Y185039D03*
X87795Y182283D03*
X79263Y197244D03*
X77559Y242913D03*
X88976Y266535D03*
X84252Y261811D03*
X80315Y257480D03*
X76772Y252756D03*
X92126Y159449D03*
Y175197D03*
X108661Y178346D03*
X103150D03*
X104724Y205118D03*
X97638Y200394D03*
X100000Y201969D03*
X102362Y203543D03*
X98819Y209055D03*
X106299Y214961D03*
X105118Y212598D03*
X96457Y232677D03*
X106693Y218239D03*
X104331Y232677D03*
X104724Y224409D03*
X105906Y227165D03*
Y230315D03*
X101575Y220866D03*
X99213Y217717D03*
X100000Y239764D03*
X96850D03*
X108268D03*
X115748Y178346D03*
X121260Y175591D03*
X126378Y179134D03*
X123622Y173228D03*
X118898Y178346D03*
X114173Y195276D03*
X120473Y192520D03*
X117323Y192913D03*
X116142Y220866D03*
X125197Y250394D03*
X115748D03*
X112598Y237402D03*
X122047Y239370D03*
X139764Y162598D03*
X133593Y172047D03*
X140945Y174803D03*
X143701Y177165D03*
X137795Y172441D03*
X139370Y192520D03*
X144094Y210630D03*
X144488Y207874D03*
X137795Y237402D03*
X127559Y239764D03*
X143701Y239763D03*
X134646Y238976D03*
X139764Y265354D03*
X150000Y162598D03*
X148425Y179528D03*
X151969D03*
X162598Y167717D03*
Y164961D03*
X162205Y199606D03*
Y206693D03*
X145276Y222835D03*
X150787Y250394D03*
X153937D03*
X151969Y242913D03*
X147903Y261940D03*
X166535Y167717D03*
X170472D03*
X166535Y164961D03*
X170472D03*
X175000Y197244D03*
X165354D03*
X163780Y194882D03*
X164567Y204331D03*
X163780Y201969D03*
X169685Y213780D03*
Y224016D03*
X170079Y232283D03*
X175000Y233858D03*
X178346Y266339D03*
X187402Y166929D03*
X197638Y231496D03*
X195276Y230315D03*
X194488Y227559D03*
X181496Y234252D03*
X195571Y236909D03*
X183465Y261811D03*
X180709Y264173D03*
X204147Y176981D03*
X202362Y187795D03*
Y196457D03*
X205777Y198819D03*
X202362Y199213D03*
X216535Y210630D03*
X214961Y212992D03*
X203937Y216932D03*
X199606Y219094D03*
X200394Y248819D03*
X203150D03*
Y236614D03*
X208268Y242520D03*
X198819Y237402D03*
X216535Y244488D03*
X212992Y262598D03*
Y265354D03*
Y268110D03*
X209449Y266929D03*
X203150Y264370D03*
X200785Y266343D03*
X226378Y147822D03*
X219685Y192520D03*
X220472Y196063D03*
X222048Y205512D03*
X217323Y208268D03*
X218898Y205906D03*
X230709Y215748D03*
X230315Y223228D03*
X232283Y221260D03*
X231102Y231496D03*
X226376Y240157D03*
X220079Y244488D03*
X223583Y253543D03*
X243178Y167058D03*
X234646Y190552D03*
X251575Y209449D03*
X247244Y231890D03*
X258661Y246366D03*
G54D11*
X68898Y226378D03*
Y223622D03*
X124803Y203937D03*
X128740D03*
X127165Y220472D03*
X130709Y218898D03*
X212598Y226772D03*
X216535D03*
X220472D03*
G54D12*
X102463Y100787D03*
X112305D03*
X177266D03*
X196951D03*
G54D13*
X126732Y138583D03*
X136732D03*
X146732D03*
X144882Y275197D03*
X134882D03*
X156732Y138583D03*
G54D14*
X154882Y275197D03*
G54D15*
X175591Y86614D03*
X198819D03*
X228740D03*
G54D16*
X184842Y255906D03*
X184841Y274804D03*
X201772Y255906D03*
Y274804D03*
G54D17*
X228821Y100003D03*
Y119847D03*
Y199217D03*
X258583Y100003D03*
Y119847D03*
Y199217D03*
G54D18*
G01X72441Y215354D02*
X76772D01*
X77559Y216142D01*
Y242913D01*
G01X103150Y178346D02*
X98589D01*
X92520Y184415D01*
Y216929D01*
X93307Y217717D01*
X99213D01*
G01X230315Y223228D02*
X181102D01*
X180315Y222441D01*
Y190945D01*
X179528Y190157D01*
X105512D01*
X104724Y190945D01*
Y205118D01*
G01X214961Y212992D02*
X187008D01*
X186220Y212205D01*
Y185039D01*
X185433Y184252D01*
X99213D01*
X97638Y185827D01*
Y200394D01*
G01X203937Y216932D02*
X185039D01*
X184252Y216144D01*
Y187008D01*
X183465Y186220D01*
X100787D01*
X100000Y187008D01*
Y201969D01*
G01X232283Y221260D02*
X183071D01*
X182283Y220472D01*
Y188976D01*
X181496Y188189D01*
X103150D01*
X102362Y188976D01*
Y203543D01*
G01X112598Y237402D02*
Y219026D01*
X111811Y218239D01*
X106693D01*
G01X114173Y195276D02*
X156693D01*
X157874Y196457D01*
Y243307D01*
X159055Y244488D01*
X216535D01*
G01X222048Y205512D02*
X220079Y203543D01*
X194882D01*
X194094Y202756D01*
Y175591D01*
X193307Y174803D01*
X140945D01*
G01X218898Y205906D02*
X192913D01*
X192126Y205118D01*
Y177953D01*
X191339Y177165D01*
X143701D01*
G01X230709Y215748D02*
X225591D01*
X224803Y214961D01*
Y204331D01*
X222047Y201575D01*
X196850D01*
X196063Y200787D01*
Y173228D01*
X195276Y172441D01*
X137795D01*
G01X208268Y242520D02*
X161417D01*
X159843Y240945D01*
Y193307D01*
X159055Y192520D01*
X139370D01*
G01X148425Y179528D02*
X150787Y181890D01*
X187402D01*
X188189Y182677D01*
Y209843D01*
X188976Y210630D01*
X216535D01*
G01X151969Y179528D02*
X189370D01*
X190157Y180315D01*
Y207480D01*
X190945Y208268D01*
X217323D01*
G01X162205Y206693D02*
Y240157D01*
X162992Y240945D01*
X198819D01*
X203150Y236614D01*
G01X195276Y230315D02*
X178346D01*
X176378Y228346D01*
Y201969D01*
X171654Y197244D01*
X165354D01*
G01X194488Y227559D02*
X179134D01*
X178346Y226772D01*
Y195669D01*
X177559Y194882D01*
X163780D01*
G01X197638Y231496D02*
X196885Y232249D01*
X177131D01*
X174409Y229528D01*
Y202756D01*
X171260Y199606D01*
X162205D01*
G01X164567Y204331D02*
Y238583D01*
X165354Y239370D01*
X196850D01*
X198819Y237402D01*
G01X195571Y236909D02*
X167717D01*
X166929Y236122D01*
Y202756D01*
X166142Y201969D01*
X163780D01*
G01X220079Y244488D02*
Y235039D01*
X219291Y234252D01*
X181496D01*
G01X202362Y196457D02*
Y187795D01*
G01X220079Y244488D02*
X229925D01*
X231102Y243311D01*
Y231496D01*
M02*
