G04 ================== begin FILE IDENTIFICATION RECORD ==================*
G04 Layout Name:  E:/ZNCZII/BRD/ZNCZII_V03_202403172153.brd*
G04 Film Name:    L3-ETCH*
G04 File Format:  Gerber RS274X*
G04 File Origin:  Cadence Allegro 17.4-S037*
G04 Origin Date:  Wed Mar 20 21:19:16 2024*
G04 *
G04 Layer:  VIA CLASS/L3*
G04 Layer:  PIN/L3*
G04 Layer:  ETCH/L3*
G04 *
G04 Offset:    (0.0000 0.0000)*
G04 Mirror:    No*
G04 Mode:      Positive*
G04 Rotation:  0*
G04 FullContactRelief:  No*
G04 UndefLineWidth:     0.1000*
G04 ================== end FILE IDENTIFICATION RECORD ====================*
%FSLAX25Y25*MOIN*%
%IR0*IPPOS*OFA0.00000B0.00000*MIA0B0*SFA1.00000B1.00000*%
%ADD10C,.018*%
%ADD11C,.019*%
%ADD17C,.07874*%
%ADD13C,.059055*%
%ADD15C,.098425*%
%ADD12C,.070866*%
%ADD14R,.059055X.059055*%
%ADD16O,.04724X.059059*%
%ADD18C,.007874*%
%ADD21C,.02365*%
%ADD19C,.044016*%
%ADD20C,.173252*%
%ADD23C,.085071*%
%ADD22C,.096882*%
%ADD24C,.104756*%
G75*
%LPD*%
G75*
G36*
G01X130431Y283015D02*
X202479D01*
G02X268935Y216559I0J-66456D01*
G01Y188976D01*
X209449D01*
G03X207480Y187008I0J-1969D01*
G01Y152362D01*
G02X205512Y150394I-1969J0D01*
G01X166535D01*
G03X164567Y148425I0J-1969D01*
G01Y132283D01*
G02X162598Y130315I-1969J0D01*
G01X118504D01*
G03X116535Y128346I0J-1969D01*
G01Y91732D01*
G02X114567Y89764I-1969J0D01*
G01X63976D01*
Y216559D01*
G02X130431Y283015I66456J0D01*
G37*
%LPC*%
G75*
G36*
G01X115127Y192762D02*
G03X114643Y193126I-399J-27D01*
G02X114173Y193075I-470J2150D01*
G02Y197476I0J2201D01*
G02X116369Y195427I0J-2201D01*
G03X116853Y195063I399J27D01*
G02X117323Y195114I470J-2150D01*
G02X118971Y194371I0J-2200D01*
G03X119234Y194339I150J133D01*
G02X120473Y194720I1239J-1819D01*
G02Y190319I0J-2201D01*
G02X118824Y191062I0J2200D01*
G03X118562Y191094I-150J-133D01*
G02X117323Y190713I-1239J1819D01*
G02X115127Y192762I0J2201D01*
G37*
G36*
G01X141085Y177000D02*
G03X141509Y177363I26J399D01*
G02X143701Y179366I2192J-197D01*
G02Y174965I0J-2201D01*
G02X143561Y174969I-2J2201D01*
G03X143137Y174606I-26J-399D01*
G02X140945Y172602I-2192J197D01*
G02X140475Y172653I0J2201D01*
G03X139991Y172290I-85J-391D01*
G02X137795Y170240I-2196J151D01*
G02X136137Y170994I0J2201D01*
G03X135491Y170933I-301J-263D01*
G02X133593Y169846I-1898J1114D01*
G02Y174248I0J2201D01*
G02X135251Y173494I0J-2201D01*
G03X135897Y173555I301J263D01*
G02X137795Y174642I1898J-1114D01*
G02X138265Y174591I0J-2201D01*
G03X138749Y174954I85J391D01*
G02X140945Y177004I2196J-151D01*
G02X141085Y177000I2J-2201D01*
G37*
G36*
G01X115748Y180547D02*
G02X117191Y180007I0J-2201D01*
G03X117454I131J151D01*
G02X118898Y180547I1444J-1661D01*
G02X121098Y178346I0J-2201D01*
G01Y178344D01*
G02X121094Y178206I-2201J0D01*
G03X121457Y177782I399J-26D01*
G02X123460Y175626I-197J-2192D01*
G03X123657Y175429I200J3D01*
G02X125822Y173228I-35J-2200D01*
G02X123622Y171028I-2201J0D01*
G02X121421Y173193I0J2201D01*
G03X121224Y173390I-200J-3D01*
G02X119059Y175591I35J2200D01*
G01Y175593D01*
G02X119063Y175731I2201J0D01*
G03X118700Y176155I-399J26D01*
G02X117454Y176685I197J2192D01*
G03X117191I-131J-151D01*
G02X115748Y176146I-1444J1661D01*
G02Y180547I0J2201D01*
G37*
G36*
G01X82556Y189982D02*
G03X82637Y190689I-142J374D01*
G02X81657Y192519I1221J1830D01*
G02X86059I2201J0D01*
G02X84638Y190461I-2200J0D01*
G03X84557Y189754I142J-374D01*
G02X85537Y187924I-1221J-1830D01*
G02X85059Y186556I-2201J0D01*
G02X85665Y185039I-1595J-1517D01*
G02X81264I-2201J0D01*
G02X81741Y186407I2201J0D01*
G02X81135Y187924I1595J1517D01*
G02X82556Y189982I2200J0D01*
G37*
G36*
G01X138976Y219172D02*
G03X138309Y218504I0J-668D01*
G01Y195035D01*
G03X138810Y194648I400J0D01*
G02X139370Y194720I560J-2128D01*
G02X141570Y192520I0J-2201D01*
G02X141498Y191960I-2201J0D01*
G03X141885Y191458I387J-102D01*
G01X159449D01*
G02X162718Y188189I0J-3269D01*
G01Y171260D01*
G03X163386Y170592I668J0D01*
G01X170079D01*
G02X173348Y167323I0J-3269D01*
G01Y165748D01*
G02X170079Y162479I-3269J0D01*
G01X158268D01*
G02X154998Y165748I0J3269D01*
G01Y183071D01*
G03X154331Y183739I-668J0D01*
G01X133071D01*
G02X129802Y187008I0J3269D01*
G01Y209055D01*
G03X129134Y209723I-668J0D01*
G01X105512D01*
G02X102243Y212992I0J3269D01*
G01Y214173D01*
G02X104483Y217276I3269J0D01*
G03X104609Y217531I-63J190D01*
G02X104492Y218239I2083J709D01*
G02X108894I2201J0D01*
G01Y218237D01*
G02X108868Y217904I-2201J1D01*
G03X109263Y217443I395J-61D01*
G01X131496D01*
G03X132164Y218110I0J668D01*
G01Y238976D01*
G02X135433Y242246I3269J0D01*
G01X144488D01*
G02X147757Y238976I0J-3269D01*
G01Y222441D01*
G02X144488Y219172I-3269J0D01*
G01X138976D01*
G37*
G36*
G01X97886Y202580D02*
G02X100248Y204155I2114J-612D01*
G02X102610Y205730I2114J-612D01*
G02X104724Y207319I2114J-612D01*
G02Y202917I0J-2201D01*
G02X104476Y202931I1J2201D01*
G02X102114Y201357I-2114J612D01*
G02X99752Y199782I-2114J612D01*
G02X97638Y198193I-2114J612D01*
G02Y202594I0J2201D01*
G02X97886Y202580I-1J-2201D01*
G37*
G36*
G01X102201Y239764D02*
G02X100907Y237759I-2201J0D01*
G01Y236848D01*
G03X101509Y236503I400J0D01*
G02X102362Y236734I854J-1464D01*
G01X110012D01*
G03X110409Y237175I0J400D01*
G02X110398Y237402I2189J228D01*
G02X114799I2201J0D01*
G02X114787Y237175I-2201J1D01*
G03X115185Y236734I398J-41D01*
G01X120353D01*
Y237966D01*
G02X119846Y239370I1694J1404D01*
G02X124248I2201J0D01*
G02X123742Y237966I-2201J0D01*
G01Y235827D01*
G02X123245Y234629I-1694J0D01*
G01X122458Y233841D01*
G02X121260Y233345I-1198J1197D01*
G01X106917D01*
G03X106520Y232904I0J-400D01*
G02X106531Y232677I-2189J-228D01*
G02X106517Y232429I-2201J1D01*
G02X108106Y230315I-612J-2114D01*
G02X107567Y228871I-2201J0D01*
G03Y228609I151J-131D01*
G02X108106Y227165I-1661J-1444D01*
G02X106796Y225153I-2201J0D01*
G02X106925Y224411I-2072J-743D01*
G01Y224409D01*
G02X104724Y222209I-2201J0D01*
G02X103574Y222533I1J2201D01*
G01X103526Y222563D01*
X103269D01*
Y222272D01*
X103311Y222218D01*
G02X103776Y220866I-1737J-1352D01*
G02X101726Y218670I-2201J0D01*
G03X101363Y218186I27J-399D01*
G02X101413Y217717I-2150J-470D01*
G02X97012I-2201J0D01*
G02X97518Y219121I2201J0D01*
G01Y236700D01*
X96645Y237573D01*
G02X94650Y239764I205J2191D01*
G02X96850Y241965I2201J0D01*
G02X98294Y241425I0J-2201D01*
G03X98556I131J151D01*
G02X100000Y241965I1444J-1661D01*
G02X102201Y239764I0J-2201D01*
G37*
G36*
G01X182403Y259296D02*
Y246850D01*
G02X181907Y245652I-1694J0D01*
G01X181119Y244865D01*
G02X179921Y244369I-1198J1197D01*
G01X167049D01*
Y225985D01*
G02X166552Y224787I-1694J0D01*
G01X165765Y223999D01*
G02X164567Y223503I-1198J1197D01*
G01X157600D01*
Y208661D01*
G02X157104Y207463I-1694J0D01*
G01X156316Y206676D01*
G02X155118Y206180I-1198J1197D01*
G01X145893D01*
G02X144488Y205673I-1404J1694D01*
G02X142287Y207874I0J2201D01*
G02X142604Y209011I2200J0D01*
G02X141894Y210630I1490J1619D01*
G02X144094Y212831I2201J0D01*
G02X145499Y212324I0J-2201D01*
G01X152243D01*
Y226378D01*
G02X152739Y227576I1694J0D01*
G01X153526Y228363D01*
G02X154724Y228859I1198J-1197D01*
G01X161691D01*
Y247244D01*
G02X162188Y248442I1694J0D01*
G01X162975Y249230D01*
G02X164173Y249726I1198J-1197D01*
G01X176652D01*
Y264934D01*
G02X176146Y266339I1694J1404D01*
G02X178346Y268539I2201J0D01*
G02X180537Y266554I0J-2201D01*
G03X180733Y266374I199J20D01*
G02X182900Y264370I-25J-2201D01*
G03X183324Y264007I398J36D01*
G02X183462Y264012I138J-2197D01*
G01X183465D01*
G02Y259610I0J-2201D01*
G02X182905Y259683I0J2201D01*
G03X182403Y259296I-102J-387D01*
G37*
G36*
G01X150628Y272244D02*
Y278150D01*
G02X151929Y279450I1301J0D01*
G01X157835D01*
G02X159135Y278150I0J-1301D01*
G01Y272244D01*
G02X157835Y270943I-1301J0D01*
G01X151929D01*
G02X150628Y272244I0J1301D01*
G37*
G36*
G01X150469Y177917D02*
G03X149924I-272J-293D01*
G02X148425Y177327I-1499J1611D01*
G02Y181728I0J2201D01*
G02X149924Y181139I0J-2200D01*
G03X150469I272J293D01*
G02X151969Y181728I1499J-1611D01*
G02Y177327I0J-2201D01*
G02X150469Y177917I0J2200D01*
G37*
G36*
G01X162367Y204296D02*
G03X162170Y204493I-200J-3D01*
G02X160004Y206693I35J2200D01*
G02X162205Y208894I2201J0D01*
G02X164405Y206728I0J-2201D01*
G03X164602Y206531I200J3D01*
G02X166768Y204331I-35J-2200D01*
G02X165895Y202576I-2201J0D01*
G02X165980Y201969I-2115J-607D01*
G02X164391Y199854I-2201J0D01*
G02X164406Y199606I-2187J-249D01*
G02X164404Y199531I-2201J-3D01*
G03X164667Y199335I200J-7D01*
G02X165354Y199445I688J-2091D01*
G02X167555Y197244I0J-2201D01*
G02X165966Y195130I-2201J0D01*
G02X165980Y194882I-2187J-249D01*
G02X161579I-2201J0D01*
G02X163168Y196996I2201J0D01*
G02X163154Y197244I2187J249D01*
G02X163155Y197319I2201J3D01*
G03X162893Y197516I-200J7D01*
G02X162205Y197406I-688J2091D01*
G02X160004Y199606I0J2201D01*
G02X161593Y201720I2201J0D01*
G02X161579Y201969I2187J249D01*
G02X162452Y203724I2201J0D01*
G02X162367Y204296I2115J607D01*
G37*
G36*
G01X215207Y208875D02*
G02X214335Y210630I1328J1755D01*
G02X214349Y210878I2201J-1D01*
G02X212760Y212992I612J2114D01*
G02X217161I2201J0D01*
G02X217147Y212744I-2201J1D01*
G02X218736Y210630I-612J-2114D01*
G02X218651Y210023I-2201J0D01*
G02X219524Y208268I-1328J-1755D01*
G02X219509Y208020I-2201J1D01*
G02X220546Y207363I-612J-2114D01*
G03X220809Y207331I150J133D01*
G02X222048Y207713I1239J-1819D01*
G02Y203311I0J-2201D01*
G02X220399Y204054I0J2200D01*
G03X220137Y204087I-150J-133D01*
G02X218898Y203705I-1239J1819D01*
G02X216697Y205906I0J2201D01*
G02X216711Y206154I2201J-1D01*
G02X215122Y208268I612J2114D01*
G02X215207Y208875I2201J0D01*
G37*
G36*
G01X173305Y198648D02*
Y232454D01*
G02X172799Y233858I1694J1404D01*
G02X177200I2201J0D01*
G02X176694Y232454I-2201J0D01*
G01Y198648D01*
G02X177200Y197244I-1694J-1404D01*
G02X172799I-2201J0D01*
G02X173305Y198648I2201J0D01*
G37*
G36*
G01X218580Y242877D02*
G03X218035I-272J-293D01*
G02X216535Y242287I-1499J1611D01*
G02Y246689I0J2201D01*
G02X218035Y246099I0J-2200D01*
G03X218580I272J293D01*
G02X220079Y246689I1499J-1611D01*
G02Y242287I0J-2201D01*
G02X218580Y242877I0J2200D01*
G37*
G36*
G01X152493Y248733D02*
G03X152231I-131J-151D01*
G02X150787Y248193I-1444J1661D01*
G02Y252594I0J2201D01*
G02X152231Y252055I0J-2201D01*
G03X152493I131J151D01*
G02X153937Y252594I1444J-1661D01*
G02Y248193I0J-2201D01*
G02X152493Y248733I0J2201D01*
G37*
G36*
G01X202974Y266564D02*
G02X203150Y266571I176J-2194D01*
G02Y262170I0J-2201D01*
G02X200960Y264149I0J2201D01*
G02X200785Y264142I-176J2194D01*
G02Y268544I0J2201D01*
G02X202974Y266564I0J-2201D01*
G37*
G36*
G01X210897Y264680D02*
G03X210352Y264922I-381J-122D01*
G02X209449Y264728I-904J2007D01*
G02Y269130I0J2201D01*
G02X210464Y268882I0J-2201D01*
G03X211009Y269064I184J355D01*
G02X212992Y270311I1983J-954D01*
G02X215193Y268110I0J-2201D01*
G02X214708Y266732I-2201J0D01*
G02Y263976I-1717J-1378D01*
G02X215193Y262598I-1717J-1378D01*
G02X210791I-2201J0D01*
G02X211276Y263976I2201J0D01*
G02X210897Y264680I1716J1378D01*
G37*
G36*
G01X224681Y238753D02*
G02X224175Y240157I1694J1404D01*
G02X228576I2201J0D01*
G02X228070Y238753I-2201J0D01*
G01Y225061D01*
G03X228754Y224780I400J0D01*
G02X230315Y225429I1561J-1551D01*
G02X232505Y223450I0J-2201D01*
G02X234484Y221260I-221J-2190D01*
G02X232283Y219059I-2201J0D01*
G02X230094Y221039I0J2201D01*
G02X228754Y221677I222J2190D01*
G03X228070Y221395I-284J-282D01*
G01Y219882D01*
G02X227574Y218684I-1694J0D01*
G01X226786Y217896D01*
G02X225588Y217400I-1198J1197D01*
G01X206537D01*
G03X206137Y216989I0J-400D01*
G02X206138Y216932I-2200J-59D01*
G02X201736I-2201J0D01*
G02X201737Y216989I2201J-1D01*
G03X201337Y217400I-400J11D01*
G01X201012D01*
X200958Y217358D01*
G02X199606Y216894I-1352J1737D01*
G02Y221295I0J2201D01*
G02X201011Y220789I0J-2201D01*
G01X224681D01*
Y238753D01*
G37*
G36*
G01X191339Y251301D02*
X192362D01*
G02X194251I945J-710D01*
G01X204082D01*
X205631Y249752D01*
Y247493D01*
X204082Y245943D01*
X194094D01*
G03X193427Y245276I0J-668D01*
G01Y238839D01*
G03X194095Y238542I400J0D01*
G02X195571Y239110I1476J-1633D01*
G02X196819Y238722I0J-2201D01*
G03X197090Y238763I113J165D01*
G02X198819Y239602I1729J-1361D01*
G02X200861Y238222I0J-2201D01*
G03X201527Y238101I371J149D01*
G02X203150Y238815I1622J-1487D01*
G02Y234413I0J-2201D01*
G02X201107Y235794I0J2201D01*
G03X200441Y235915I-371J-149D01*
G02X198819Y235201I-1622J1487D01*
G02X197570Y235589I0J2201D01*
G03X197300Y235548I-113J-165D01*
G02X195571Y234709I-1729J1361D01*
G02X194095Y235277I0J2201D01*
G03X193427Y234980I-268J-297D01*
G01Y232475D01*
G03X194050Y232143I400J0D01*
G02X195276Y232516I1226J-1828D01*
G02X195669Y232480I0J-2201D01*
G02X197638Y233697I1969J-984D01*
G02Y229295I0J-2201D01*
G02X197244Y229331I0J2201D01*
G02X196488Y228478I-1968J985D01*
G02X196689Y227559I-2000J-919D01*
G02X194488Y225358I-2201J0D01*
G02X193928Y225431I0J2201D01*
G03X193427Y225044I-102J-387D01*
G01Y203937D01*
G03X194094Y203269I668J0D01*
G01X201575D01*
G02X204844Y200000I0J-3269D01*
G01Y186863D01*
X203295Y185313D01*
X200642D01*
X199093Y186863D01*
Y197638D01*
G03X198425Y198306I-668J0D01*
G01X191339D01*
G02X188069Y201575I0J3269D01*
G01Y248031D01*
G02X191339Y251301I3269J0D01*
G37*
G36*
G01X66416Y226378D02*
G02X69685Y229647I3269J0D01*
G01X74016D01*
G02X77285Y226378I0J-3269D01*
G01Y199312D01*
G03X77928Y198994I400J0D01*
G02X79263Y199445I1335J-1750D01*
G02Y195043I0J-2201D01*
G02X77928Y195494I0J2201D01*
G03X77285Y195176I-243J-318D01*
G01Y176639D01*
G03X77969Y176356I400J0D01*
G02X79528Y177004I1559J-1553D01*
G02Y172602I0J-2201D01*
G02X77969Y173250I0J2200D01*
G03X77285Y172968I-283J-282D01*
G01Y161549D01*
G03X77969Y161267I400J0D01*
G02X79528Y161915I1559J-1553D01*
G02Y157513I0J-2201D01*
G02X77969Y158161I0J2200D01*
G03X77285Y157878I-283J-282D01*
G01Y156025D01*
X138189D01*
G02X141458Y152756I0J-3269D01*
G01Y137008D01*
G02X138189Y133739I-3269J0D01*
G01X135433D01*
G02X132164Y137008I0J3269D01*
G01Y145276D01*
G03X131496Y145943I-668J0D01*
G01X69685D01*
G02X66416Y149213I0J3269D01*
G01Y226378D01*
G37*
G54D21*
X193307Y280118D03*
G54D19*
X139764Y162598D03*
X98819Y209055D03*
X87795Y182283D03*
X126378Y179134D03*
X92126Y175197D03*
X108661Y178346D03*
X103150D03*
X92126Y159449D03*
X88583Y137402D03*
X150000Y162598D03*
X169685Y213780D03*
X230709Y215748D03*
X251575Y209449D03*
X181496Y234252D03*
X231102Y231496D03*
X77559Y242913D03*
X108268Y239764D03*
X125197Y250394D03*
X115748D03*
X127559Y239764D03*
X151969Y242913D03*
X208268Y242520D03*
X223583Y253543D03*
G54D20*
X166455Y259866D03*
G54D23*
X146732Y138583D03*
X156732D03*
X144882Y275197D03*
G54D22*
X102463Y100787D03*
G54D24*
X228821Y199217D03*
X258583D03*
%LPD*%
G75*
G36*
G01X69685Y228346D02*
X74016D01*
G02X75984Y226378I0J-1969D01*
G01Y154724D01*
X138189D01*
G02X140157Y152756I0J-1969D01*
G01Y137008D01*
G02X138189Y135039I-1969J0D01*
G01X135433D01*
G02X133465Y137008I0J1969D01*
G01Y145276D01*
G03X131496Y147244I-1969J0D01*
G01X69685D01*
G02X67717Y149213I0J1969D01*
G01Y226378D01*
G02X69685Y228346I1969J0D01*
G37*
G36*
G01X135433Y240945D02*
X144488D01*
G02X146457Y238976I0J-1969D01*
G01Y222441D01*
G02X144488Y220472I-1969J0D01*
G01X138976D01*
G03X137008Y218504I0J-1969D01*
G01Y192126D01*
G03X138976Y190157I1969J0D01*
G01X159449D01*
G02X161417Y188189I0J-1969D01*
G01Y171260D01*
G03X163386Y169291I1969J0D01*
G01X170079D01*
G02X172047Y167323I0J-1969D01*
G01Y165748D01*
G02X170079Y163780I-1969J0D01*
G01X158268D01*
G02X156299Y165748I0J1969D01*
G01Y183071D01*
G03X154331Y185039I-1969J0D01*
G01X133071D01*
G02X131102Y187008I0J1969D01*
G01Y209055D01*
G03X129134Y211024I-1969J0D01*
G01X105512D01*
G02X103543Y212992I0J1969D01*
G01Y214173D01*
G02X105512Y216142I1969J0D01*
G01X106025D01*
X106054Y216133D01*
G03X106693Y216038I639J2106D01*
G03X107332Y216133I0J2201D01*
G01X107361Y216142D01*
X131496D01*
G03X133465Y218110I0J1969D01*
G01Y238976D01*
G02X135433Y240945I1969J0D01*
G37*
G36*
G01X203543Y250000D02*
X204331Y249213D01*
Y248031D01*
X203543Y247244D01*
X194094D01*
G03X192126Y245276I0J-1969D01*
G01Y203937D01*
G03X194094Y201969I1969J0D01*
G01X201575D01*
G02X203543Y200000I0J-1969D01*
G01Y187402D01*
X202756Y186614D01*
X201181D01*
X200394Y187402D01*
Y197638D01*
G03X198425Y199606I-1969J0D01*
G01X191339D01*
G02X189370Y201575I0J1969D01*
G01Y248031D01*
G02X191339Y250000I1969J0D01*
G01X192283D01*
G03X194331I1024J590D01*
G01X203543D01*
G37*
%LPC*%
G75*
G54D19*
X72441Y215354D03*
X137795Y237402D03*
%LPD*%
G75*
G54D10*
X67126Y102362D03*
Y92520D03*
Y122835D03*
Y113386D03*
X65157Y150000D03*
Y170866D03*
X72441Y215354D03*
X65354Y218701D03*
X88583Y137402D03*
X79528Y159714D03*
Y174803D03*
X83858Y192519D03*
X83336Y187924D03*
X83465Y185039D03*
X87795Y182283D03*
X79263Y197244D03*
X77559Y242913D03*
X88976Y266535D03*
X84252Y261811D03*
X80315Y257480D03*
X76772Y252756D03*
X92126Y159449D03*
Y175197D03*
X108661Y178346D03*
X103150D03*
X104724Y205118D03*
X97638Y200394D03*
X100000Y201969D03*
X102362Y203543D03*
X98819Y209055D03*
X106299Y214961D03*
X105118Y212598D03*
X96457Y232677D03*
X106693Y218239D03*
X104331Y232677D03*
X104724Y224409D03*
X105906Y227165D03*
Y230315D03*
X101575Y220866D03*
X99213Y217717D03*
X100000Y239764D03*
X96850D03*
X108268D03*
X115748Y178346D03*
X121260Y175591D03*
X126378Y179134D03*
X123622Y173228D03*
X118898Y178346D03*
X114173Y195276D03*
X120473Y192520D03*
X117323Y192913D03*
X116142Y220866D03*
X125197Y250394D03*
X115748D03*
X112598Y237402D03*
X122047Y239370D03*
X139764Y162598D03*
X133593Y172047D03*
X140945Y174803D03*
X143701Y177165D03*
X137795Y172441D03*
X139370Y192520D03*
X144094Y210630D03*
X144488Y207874D03*
X137795Y237402D03*
X127559Y239764D03*
X143701Y239763D03*
X134646Y238976D03*
X139764Y265354D03*
X150000Y162598D03*
X148425Y179528D03*
X151969D03*
X162598Y167717D03*
Y164961D03*
X162205Y199606D03*
Y206693D03*
X145276Y222835D03*
X150787Y250394D03*
X153937D03*
X151969Y242913D03*
X147903Y261940D03*
X166535Y167717D03*
X170472D03*
X166535Y164961D03*
X170472D03*
X175000Y197244D03*
X165354D03*
X163780Y194882D03*
X164567Y204331D03*
X163780Y201969D03*
X169685Y213780D03*
Y224016D03*
X170079Y232283D03*
X175000Y233858D03*
X178346Y266339D03*
X187402Y166929D03*
X197638Y231496D03*
X195276Y230315D03*
X194488Y227559D03*
X181496Y234252D03*
X195571Y236909D03*
X183465Y261811D03*
X180709Y264173D03*
X204147Y176981D03*
X202362Y187795D03*
Y196457D03*
X205777Y198819D03*
X202362Y199213D03*
X216535Y210630D03*
X214961Y212992D03*
X203937Y216932D03*
X199606Y219094D03*
X200394Y248819D03*
X203150D03*
Y236614D03*
X208268Y242520D03*
X198819Y237402D03*
X216535Y244488D03*
X212992Y262598D03*
Y265354D03*
Y268110D03*
X209449Y266929D03*
X203150Y264370D03*
X200785Y266343D03*
X226378Y147822D03*
X219685Y192520D03*
X220472Y196063D03*
X222048Y205512D03*
X217323Y208268D03*
X218898Y205906D03*
X230709Y215748D03*
X230315Y223228D03*
X232283Y221260D03*
X231102Y231496D03*
X226376Y240157D03*
X220079Y244488D03*
X223583Y253543D03*
X243178Y167058D03*
X234646Y190552D03*
X251575Y209449D03*
X247244Y231890D03*
X258661Y246366D03*
G54D11*
X68898Y226378D03*
Y223622D03*
X124803Y203937D03*
X128740D03*
X127165Y220472D03*
X130709Y218898D03*
X212598Y226772D03*
X216535D03*
X220472D03*
G54D12*
X102463Y100787D03*
X112305D03*
X177266D03*
X196951D03*
G54D13*
X126732Y138583D03*
X136732D03*
X146732D03*
X144882Y275197D03*
X134882D03*
X156732Y138583D03*
G54D14*
X154882Y275197D03*
G54D15*
X175591Y86614D03*
X198819D03*
X228740D03*
G54D16*
X184842Y255906D03*
X184841Y274804D03*
X201772Y255906D03*
Y274804D03*
G54D17*
X228821Y100003D03*
Y119847D03*
Y199217D03*
X258583Y100003D03*
Y119847D03*
Y199217D03*
G54D18*
G01X122047Y239370D02*
Y235827D01*
X121260Y235039D01*
X102362D01*
X101575Y234252D01*
Y220866D01*
G01X96850Y239764D02*
X99213Y237402D01*
Y217717D01*
G01X178346Y266339D02*
Y248819D01*
X177559Y248031D01*
X164173D01*
X163386Y247244D01*
Y227952D01*
X162598Y227165D01*
X154724D01*
X153937Y226378D01*
Y211417D01*
X153150Y210630D01*
X144094D01*
G01X180709Y264173D02*
Y246850D01*
X179921Y246063D01*
X166142D01*
X165354Y245276D01*
Y225985D01*
X164567Y225197D01*
X156693D01*
X155906Y224410D01*
Y208661D01*
X155118Y207874D01*
X144488D01*
G01X175000Y233858D02*
Y197244D01*
G01X226376Y240157D02*
Y219882D01*
X225588Y219094D01*
X199606D01*
M02*
