G04 ================== begin FILE IDENTIFICATION RECORD ==================*
G04 Layout Name:  E:/ZNCZII/BRD/ZNCZII_V03_202403172153.brd*
G04 Film Name:    L4-SOLDER*
G04 File Format:  Gerber RS274X*
G04 File Origin:  Cadence Allegro 17.4-S037*
G04 Origin Date:  Wed Mar 20 21:19:16 2024*
G04 *
G04 Layer:  VIA CLASS/SOLDERMASK_BOTTOM*
G04 Layer:  PIN/SOLDERMASK_BOTTOM*
G04 Layer:  PACKAGE GEOMETRY/SOLDERMASK_BOTTOM*
G04 Layer:  BOARD GEOMETRY/SOLDERMASK_BOTTOM*
G04 *
G04 Offset:    (0.0000 0.0000)*
G04 Mirror:    No*
G04 Mode:      Positive*
G04 Rotation:  0*
G04 FullContactRelief:  No*
G04 UndefLineWidth:     0.1000*
G04 ================== end FILE IDENTIFICATION RECORD ====================*
%FSLAX25Y25*MOIN*%
%IR0*IPPOS*OFA0.00000B0.00000*MIA0B0*SFA1.00000B1.00000*%
%ADD19R,.011811X.06378*%
%ADD16R,.06378X.011811*%
%ADD28O,.035559X.08674*%
%ADD33R,.035559X.057209*%
%ADD26R,.07874X.03937*%
%ADD32C,.082677*%
%ADD11R,.063118X.0395*%
%ADD23C,.129921*%
%ADD20C,.062992*%
%ADD18R,.059118X.05124*%
%ADD17C,.074803*%
%ADD27R,.12611X.141858*%
%ADD25R,.045402X.074929*%
%ADD34R,.04265X.045791*%
%ADD22R,.062992X.062992*%
%ADD31R,.137799X.137799*%
%ADD21R,.255909X.255909*%
%ADD14R,.04202X.039748*%
%ADD13R,.039748X.04202*%
%ADD24R,.052591X.062209*%
%ADD30O,.035429X.011811*%
%ADD29O,.011811X.035429*%
%ADD10R,.021228X.031031*%
%ADD15R,.02926X.030272*%
%ADD12R,.030272X.02926*%
G75*
%LPD*%
G75*
G36*
G01X181890Y83858D02*
Y102756D01*
G03X179921Y104724I-1969J0D01*
G01X171260D01*
G03X169291Y102756I0J-1969D01*
G01Y80315D01*
X181890D01*
Y83858D01*
G37*
G36*
G01X192520Y112992D02*
Y83858D01*
Y80315D01*
X205118D01*
Y126772D01*
G02X207087Y128740I1969J0D01*
G01X216535D01*
Y142126D01*
X194488D01*
G03X192520Y140157I0J-1969D01*
G01Y112992D01*
G37*
G36*
G01X261811Y105118D02*
X224409D01*
G03X222441Y103150I0J-1969D01*
G01Y80315D01*
X235039D01*
Y93307D01*
G02X237008Y95276I1969J0D01*
G01X261811D01*
G03X263780Y97244I0J1969D01*
G01Y103150D01*
G03X261811Y105118I-1969J0D01*
G37*
G36*
G01X263780Y140157D02*
G03X261811Y142126I-1969J0D01*
G01X224016D01*
Y128740D01*
Y117323D01*
G03X225984Y115354I1969J0D01*
G01X261811D01*
G03X263780Y117323I0J1969D01*
G01Y140157D01*
G37*
G54D10*
X71063Y170404D03*
Y177628D03*
X76181Y170404D03*
X73622D03*
Y177628D03*
X76181D03*
G54D20*
X126732Y138583D03*
X136732D03*
X146732D03*
X144882Y275197D03*
X134882D03*
X156732Y138583D03*
G54D11*
X73622Y174016D03*
G54D12*
X70541Y187795D03*
X73948D03*
X76052Y192520D03*
X79459D03*
Y207480D03*
X76052D03*
Y211811D03*
X79459D03*
X76052Y216142D03*
X79459D03*
X76052Y203150D03*
X79459D03*
X76052Y226378D03*
X79459D03*
X76052Y230709D03*
X79459D03*
X100916Y170079D03*
X97509D03*
X100916Y163780D03*
X97509D03*
X162470Y214961D03*
Y224016D03*
Y219291D03*
X169026Y190945D03*
X165619D03*
X169026Y186220D03*
X165619D03*
X165877Y214961D03*
Y224016D03*
Y219291D03*
X167452Y239764D03*
X164044D03*
X195011Y208268D03*
X191604D03*
Y216929D03*
X195011D03*
X191604Y212598D03*
X195011D03*
X205777Y209055D03*
X209184D03*
X232019Y250394D03*
X228611D03*
X232019Y246063D03*
X228611D03*
X247767Y181496D03*
X244359D03*
X241861Y231496D03*
X238454D03*
X241861Y236220D03*
X238454D03*
G54D30*
X206696Y219685D03*
Y221260D03*
Y222835D03*
Y224410D03*
Y225985D03*
Y227559D03*
Y229134D03*
Y230709D03*
Y232284D03*
Y233859D03*
X226376D03*
Y219685D03*
Y232284D03*
Y230709D03*
Y229134D03*
Y227559D03*
Y225985D03*
Y224410D03*
Y222835D03*
Y221260D03*
G54D21*
X121260Y215354D03*
G54D13*
X73412Y221260D03*
X79343D03*
G54D31*
X216535Y226772D03*
G54D22*
X154882Y275197D03*
G54D14*
X86220Y163570D03*
Y169501D03*
X92126Y163570D03*
X106299Y163963D03*
Y169894D03*
X92126Y169501D03*
X111811Y264777D03*
Y258846D03*
X134646Y264777D03*
Y258846D03*
X169685Y203727D03*
Y209658D03*
X185827Y234043D03*
Y239974D03*
X216535Y147822D03*
Y153753D03*
X210630Y147822D03*
Y153753D03*
X222441Y147822D03*
Y153753D03*
X230709Y147822D03*
Y153753D03*
G54D23*
X175591Y86614D03*
X198819D03*
X228740D03*
G54D32*
X228821Y100003D03*
Y119847D03*
Y199217D03*
X258583Y100003D03*
Y119847D03*
Y199217D03*
G54D15*
X75984Y159714D03*
Y163121D03*
X79134Y187924D03*
Y184517D03*
X101181Y154005D03*
Y157412D03*
Y260562D03*
Y257155D03*
X96850Y260562D03*
Y257155D03*
X124409Y153869D03*
Y150462D03*
X115748Y171131D03*
Y174538D03*
X125591Y261940D03*
Y258533D03*
X121260Y261940D03*
Y258533D03*
X116929Y261940D03*
Y258533D03*
X144094Y261940D03*
Y258533D03*
X139764Y261940D03*
Y258533D03*
X177953Y251310D03*
Y247903D03*
X191339Y243830D03*
Y240422D03*
X204724Y170344D03*
Y173751D03*
X212598Y200659D03*
Y204066D03*
X214173Y252491D03*
Y249084D03*
X209449Y261152D03*
Y257745D03*
X223622Y246722D03*
Y250129D03*
X218898Y252491D03*
Y249084D03*
X237402Y167058D03*
Y163651D03*
G54D24*
X177033Y112598D03*
X169424D03*
X169424Y120866D03*
X177033D03*
X177033Y129134D03*
X169424D03*
X169424Y137402D03*
X177033D03*
X177033Y145669D03*
X169424D03*
X169424Y153937D03*
X177033D03*
G54D33*
X240354Y190552D03*
X247835D03*
X244094Y199212D03*
G54D34*
X246023Y212598D03*
X258701D03*
G54D25*
X194370Y173622D03*
X184370D03*
Y199606D03*
X194370D03*
G54D16*
X91102Y190945D03*
Y192519D03*
Y194094D03*
Y195669D03*
Y197244D03*
Y198819D03*
Y200393D03*
Y201969D03*
Y203543D03*
Y205119D03*
Y206693D03*
Y208267D03*
Y209843D03*
Y211417D03*
Y212993D03*
Y214567D03*
Y216141D03*
Y217717D03*
Y219291D03*
Y220867D03*
Y222441D03*
Y224015D03*
Y225591D03*
Y227165D03*
Y228741D03*
Y230315D03*
Y231889D03*
Y233465D03*
Y235039D03*
Y236614D03*
Y238189D03*
Y239763D03*
X151418Y197244D03*
Y195669D03*
Y194094D03*
Y192519D03*
Y190945D03*
Y216141D03*
Y214567D03*
Y212993D03*
Y211417D03*
Y209843D03*
Y208267D03*
Y206693D03*
Y205119D03*
Y203543D03*
Y201969D03*
Y200393D03*
Y198819D03*
Y233465D03*
Y231889D03*
Y230315D03*
Y228741D03*
Y227165D03*
Y225591D03*
Y224015D03*
Y222441D03*
Y220867D03*
Y219291D03*
Y217717D03*
Y235039D03*
Y239763D03*
Y238189D03*
Y236614D03*
G54D17*
X102463Y100787D03*
X112305D03*
X177266D03*
X196951D03*
G54D26*
X184646Y221543D03*
Y228851D03*
G54D27*
X210433Y135433D03*
X230512D03*
G54D18*
X108267Y157382D03*
Y150492D03*
X116930Y157382D03*
Y150492D03*
G54D28*
X212579Y163485D03*
Y185532D03*
X227579Y163485D03*
X222579D03*
X217579D03*
Y185532D03*
X222579D03*
X227579D03*
G54D19*
X107874Y185196D03*
X106299D03*
X104725D03*
X103150D03*
X101575D03*
X100000D03*
X98425D03*
X96851D03*
Y245512D03*
X98425D03*
X100000D03*
X101575D03*
X103150D03*
X104725D03*
X106299D03*
X107874D03*
X125197Y185196D03*
X123622D03*
X122047D03*
X120473D03*
X118898D03*
X117323D03*
X115748D03*
X114173D03*
X112599D03*
X111024D03*
X109449D03*
Y245512D03*
X111024D03*
X112599D03*
X114173D03*
X115748D03*
X117323D03*
X118898D03*
X120473D03*
X122047D03*
X123622D03*
X125197D03*
X131496Y185196D03*
X129921D03*
X128347D03*
X126772D03*
X144095D03*
X142520D03*
X140945D03*
X139370D03*
X137795D03*
X136221D03*
X134646D03*
X133071D03*
X126772Y245512D03*
X128347D03*
X129921D03*
X131496D03*
X133071D03*
X134646D03*
X136221D03*
X137795D03*
X139370D03*
X140945D03*
X142520D03*
X144095D03*
X145669Y185196D03*
Y245512D03*
G54D29*
X215748Y216932D03*
X214174D03*
X212598D03*
X211024D03*
X209448D03*
Y236612D03*
X211024D03*
X212598D03*
X214174D03*
X215748D03*
X223622Y216932D03*
X222048D03*
X220472D03*
X218898D03*
X217322D03*
Y236612D03*
X218898D03*
X220472D03*
X222048D03*
X223622D03*
M02*
