G04 ================== begin FILE IDENTIFICATION RECORD ==================*
G04 Layout Name:  E:/ZNCZII/BRD/ZNCZII_V03_202403172153.brd*
G04 Film Name:    L4-SILK*
G04 File Format:  Gerber RS274X*
G04 File Origin:  Cadence Allegro 17.4-S037*
G04 Origin Date:  Wed Mar 20 21:19:16 2024*
G04 *
G04 Layer:  REF DES/SILKSCREEN_BOTTOM*
G04 Layer:  PACKAGE GEOMETRY/SILKSCREEN_BOTTOM*
G04 Layer:  BOARD GEOMETRY/SILKSCREEN_BOTTOM*
G04 *
G04 Offset:    (0.0000 0.0000)*
G04 Mirror:    No*
G04 Mode:      Positive*
G04 Rotation:  0*
G04 FullContactRelief:  No*
G04 UndefLineWidth:     0.1000*
G04 ================== end FILE IDENTIFICATION RECORD ====================*
%FSLAX25Y25*MOIN*%
%IR0*IPPOS*OFA0.00000B0.00000*MIA0B0*SFA1.00000B1.00000*%
%ADD10C,.003937*%
%ADD11C,.011811*%
%ADD12C,.015748*%
%ADD13C,.01*%
G75*
%LPD*%
G75*
G54D10*
G01X71347Y166880D02*
Y164658D01*
X71194Y164193D01*
X70887Y163883D01*
X70504Y163780D01*
X70120Y163883D01*
X69813Y164193D01*
X69660Y164658D01*
Y166880D01*
G01X68247Y164244D02*
X68017Y163986D01*
X67748Y163831D01*
X67404Y163780D01*
X67059Y163883D01*
X66790Y164089D01*
X66598Y164451D01*
X66560Y164865D01*
X66637Y165278D01*
X66829Y165536D01*
X67097Y165743D01*
X67365Y165794D01*
X67633Y165743D01*
X67978Y165536D01*
X67863Y166880D01*
X66829D01*
G01X69385Y169779D02*
Y178253D01*
G01X70054Y193787D02*
X70284Y193942D01*
X70552Y194045D01*
X70859D01*
X71204Y193890D01*
X71472Y193631D01*
X71664Y193322D01*
X71817Y192805D01*
X71856Y192340D01*
X71779Y191875D01*
X71664Y191565D01*
X71434Y191255D01*
X71166Y191048D01*
X70897Y190945D01*
X70629D01*
X70361Y191048D01*
X70131Y191203D01*
X69939Y191410D01*
G01X67874Y190945D02*
X67797Y191617D01*
X67682Y192185D01*
X67529Y192702D01*
X67337Y193270D01*
X67031Y194045D01*
X68564D01*
G01X68526Y186432D02*
Y189758D01*
X75962D01*
Y185832D01*
X68526D01*
Y186432D01*
G01X75172Y198905D02*
X75402Y199060D01*
X75670Y199163D01*
X75977D01*
X76322Y199008D01*
X76590Y198750D01*
X76782Y198440D01*
X76935Y197923D01*
X76974Y197458D01*
X76897Y196993D01*
X76782Y196683D01*
X76552Y196373D01*
X76284Y196166D01*
X76015Y196063D01*
X75747D01*
X75479Y196166D01*
X75249Y196321D01*
X75057Y196528D01*
G01X73759D02*
X73529Y196270D01*
X73260Y196115D01*
X72915Y196063D01*
X72570Y196166D01*
X72302Y196373D01*
X72110Y196735D01*
X72072Y197148D01*
X72149Y197561D01*
X72341Y197820D01*
X72609Y198026D01*
X72877Y198078D01*
X73145Y198026D01*
X73490Y197820D01*
X73375Y199163D01*
X72341D01*
G01X70659Y196683D02*
X70429Y196321D01*
X70122Y196115D01*
X69777Y196063D01*
X69470Y196115D01*
X69164Y196373D01*
X68972Y196683D01*
X68934Y196993D01*
X69010Y197355D01*
X69279Y197613D01*
X69547Y197717D01*
X69892D01*
G01X69547D02*
X69317Y197871D01*
X69125Y198130D01*
X69049Y198440D01*
X69125Y198750D01*
X69317Y199008D01*
X69662Y199163D01*
X70007Y199111D01*
X70352Y198905D01*
G01X72845Y205906D02*
Y209006D01*
X71887D01*
X71580Y208850D01*
X71388Y208644D01*
X71312Y208230D01*
X71388Y207817D01*
X71619Y207559D01*
X71887Y207404D01*
X72845D01*
G01X71887D02*
X71312Y205906D01*
G01X68519D02*
Y209006D01*
X69937Y206784D01*
X68020D01*
G01X66607Y208489D02*
X66377Y208799D01*
X66108Y208954D01*
X65802Y209006D01*
X65419Y208902D01*
X65150Y208644D01*
X65073Y208334D01*
X65112Y208024D01*
X65265Y207765D01*
X66031Y207249D01*
X66377Y206887D01*
X66607Y206370D01*
X66683Y205906D01*
X65073D01*
G01X71235Y213078D02*
X71465Y213233D01*
X71733Y213336D01*
X72040D01*
X72385Y213181D01*
X72653Y212923D01*
X72845Y212613D01*
X72998Y212096D01*
X73037Y211631D01*
X72960Y211166D01*
X72845Y210856D01*
X72615Y210546D01*
X72347Y210339D01*
X72078Y210236D01*
X71810D01*
X71542Y210339D01*
X71312Y210494D01*
X71120Y210701D01*
G01X68519Y210236D02*
Y213336D01*
X69937Y211115D01*
X68020D01*
G01X65419Y210236D02*
Y213336D01*
X66837Y211115D01*
X64920D01*
G01X71235Y217409D02*
X71465Y217564D01*
X71733Y217667D01*
X72040D01*
X72385Y217512D01*
X72653Y217254D01*
X72845Y216944D01*
X72998Y216427D01*
X73037Y215962D01*
X72960Y215497D01*
X72845Y215187D01*
X72615Y214877D01*
X72347Y214670D01*
X72078Y214567D01*
X71810D01*
X71542Y214670D01*
X71312Y214825D01*
X71120Y215032D01*
G01X68519Y214567D02*
Y217667D01*
X69937Y215445D01*
X68020D01*
G01X66722Y215187D02*
X66492Y214825D01*
X66185Y214619D01*
X65840Y214567D01*
X65533Y214619D01*
X65227Y214877D01*
X65035Y215187D01*
X64997Y215497D01*
X65073Y215859D01*
X65342Y216117D01*
X65610Y216220D01*
X65955D01*
G01X65610D02*
X65380Y216375D01*
X65188Y216633D01*
X65112Y216944D01*
X65188Y217254D01*
X65380Y217512D01*
X65725Y217667D01*
X66070Y217615D01*
X66415Y217409D01*
G01X71629Y204417D02*
X71859Y204572D01*
X72127Y204675D01*
X72434D01*
X72779Y204520D01*
X73047Y204261D01*
X73239Y203952D01*
X73392Y203435D01*
X73430Y202970D01*
X73354Y202505D01*
X73239Y202195D01*
X73009Y201885D01*
X72741Y201678D01*
X72472Y201575D01*
X72204D01*
X71935Y201678D01*
X71706Y201833D01*
X71514Y202040D01*
G01X68912Y201575D02*
Y204675D01*
X70330Y202453D01*
X68414D01*
G01X66272Y204675D02*
X66579Y204572D01*
X66809Y204313D01*
X66962Y204003D01*
X67077Y203590D01*
X67115Y203125D01*
X67077Y202660D01*
X66962Y202246D01*
X66809Y201936D01*
X66579Y201678D01*
X66272Y201575D01*
X65965Y201678D01*
X65735Y201936D01*
X65582Y202246D01*
X65467Y202660D01*
X65429Y203125D01*
X65467Y203590D01*
X65582Y204003D01*
X65735Y204313D01*
X65965Y204572D01*
X66272Y204675D01*
G01X70924Y222047D02*
Y218659D01*
X81830D01*
Y222441D01*
G01D02*
Y223861D01*
X70924D01*
Y222047D01*
G01X132256Y117667D02*
X130799D01*
X132256Y114567D01*
X130799D01*
G01X129309D02*
Y117667D01*
X127546Y114567D01*
Y117667D01*
G01X124484Y117409D02*
X124714Y117564D01*
X124982Y117667D01*
X125289D01*
X125634Y117512D01*
X125902Y117254D01*
X126094Y116944D01*
X126247Y116427D01*
X126285Y115962D01*
X126209Y115497D01*
X126094Y115187D01*
X125864Y114877D01*
X125596Y114670D01*
X125327Y114567D01*
X125059D01*
X124791Y114670D01*
X124561Y114825D01*
X124369Y115032D01*
G01X122956Y117667D02*
X121499D01*
X122956Y114567D01*
X121499D01*
G01X119587Y117667D02*
X118667D01*
G01X119127D02*
Y114567D01*
G01X119587D02*
X118667D01*
G01X116487Y117667D02*
X115567D01*
G01X116027D02*
Y114567D01*
G01X116487D02*
X115567D01*
G01X114077Y113533D02*
X111777D01*
G01X110785Y117667D02*
X109827Y114567D01*
X108869Y117667D01*
G01X106727D02*
X107034Y117564D01*
X107264Y117305D01*
X107417Y116995D01*
X107532Y116582D01*
X107570Y116117D01*
X107532Y115652D01*
X107417Y115239D01*
X107264Y114928D01*
X107034Y114670D01*
X106727Y114567D01*
X106420Y114670D01*
X106191Y114928D01*
X106037Y115239D01*
X105922Y115652D01*
X105884Y116117D01*
X105922Y116582D01*
X106037Y116995D01*
X106191Y117305D01*
X106420Y117564D01*
X106727Y117667D01*
G01X104470Y115187D02*
X104241Y114825D01*
X103934Y114619D01*
X103589Y114567D01*
X103282Y114619D01*
X102976Y114877D01*
X102784Y115187D01*
X102746Y115497D01*
X102822Y115859D01*
X103091Y116117D01*
X103359Y116220D01*
X103704D01*
G01X103359D02*
X103129Y116375D01*
X102937Y116633D01*
X102861Y116944D01*
X102937Y117254D01*
X103129Y117512D01*
X103474Y117667D01*
X103819Y117615D01*
X104164Y117409D01*
G01X101677Y113533D02*
X99377D01*
G01X98156Y117150D02*
X97926Y117460D01*
X97657Y117615D01*
X97350Y117667D01*
X96967Y117564D01*
X96699Y117305D01*
X96622Y116995D01*
X96661Y116685D01*
X96814Y116427D01*
X97580Y115910D01*
X97926Y115548D01*
X98156Y115032D01*
X98232Y114567D01*
X96622D01*
G01X94327Y117667D02*
X94634Y117564D01*
X94864Y117305D01*
X95017Y116995D01*
X95132Y116582D01*
X95170Y116117D01*
X95132Y115652D01*
X95017Y115239D01*
X94864Y114928D01*
X94634Y114670D01*
X94327Y114567D01*
X94020Y114670D01*
X93791Y114928D01*
X93637Y115239D01*
X93522Y115652D01*
X93484Y116117D01*
X93522Y116582D01*
X93637Y116995D01*
X93791Y117305D01*
X94020Y117564D01*
X94327Y117667D01*
G01X91956Y117150D02*
X91726Y117460D01*
X91457Y117615D01*
X91150Y117667D01*
X90767Y117564D01*
X90499Y117305D01*
X90422Y116995D01*
X90461Y116685D01*
X90614Y116427D01*
X91380Y115910D01*
X91726Y115548D01*
X91956Y115032D01*
X92032Y114567D01*
X90422D01*
G01X87667D02*
Y117667D01*
X89085Y115445D01*
X87169D01*
G01X85027Y117667D02*
X85334Y117564D01*
X85564Y117305D01*
X85717Y116995D01*
X85832Y116582D01*
X85870Y116117D01*
X85832Y115652D01*
X85717Y115239D01*
X85564Y114928D01*
X85334Y114670D01*
X85027Y114567D01*
X84720Y114670D01*
X84491Y114928D01*
X84337Y115239D01*
X84222Y115652D01*
X84184Y116117D01*
X84222Y116582D01*
X84337Y116995D01*
X84491Y117305D01*
X84720Y117564D01*
X85027Y117667D01*
G01X82770Y115187D02*
X82541Y114825D01*
X82234Y114619D01*
X81889Y114567D01*
X81582Y114619D01*
X81276Y114877D01*
X81084Y115187D01*
X81046Y115497D01*
X81122Y115859D01*
X81391Y116117D01*
X81659Y116220D01*
X82004D01*
G01X81659D02*
X81429Y116375D01*
X81237Y116633D01*
X81161Y116944D01*
X81237Y117254D01*
X81429Y117512D01*
X81774Y117667D01*
X82119Y117615D01*
X82464Y117409D01*
G01X78827Y114567D02*
Y117667D01*
X79287Y117047D01*
G01Y114567D02*
X78367D01*
G01X75804D02*
X75727Y115239D01*
X75612Y115807D01*
X75459Y116324D01*
X75267Y116892D01*
X74961Y117667D01*
X76494D01*
G01X85741Y157456D02*
X85586Y157685D01*
X85483Y157954D01*
Y158261D01*
X85638Y158606D01*
X85896Y158874D01*
X86206Y159065D01*
X86723Y159219D01*
X87188Y159257D01*
X87653Y159180D01*
X87963Y159065D01*
X88273Y158835D01*
X88480Y158567D01*
X88583Y158299D01*
Y158030D01*
X88480Y157762D01*
X88324Y157532D01*
X88118Y157341D01*
G01X85999Y155927D02*
X85689Y155697D01*
X85534Y155429D01*
X85483Y155122D01*
X85586Y154739D01*
X85844Y154470D01*
X86154Y154394D01*
X86465Y154432D01*
X86723Y154585D01*
X87239Y155352D01*
X87601Y155697D01*
X88118Y155927D01*
X88583Y156004D01*
Y154394D01*
G01Y152099D02*
X88531Y151830D01*
X88376Y151524D01*
X88118Y151332D01*
X87756Y151256D01*
X87394Y151332D01*
X87084Y151562D01*
X86929Y151907D01*
Y152291D01*
X86826Y152520D01*
X86568Y152712D01*
X86206Y152789D01*
X85844Y152674D01*
X85586Y152406D01*
X85483Y152099D01*
X85586Y151792D01*
X85844Y151524D01*
X86206Y151409D01*
X86568Y151485D01*
X86826Y151677D01*
X86929Y151907D01*
Y152291D01*
X87084Y152635D01*
X87394Y152865D01*
X87756Y152942D01*
X88118Y152865D01*
X88376Y152674D01*
X88531Y152367D01*
X88583Y152099D01*
G01X90945Y171988D02*
X89525D01*
Y161081D01*
X91339D01*
G01X81804Y157456D02*
X81649Y157685D01*
X81546Y157954D01*
Y158261D01*
X81701Y158606D01*
X81959Y158874D01*
X82269Y159065D01*
X82786Y159219D01*
X83251Y159257D01*
X83716Y159180D01*
X84026Y159065D01*
X84336Y158835D01*
X84543Y158567D01*
X84646Y158299D01*
Y158030D01*
X84543Y157762D01*
X84387Y157532D01*
X84181Y157341D01*
G01X82062Y155927D02*
X81752Y155697D01*
X81597Y155429D01*
X81546Y155122D01*
X81649Y154739D01*
X81907Y154470D01*
X82217Y154394D01*
X82528Y154432D01*
X82786Y154585D01*
X83302Y155352D01*
X83664Y155697D01*
X84181Y155927D01*
X84646Y156004D01*
Y154394D01*
G01X84284Y152750D02*
X84543Y152482D01*
X84646Y152176D01*
X84543Y151869D01*
X84232Y151600D01*
X83767Y151409D01*
X83302Y151332D01*
X82734D01*
X82269Y151409D01*
X81856Y151600D01*
X81649Y151830D01*
X81546Y152099D01*
X81649Y152406D01*
X81856Y152635D01*
X82166Y152789D01*
X82579Y152865D01*
X82941Y152789D01*
X83302Y152597D01*
X83509Y152367D01*
X83561Y152099D01*
X83457Y151792D01*
X83199Y151562D01*
X82734Y151332D01*
G01X85433Y161081D02*
X88822D01*
Y171988D01*
X85039D01*
G01D02*
X83619D01*
Y161081D01*
X85433D01*
G01X77165Y155916D02*
X74065D01*
Y154957D01*
X74220Y154651D01*
X74427Y154459D01*
X74841Y154383D01*
X75254Y154459D01*
X75512Y154689D01*
X75667Y154957D01*
Y155916D01*
G01Y154957D02*
X77165Y154383D01*
G01Y152126D02*
X76494Y152049D01*
X75926Y151934D01*
X75409Y151781D01*
X74841Y151589D01*
X74065Y151283D01*
Y152816D01*
G01X77160Y157700D02*
X77947D01*
Y165135D01*
X77160D01*
G01X74809Y157700D02*
X74021D01*
Y165135D01*
X74809D01*
G01X96861Y153937D02*
Y157037D01*
X95902D01*
X95596Y156882D01*
X95404Y156675D01*
X95328Y156262D01*
X95404Y155849D01*
X95634Y155591D01*
X95902Y155435D01*
X96861D01*
G01X95902D02*
X95328Y153937D01*
G01X92534D02*
Y157037D01*
X93952Y154815D01*
X92036D01*
G01X89894Y153937D02*
Y157037D01*
X90354Y156417D01*
G01Y153937D02*
X89434D01*
G01X78976Y169016D02*
G03I-354J0D01*
G01X77859Y169779D02*
Y178253D01*
G01X83465Y181113D02*
X80365D01*
Y180154D01*
X80520Y179848D01*
X80726Y179656D01*
X81140Y179580D01*
X81553Y179656D01*
X81811Y179886D01*
X81966Y180154D01*
Y181113D01*
G01Y180154D02*
X83465Y179580D01*
G01Y177246D02*
X83413Y176978D01*
X83258Y176671D01*
X83000Y176480D01*
X82638Y176403D01*
X82276Y176480D01*
X81966Y176709D01*
X81811Y177054D01*
Y177438D01*
X81708Y177668D01*
X81450Y177859D01*
X81088Y177936D01*
X80726Y177821D01*
X80468Y177553D01*
X80365Y177246D01*
X80468Y176939D01*
X80726Y176671D01*
X81088Y176556D01*
X81450Y176633D01*
X81708Y176824D01*
X81811Y177054D01*
Y177438D01*
X81966Y177783D01*
X82276Y178013D01*
X82638Y178089D01*
X83000Y178013D01*
X83258Y177821D01*
X83413Y177515D01*
X83465Y177246D01*
G01X77958Y189938D02*
X77171D01*
Y182503D01*
X77958D01*
G01X80309Y189938D02*
X81097D01*
Y182503D01*
X80309D01*
G01X74038Y191157D02*
Y194483D01*
X81474D01*
Y190557D01*
X74038D01*
Y191157D01*
G01X81473Y208656D02*
Y209443D01*
X74038D01*
Y208656D01*
G01X81473Y206305D02*
Y205517D01*
X74038D01*
Y206305D01*
G01Y210448D02*
Y213774D01*
X81474D01*
Y209848D01*
X74038D01*
Y210448D01*
G01Y214779D02*
Y218105D01*
X81474D01*
Y214179D01*
X74038D01*
Y214779D01*
G01Y201787D02*
Y205113D01*
X81474D01*
Y201187D01*
X74038D01*
Y201787D01*
G01X79896Y236306D02*
X80126Y236461D01*
X80395Y236565D01*
X80702D01*
X81046Y236409D01*
X81315Y236151D01*
X81506Y235841D01*
X81660Y235324D01*
X81698Y234859D01*
X81621Y234394D01*
X81506Y234085D01*
X81276Y233774D01*
X81008Y233568D01*
X80740Y233465D01*
X80471D01*
X80203Y233568D01*
X79973Y233723D01*
X79781Y233930D01*
G01X77180Y233465D02*
Y236565D01*
X78598Y234343D01*
X76681D01*
G01X75268Y236048D02*
X75038Y236358D01*
X74770Y236513D01*
X74463Y236565D01*
X74080Y236461D01*
X73811Y236203D01*
X73735Y235893D01*
X73773Y235583D01*
X73926Y235324D01*
X74693Y234808D01*
X75038Y234446D01*
X75268Y233930D01*
X75345Y233465D01*
X73735D01*
G01X74038Y225015D02*
Y228341D01*
X81474D01*
Y224415D01*
X74038D01*
Y225015D01*
G01Y229346D02*
Y232672D01*
X81474D01*
Y228746D01*
X74038D01*
Y229346D01*
G01X91819Y253494D02*
Y251272D01*
X91666Y250807D01*
X91359Y250497D01*
X90976Y250394D01*
X90593Y250497D01*
X90286Y250807D01*
X90133Y251272D01*
Y253494D01*
G01X87876Y250394D02*
Y253494D01*
X88336Y252874D01*
G01Y250394D02*
X87416D01*
G01X85504Y252977D02*
X85274Y253287D01*
X85006Y253442D01*
X84699Y253494D01*
X84316Y253391D01*
X84048Y253132D01*
X83971Y252822D01*
X84009Y252512D01*
X84163Y252254D01*
X84929Y251737D01*
X85274Y251375D01*
X85504Y250859D01*
X85581Y250394D01*
X83971D01*
G01X80093Y240243D02*
X80323Y240398D01*
X80592Y240502D01*
X80898D01*
X81243Y240346D01*
X81511Y240088D01*
X81703Y239778D01*
X81857Y239261D01*
X81895Y238796D01*
X81818Y238331D01*
X81703Y238022D01*
X81473Y237711D01*
X81205Y237505D01*
X80937Y237402D01*
X80668D01*
X80400Y237505D01*
X80170Y237660D01*
X79978Y237867D01*
G01X77377Y237402D02*
Y240502D01*
X78795Y238280D01*
X76878D01*
G01X75580Y237867D02*
X75350Y237608D01*
X75081Y237453D01*
X74737Y237402D01*
X74392Y237505D01*
X74123Y237711D01*
X73931Y238073D01*
X73893Y238487D01*
X73970Y238900D01*
X74162Y239158D01*
X74430Y239365D01*
X74698Y239417D01*
X74967Y239365D01*
X75311Y239158D01*
X75196Y240502D01*
X74162D01*
G01X80093Y244574D02*
X80323Y244729D01*
X80592Y244832D01*
X80898D01*
X81243Y244677D01*
X81511Y244419D01*
X81703Y244109D01*
X81857Y243592D01*
X81895Y243127D01*
X81818Y242662D01*
X81703Y242352D01*
X81473Y242042D01*
X81205Y241835D01*
X80937Y241732D01*
X80668D01*
X80400Y241835D01*
X80170Y241991D01*
X79978Y242197D01*
G01X78680Y242352D02*
X78450Y241991D01*
X78143Y241784D01*
X77798Y241732D01*
X77492Y241784D01*
X77185Y242042D01*
X76993Y242352D01*
X76955Y242662D01*
X77031Y243024D01*
X77300Y243282D01*
X77568Y243386D01*
X77913D01*
G01X77568D02*
X77338Y243541D01*
X77146Y243799D01*
X77070Y244109D01*
X77146Y244419D01*
X77338Y244677D01*
X77683Y244832D01*
X78028Y244781D01*
X78373Y244574D01*
G01X75388Y242094D02*
X75120Y241835D01*
X74813Y241732D01*
X74507Y241835D01*
X74238Y242146D01*
X74046Y242611D01*
X73970Y243076D01*
Y243644D01*
X74046Y244109D01*
X74238Y244522D01*
X74468Y244729D01*
X74737Y244832D01*
X75043Y244729D01*
X75273Y244522D01*
X75427Y244212D01*
X75503Y243799D01*
X75427Y243437D01*
X75235Y243076D01*
X75005Y242869D01*
X74737Y242817D01*
X74430Y242920D01*
X74200Y243179D01*
X73970Y243644D01*
G01X99520Y148400D02*
X99365Y148630D01*
X99262Y148899D01*
Y149206D01*
X99417Y149550D01*
X99676Y149819D01*
X99985Y150010D01*
X100502Y150164D01*
X100967Y150202D01*
X101432Y150125D01*
X101742Y150010D01*
X102052Y149780D01*
X102259Y149512D01*
X102362Y149244D01*
Y148975D01*
X102259Y148707D01*
X102104Y148477D01*
X101897Y148285D01*
G01X99779Y146872D02*
X99469Y146642D01*
X99314Y146374D01*
X99262Y146067D01*
X99365Y145684D01*
X99624Y145415D01*
X99934Y145339D01*
X100244Y145377D01*
X100502Y145530D01*
X101019Y146297D01*
X101381Y146642D01*
X101897Y146872D01*
X102362Y146949D01*
Y145339D01*
G01X101897Y143887D02*
X102156Y143657D01*
X102311Y143389D01*
X102362Y143044D01*
X102259Y142699D01*
X102052Y142430D01*
X101691Y142239D01*
X101277Y142200D01*
X100864Y142277D01*
X100606Y142469D01*
X100399Y142737D01*
X100347Y143006D01*
X100399Y143274D01*
X100606Y143619D01*
X99262Y143504D01*
Y142469D01*
G01X105512Y161475D02*
X108900D01*
Y172381D01*
X105118D01*
G01D02*
X103698D01*
Y161475D01*
X105512D01*
G01X91339Y161081D02*
X94727D01*
Y171988D01*
X90945D01*
G01X120598Y153936D02*
Y160436D01*
X105118D01*
G01X104609Y147436D02*
X120598D01*
G01X104609D02*
Y160436D01*
X105906D01*
G01X103598Y161436D02*
X105598D01*
G01X103598D02*
Y159436D01*
G01X95251Y152448D02*
X95481Y152603D01*
X95749Y152706D01*
X96056D01*
X96401Y152551D01*
X96669Y152293D01*
X96861Y151983D01*
X97014Y151466D01*
X97052Y151001D01*
X96976Y150536D01*
X96861Y150226D01*
X96631Y149916D01*
X96363Y149709D01*
X96094Y149606D01*
X95826D01*
X95557Y149709D01*
X95328Y149865D01*
X95136Y150071D01*
G01X93837Y150226D02*
X93607Y149865D01*
X93301Y149658D01*
X92956Y149606D01*
X92649Y149658D01*
X92343Y149916D01*
X92151Y150226D01*
X92113Y150536D01*
X92189Y150898D01*
X92457Y151156D01*
X92726Y151260D01*
X93071D01*
G01X92726D02*
X92496Y151415D01*
X92304Y151673D01*
X92228Y151983D01*
X92304Y152293D01*
X92496Y152551D01*
X92841Y152706D01*
X93186Y152655D01*
X93531Y152448D01*
G01X102930Y165143D02*
Y161817D01*
X95495D01*
Y165743D01*
X102930D01*
Y165143D01*
G01X102544Y151991D02*
X99218D01*
Y159426D01*
X103144D01*
Y151991D01*
X102544D01*
G01X102930Y171254D02*
Y172042D01*
X95495D01*
Y171254D01*
G01X102930Y168903D02*
Y168116D01*
X95495D01*
Y168903D01*
G01X147525Y189089D02*
X94994D01*
G01D02*
Y241619D01*
G01X95659Y187495D02*
X93401D01*
G01D02*
Y189754D01*
G01X147525Y241619D02*
X94994D01*
G01X95659Y243213D02*
X93401D01*
G01Y240954D02*
Y243213D01*
G01X99914Y269857D02*
X99759Y270087D01*
X99656Y270356D01*
Y270662D01*
X99811Y271007D01*
X100069Y271275D01*
X100379Y271467D01*
X100896Y271620D01*
X101361Y271659D01*
X101826Y271582D01*
X102136Y271467D01*
X102446Y271237D01*
X102653Y270969D01*
X102756Y270700D01*
Y270432D01*
X102653Y270164D01*
X102498Y269934D01*
X102291Y269742D01*
G01Y268444D02*
X102549Y268214D01*
X102704Y267945D01*
X102756Y267600D01*
X102653Y267256D01*
X102446Y266987D01*
X102084Y266795D01*
X101671Y266757D01*
X101257Y266834D01*
X100999Y267026D01*
X100793Y267294D01*
X100741Y267562D01*
X100793Y267830D01*
X100999Y268175D01*
X99656Y268060D01*
Y267026D01*
G01X100172Y265229D02*
X99863Y264999D01*
X99707Y264730D01*
X99656Y264424D01*
X99759Y264041D01*
X100018Y263772D01*
X100328Y263695D01*
X100638Y263734D01*
X100896Y263887D01*
X101413Y264654D01*
X101774Y264999D01*
X102291Y265229D01*
X102756Y265306D01*
Y263695D01*
G01X99818Y262576D02*
X103144D01*
Y255141D01*
X99218D01*
Y262576D01*
X99818D01*
G01X95583Y269857D02*
X95428Y270087D01*
X95325Y270356D01*
Y270662D01*
X95480Y271007D01*
X95739Y271275D01*
X96048Y271467D01*
X96565Y271620D01*
X97030Y271659D01*
X97495Y271582D01*
X97805Y271467D01*
X98115Y271237D01*
X98322Y270969D01*
X98425Y270700D01*
Y270432D01*
X98322Y270164D01*
X98167Y269934D01*
X97960Y269742D01*
G01Y268444D02*
X98219Y268214D01*
X98374Y267945D01*
X98425Y267600D01*
X98322Y267256D01*
X98115Y266987D01*
X97754Y266795D01*
X97340Y266757D01*
X96927Y266834D01*
X96669Y267026D01*
X96462Y267294D01*
X96410Y267562D01*
X96462Y267830D01*
X96669Y268175D01*
X95325Y268060D01*
Y267026D01*
G01X98425Y264500D02*
X95325D01*
X95945Y264960D01*
G01X98425D02*
Y264041D01*
G01X95487Y262576D02*
X98813D01*
Y255141D01*
X94887D01*
Y262576D01*
X95487D01*
G01X115779Y141339D02*
Y142733D01*
X116546Y144439D01*
G01X115013D02*
X115779Y142733D01*
G01X113407Y143922D02*
X113178Y144232D01*
X112909Y144387D01*
X112602Y144439D01*
X112219Y144335D01*
X111951Y144077D01*
X111874Y143767D01*
X111913Y143457D01*
X112066Y143198D01*
X112832Y142682D01*
X113178Y142320D01*
X113407Y141804D01*
X113484Y141339D01*
X111874D01*
G01X120598Y153936D02*
Y147436D01*
G01X123046Y155883D02*
X126372D01*
Y148448D01*
X122446D01*
Y155883D01*
X123046D01*
G01X110150Y169267D02*
X109995Y169496D01*
X109892Y169765D01*
Y170072D01*
X110047Y170417D01*
X110306Y170685D01*
X110615Y170876D01*
X111132Y171030D01*
X111597Y171068D01*
X112062Y170991D01*
X112372Y170876D01*
X112682Y170646D01*
X112889Y170378D01*
X112992Y170110D01*
Y169841D01*
X112889Y169573D01*
X112734Y169343D01*
X112527Y169152D01*
G01X110409Y167738D02*
X110099Y167508D01*
X109944Y167240D01*
X109892Y166933D01*
X109995Y166550D01*
X110254Y166281D01*
X110564Y166205D01*
X110874Y166243D01*
X111132Y166396D01*
X111649Y167163D01*
X112011Y167508D01*
X112527Y167738D01*
X112992Y167815D01*
Y166205D01*
G01Y163987D02*
X112320Y163910D01*
X111752Y163795D01*
X111235Y163641D01*
X110667Y163450D01*
X109892Y163143D01*
Y164676D01*
G01X119206Y170841D02*
X119050Y171071D01*
X118947Y171340D01*
Y171646D01*
X119102Y171991D01*
X119361Y172259D01*
X119670Y172451D01*
X120187Y172605D01*
X120652Y172643D01*
X121117Y172566D01*
X121427Y172451D01*
X121737Y172221D01*
X121944Y171953D01*
X122047Y171685D01*
Y171416D01*
X121944Y171148D01*
X121789Y170918D01*
X121582Y170726D01*
G01X119464Y169313D02*
X119154Y169083D01*
X118999Y168815D01*
X118947Y168508D01*
X119050Y168125D01*
X119309Y167856D01*
X119619Y167780D01*
X119929Y167818D01*
X120187Y167971D01*
X120704Y168738D01*
X121066Y169083D01*
X121582Y169313D01*
X122047Y169390D01*
Y167780D01*
G01Y165025D02*
X118947D01*
X121169Y166443D01*
Y164526D01*
G01X117111Y169117D02*
X113785D01*
Y176552D01*
X117711D01*
Y169117D01*
X117111D01*
G01X109757Y274778D02*
X109602Y275008D01*
X109498Y275277D01*
Y275583D01*
X109654Y275928D01*
X109912Y276196D01*
X110222Y276388D01*
X110739Y276542D01*
X111204Y276580D01*
X111669Y276503D01*
X111978Y276388D01*
X112289Y276158D01*
X112495Y275890D01*
X112598Y275622D01*
Y275353D01*
X112495Y275085D01*
X112340Y274855D01*
X112133Y274663D01*
G01X112598Y272062D02*
X109498D01*
X111720Y273480D01*
Y271563D01*
G01X111307Y270150D02*
X110945Y269881D01*
X110739Y269652D01*
X110635Y269345D01*
X110739Y269077D01*
X110945Y268885D01*
X111255Y268731D01*
X111617Y268693D01*
X111927Y268731D01*
X112237Y268885D01*
X112495Y269115D01*
X112598Y269383D01*
X112495Y269690D01*
X112185Y269958D01*
X111720Y270112D01*
X111204Y270150D01*
X110532Y270073D01*
X110170Y269958D01*
X109808Y269767D01*
X109550Y269498D01*
X109498Y269230D01*
X109602Y268962D01*
X109860Y268770D01*
G01X112598Y267265D02*
X109210D01*
Y256359D01*
X112992D01*
G01D02*
X114412D01*
Y267265D01*
X112598D01*
G01X124324Y271235D02*
X124169Y271465D01*
X124065Y271733D01*
Y272040D01*
X124220Y272385D01*
X124479Y272653D01*
X124789Y272845D01*
X125306Y272998D01*
X125770Y273037D01*
X126235Y272960D01*
X126545Y272845D01*
X126856Y272615D01*
X127062Y272347D01*
X127165Y272078D01*
Y271810D01*
X127062Y271542D01*
X126907Y271312D01*
X126700Y271120D01*
G01X127165Y268519D02*
X124065D01*
X126287Y269937D01*
Y268020D01*
G01X127165Y265878D02*
X127114Y265610D01*
X126959Y265304D01*
X126700Y265112D01*
X126339Y265035D01*
X125977Y265112D01*
X125667Y265342D01*
X125512Y265687D01*
Y266070D01*
X125409Y266300D01*
X125150Y266492D01*
X124789Y266569D01*
X124427Y266453D01*
X124169Y266185D01*
X124065Y265878D01*
X124169Y265572D01*
X124427Y265304D01*
X124789Y265188D01*
X125150Y265265D01*
X125409Y265457D01*
X125512Y265687D01*
Y266070D01*
X125667Y266415D01*
X125977Y266645D01*
X126339Y266722D01*
X126700Y266645D01*
X126959Y266453D01*
X127114Y266147D01*
X127165Y265878D01*
G01X124228Y263954D02*
X127554D01*
Y256519D01*
X123628D01*
Y263954D01*
X124228D01*
G01X119993Y271235D02*
X119838Y271465D01*
X119735Y271733D01*
Y272040D01*
X119890Y272385D01*
X120148Y272653D01*
X120458Y272845D01*
X120975Y272998D01*
X121440Y273037D01*
X121905Y272960D01*
X122215Y272845D01*
X122525Y272615D01*
X122731Y272347D01*
X122835Y272078D01*
Y271810D01*
X122731Y271542D01*
X122576Y271312D01*
X122370Y271120D01*
G01X122835Y268519D02*
X119735D01*
X121956Y269937D01*
Y268020D01*
G01X122835Y265878D02*
X119735D01*
X120355Y266338D01*
G01X122835D02*
Y265419D01*
G01X119897Y263954D02*
X123223D01*
Y256519D01*
X119297D01*
Y263954D01*
X119897D01*
G01X115662Y271235D02*
X115507Y271465D01*
X115404Y271733D01*
Y272040D01*
X115559Y272385D01*
X115817Y272653D01*
X116127Y272845D01*
X116644Y272998D01*
X117109Y273037D01*
X117574Y272960D01*
X117884Y272845D01*
X118194Y272615D01*
X118401Y272347D01*
X118504Y272078D01*
Y271810D01*
X118401Y271542D01*
X118246Y271312D01*
X118039Y271120D01*
G01X117884Y269822D02*
X118246Y269592D01*
X118452Y269285D01*
X118504Y268940D01*
X118452Y268633D01*
X118194Y268327D01*
X117884Y268135D01*
X117574Y268097D01*
X117212Y268173D01*
X116954Y268442D01*
X116850Y268710D01*
Y269055D01*
G01Y268710D02*
X116696Y268480D01*
X116437Y268288D01*
X116127Y268212D01*
X115817Y268288D01*
X115559Y268480D01*
X115404Y268825D01*
X115456Y269170D01*
X115662Y269515D01*
G01X115404Y265878D02*
X115507Y266185D01*
X115766Y266415D01*
X116076Y266569D01*
X116489Y266683D01*
X116954Y266722D01*
X117419Y266683D01*
X117832Y266569D01*
X118143Y266415D01*
X118401Y266185D01*
X118504Y265878D01*
X118401Y265572D01*
X118143Y265342D01*
X117832Y265188D01*
X117419Y265073D01*
X116954Y265035D01*
X116489Y265073D01*
X116076Y265188D01*
X115766Y265342D01*
X115507Y265572D01*
X115404Y265878D01*
G01X115566Y263954D02*
X118892D01*
Y256519D01*
X114966D01*
Y263954D01*
X115566D01*
G01X128261Y154306D02*
X128106Y154536D01*
X128002Y154804D01*
Y155111D01*
X128157Y155456D01*
X128416Y155724D01*
X128726Y155916D01*
X129243Y156069D01*
X129707Y156107D01*
X130172Y156031D01*
X130482Y155916D01*
X130793Y155686D01*
X130999Y155418D01*
X131102Y155149D01*
Y154881D01*
X130999Y154613D01*
X130844Y154383D01*
X130637Y154191D01*
G01X128519Y152778D02*
X128209Y152548D01*
X128054Y152279D01*
X128002Y151972D01*
X128106Y151589D01*
X128364Y151321D01*
X128674Y151244D01*
X128984Y151283D01*
X129243Y151436D01*
X129759Y152202D01*
X130121Y152548D01*
X130637Y152778D01*
X131102Y152854D01*
Y151244D01*
G01X129811Y149678D02*
X129449Y149409D01*
X129243Y149179D01*
X129139Y148872D01*
X129243Y148604D01*
X129449Y148413D01*
X129759Y148259D01*
X130121Y148221D01*
X130431Y148259D01*
X130741Y148413D01*
X130999Y148643D01*
X131102Y148911D01*
X130999Y149218D01*
X130689Y149486D01*
X130224Y149639D01*
X129707Y149678D01*
X129036Y149601D01*
X128674Y149486D01*
X128312Y149294D01*
X128054Y149026D01*
X128002Y148757D01*
X128106Y148489D01*
X128364Y148298D01*
G01X128261Y262574D02*
X128106Y262804D01*
X128002Y263072D01*
Y263379D01*
X128157Y263724D01*
X128416Y263992D01*
X128726Y264183D01*
X129243Y264337D01*
X129707Y264375D01*
X130172Y264298D01*
X130482Y264183D01*
X130793Y263954D01*
X130999Y263685D01*
X131102Y263417D01*
Y263148D01*
X130999Y262880D01*
X130844Y262650D01*
X130637Y262459D01*
G01X130482Y261160D02*
X130844Y260930D01*
X131051Y260624D01*
X131102Y260279D01*
X131051Y259972D01*
X130793Y259665D01*
X130482Y259474D01*
X130172Y259435D01*
X129811Y259512D01*
X129552Y259780D01*
X129449Y260048D01*
Y260394D01*
G01Y260048D02*
X129294Y259819D01*
X129036Y259627D01*
X128726Y259550D01*
X128416Y259627D01*
X128157Y259819D01*
X128002Y260164D01*
X128054Y260509D01*
X128261Y260854D01*
G01X131102Y256757D02*
X128002D01*
X130224Y258175D01*
Y256259D01*
G01X135433Y267265D02*
X132044D01*
Y256359D01*
X135827D01*
G01D02*
X137247D01*
Y267265D01*
X135433D01*
G01X142731Y263954D02*
X146057D01*
Y256519D01*
X142131D01*
Y263954D01*
X142731D01*
G01X138401D02*
X141727D01*
Y256519D01*
X137801D01*
Y263954D01*
X138401D01*
G01X165556Y85433D02*
X164598Y88533D01*
X163640Y85433D01*
G01X163985Y86518D02*
X165211D01*
G01X160655Y88275D02*
X160885Y88430D01*
X161153Y88533D01*
X161460D01*
X161805Y88378D01*
X162073Y88120D01*
X162265Y87810D01*
X162418Y87293D01*
X162456Y86828D01*
X162380Y86363D01*
X162265Y86053D01*
X162035Y85743D01*
X161767Y85536D01*
X161498Y85433D01*
X161230D01*
X160961Y85536D01*
X160731Y85691D01*
X160540Y85898D01*
G01X159165Y88533D02*
Y85433D01*
X157631D01*
G01X163396Y111417D02*
Y114517D01*
X162438D01*
X162131Y114362D01*
X161939Y114156D01*
X161863Y113742D01*
X161939Y113329D01*
X162170Y113071D01*
X162438Y112916D01*
X163396D01*
G01X162438D02*
X161863Y111417D01*
G01X160181Y111779D02*
X159913Y111520D01*
X159606Y111417D01*
X159300Y111520D01*
X159031Y111831D01*
X158839Y112296D01*
X158763Y112761D01*
Y113329D01*
X158839Y113794D01*
X159031Y114207D01*
X159261Y114414D01*
X159530Y114517D01*
X159836Y114414D01*
X160066Y114207D01*
X160220Y113897D01*
X160296Y113484D01*
X160220Y113122D01*
X160028Y112761D01*
X159798Y112554D01*
X159530Y112502D01*
X159223Y112606D01*
X158993Y112864D01*
X158763Y113329D01*
G01X163790Y119291D02*
Y122391D01*
X162831D01*
X162525Y122236D01*
X162333Y122030D01*
X162257Y121616D01*
X162333Y121203D01*
X162563Y120945D01*
X162831Y120790D01*
X163790D01*
G01X162831D02*
X162257Y119291D01*
G01X159923D02*
Y122391D01*
X160383Y121771D01*
G01Y119291D02*
X159463D01*
G01X156823Y122391D02*
X157130Y122288D01*
X157360Y122030D01*
X157513Y121720D01*
X157628Y121306D01*
X157667Y120841D01*
X157628Y120376D01*
X157513Y119963D01*
X157360Y119653D01*
X157130Y119394D01*
X156823Y119291D01*
X156517Y119394D01*
X156287Y119653D01*
X156133Y119963D01*
X156018Y120376D01*
X155980Y120841D01*
X156018Y121306D01*
X156133Y121720D01*
X156287Y122030D01*
X156517Y122288D01*
X156823Y122391D01*
G01X163790Y127953D02*
Y131053D01*
X162831D01*
X162525Y130898D01*
X162333Y130691D01*
X162257Y130278D01*
X162333Y129865D01*
X162563Y129606D01*
X162831Y129451D01*
X163790D01*
G01X162831D02*
X162257Y127953D01*
G01X159923D02*
Y131053D01*
X160383Y130433D01*
G01Y127953D02*
X159463D01*
G01X156823D02*
Y131053D01*
X157283Y130433D01*
G01Y127953D02*
X156363D01*
G01X147525Y189089D02*
Y241619D01*
G01X149119Y187495D02*
X146860D01*
G01X149119D02*
Y189754D01*
G01X167891Y216324D02*
Y212998D01*
X160456D01*
Y216924D01*
X167891D01*
Y216324D01*
G01X166117Y236700D02*
X166347Y236855D01*
X166615Y236958D01*
X166922D01*
X167267Y236803D01*
X167535Y236545D01*
X167727Y236235D01*
X167880Y235718D01*
X167919Y235253D01*
X167842Y234788D01*
X167727Y234478D01*
X167497Y234168D01*
X167229Y233961D01*
X166960Y233858D01*
X166692D01*
X166424Y233961D01*
X166194Y234117D01*
X166002Y234323D01*
G01X164704Y234478D02*
X164474Y234117D01*
X164167Y233910D01*
X163822Y233858D01*
X163515Y233910D01*
X163209Y234168D01*
X163017Y234478D01*
X162979Y234788D01*
X163055Y235150D01*
X163324Y235408D01*
X163592Y235512D01*
X163937D01*
G01X163592D02*
X163362Y235667D01*
X163170Y235925D01*
X163094Y236235D01*
X163170Y236545D01*
X163362Y236803D01*
X163707Y236958D01*
X164052Y236907D01*
X164397Y236700D01*
G01X160760Y233858D02*
Y236958D01*
X161220Y236338D01*
G01Y233858D02*
X160300D01*
G01X167891Y225379D02*
Y222053D01*
X160456D01*
Y225979D01*
X167891D01*
Y225379D01*
G01X166117Y229613D02*
X166347Y229769D01*
X166615Y229872D01*
X166922D01*
X167267Y229717D01*
X167535Y229458D01*
X167727Y229148D01*
X167880Y228631D01*
X167919Y228167D01*
X167842Y227702D01*
X167727Y227392D01*
X167497Y227081D01*
X167229Y226875D01*
X166960Y226772D01*
X166692D01*
X166424Y226875D01*
X166194Y227030D01*
X166002Y227237D01*
G01X164704Y227392D02*
X164474Y227030D01*
X164167Y226823D01*
X163822Y226772D01*
X163515Y226823D01*
X163209Y227081D01*
X163017Y227392D01*
X162979Y227702D01*
X163055Y228063D01*
X163324Y228322D01*
X163592Y228425D01*
X163937D01*
G01X163592D02*
X163362Y228580D01*
X163170Y228838D01*
X163094Y229148D01*
X163170Y229458D01*
X163362Y229717D01*
X163707Y229872D01*
X164052Y229820D01*
X164397Y229613D01*
G01X161604Y227392D02*
X161374Y227030D01*
X161067Y226823D01*
X160722Y226772D01*
X160415Y226823D01*
X160109Y227081D01*
X159917Y227392D01*
X159879Y227702D01*
X159955Y228063D01*
X160224Y228322D01*
X160492Y228425D01*
X160837D01*
G01X160492D02*
X160262Y228580D01*
X160070Y228838D01*
X159994Y229148D01*
X160070Y229458D01*
X160262Y229717D01*
X160607Y229872D01*
X160952Y229820D01*
X161297Y229613D01*
G01X166117Y233157D02*
X166347Y233312D01*
X166615Y233415D01*
X166922D01*
X167267Y233260D01*
X167535Y233002D01*
X167727Y232692D01*
X167880Y232175D01*
X167919Y231710D01*
X167842Y231245D01*
X167727Y230935D01*
X167497Y230625D01*
X167229Y230418D01*
X166960Y230315D01*
X166692D01*
X166424Y230418D01*
X166194Y230573D01*
X166002Y230780D01*
G01X164704Y230935D02*
X164474Y230573D01*
X164167Y230367D01*
X163822Y230315D01*
X163515Y230367D01*
X163209Y230625D01*
X163017Y230935D01*
X162979Y231245D01*
X163055Y231607D01*
X163324Y231865D01*
X163592Y231969D01*
X163937D01*
G01X163592D02*
X163362Y232123D01*
X163170Y232381D01*
X163094Y232692D01*
X163170Y233002D01*
X163362Y233260D01*
X163707Y233415D01*
X164052Y233363D01*
X164397Y233157D01*
G01X161489Y232898D02*
X161259Y233208D01*
X160990Y233363D01*
X160683Y233415D01*
X160300Y233312D01*
X160032Y233053D01*
X159955Y232743D01*
X159994Y232433D01*
X160147Y232175D01*
X160913Y231658D01*
X161259Y231296D01*
X161489Y230780D01*
X161565Y230315D01*
X159955D01*
G01X167891Y220654D02*
Y217328D01*
X160456D01*
Y221254D01*
X167891D01*
Y220654D01*
G01X149119Y243213D02*
X146860D01*
G01X149119Y240954D02*
Y243213D01*
G01X167298Y246149D02*
X167528Y246304D01*
X167796Y246407D01*
X168103D01*
X168448Y246252D01*
X168716Y245994D01*
X168908Y245684D01*
X169061Y245167D01*
X169100Y244702D01*
X169023Y244237D01*
X168908Y243927D01*
X168678Y243617D01*
X168410Y243410D01*
X168141Y243307D01*
X167873D01*
X167605Y243410D01*
X167375Y243565D01*
X167183Y243772D01*
G01X165885Y243927D02*
X165655Y243565D01*
X165348Y243359D01*
X165003Y243307D01*
X164696Y243359D01*
X164390Y243617D01*
X164198Y243927D01*
X164160Y244237D01*
X164236Y244599D01*
X164505Y244857D01*
X164773Y244961D01*
X165118D01*
G01X164773D02*
X164543Y245115D01*
X164351Y245374D01*
X164275Y245684D01*
X164351Y245994D01*
X164543Y246252D01*
X164888Y246407D01*
X165233Y246356D01*
X165578Y246149D01*
G01X162018Y243307D02*
X161941Y243979D01*
X161826Y244547D01*
X161673Y245064D01*
X161481Y245632D01*
X161175Y246407D01*
X162708D01*
G01X153457Y262574D02*
X153302Y262804D01*
X153199Y263072D01*
Y263379D01*
X153354Y263724D01*
X153613Y263992D01*
X153922Y264183D01*
X154439Y264337D01*
X154904Y264375D01*
X155369Y264298D01*
X155679Y264183D01*
X155989Y263954D01*
X156196Y263685D01*
X156299Y263417D01*
Y263148D01*
X156196Y262880D01*
X156041Y262650D01*
X155834Y262459D01*
G01X155679Y261160D02*
X156041Y260930D01*
X156248Y260624D01*
X156299Y260279D01*
X156248Y259972D01*
X155989Y259665D01*
X155679Y259474D01*
X155369Y259435D01*
X155007Y259512D01*
X154749Y259780D01*
X154646Y260048D01*
Y260394D01*
G01Y260048D02*
X154491Y259819D01*
X154233Y259627D01*
X153922Y259550D01*
X153613Y259627D01*
X153354Y259819D01*
X153199Y260164D01*
X153251Y260509D01*
X153457Y260854D01*
G01X155007Y257945D02*
X154646Y257677D01*
X154439Y257447D01*
X154336Y257140D01*
X154439Y256872D01*
X154646Y256680D01*
X154956Y256527D01*
X155318Y256489D01*
X155628Y256527D01*
X155938Y256680D01*
X156196Y256910D01*
X156299Y257179D01*
X156196Y257485D01*
X155886Y257754D01*
X155421Y257907D01*
X154904Y257945D01*
X154233Y257869D01*
X153871Y257754D01*
X153509Y257562D01*
X153251Y257294D01*
X153199Y257025D01*
X153302Y256757D01*
X153561Y256565D01*
G01X149520Y262574D02*
X149365Y262804D01*
X149262Y263072D01*
Y263379D01*
X149417Y263724D01*
X149676Y263992D01*
X149985Y264183D01*
X150502Y264337D01*
X150967Y264375D01*
X151432Y264298D01*
X151742Y264183D01*
X152052Y263954D01*
X152259Y263685D01*
X152362Y263417D01*
Y263148D01*
X152259Y262880D01*
X152104Y262650D01*
X151897Y262459D01*
G01X151742Y261160D02*
X152104Y260930D01*
X152311Y260624D01*
X152362Y260279D01*
X152311Y259972D01*
X152052Y259665D01*
X151742Y259474D01*
X151432Y259435D01*
X151070Y259512D01*
X150812Y259780D01*
X150709Y260048D01*
Y260394D01*
G01Y260048D02*
X150554Y259819D01*
X150296Y259627D01*
X149985Y259550D01*
X149676Y259627D01*
X149417Y259819D01*
X149262Y260164D01*
X149314Y260509D01*
X149520Y260854D01*
G01X151897Y258060D02*
X152156Y257830D01*
X152311Y257562D01*
X152362Y257217D01*
X152259Y256872D01*
X152052Y256604D01*
X151691Y256412D01*
X151277Y256374D01*
X150864Y256450D01*
X150606Y256642D01*
X150399Y256910D01*
X150347Y257179D01*
X150399Y257447D01*
X150606Y257792D01*
X149262Y257677D01*
Y256642D01*
G01X166294Y114240D02*
Y116208D01*
X180161D01*
Y114240D01*
G01X166294Y110956D02*
Y108987D01*
X180161D01*
Y110956D01*
G01X180162Y119225D02*
Y117256D01*
X166295D01*
Y119225D01*
G01X180162Y122509D02*
Y124477D01*
X166295D01*
Y122509D01*
G01X166294Y127491D02*
Y125523D01*
X180161D01*
Y127491D01*
G01X166294Y130775D02*
Y132744D01*
X180161D01*
Y130775D01*
G01X180162Y135760D02*
Y133792D01*
X166295D01*
Y135760D01*
G01X180162Y139044D02*
Y141013D01*
X166295D01*
Y139044D01*
G01X166294Y144027D02*
Y142058D01*
X180161D01*
Y144027D01*
G01X180162Y155906D02*
Y150327D01*
X166295D01*
Y154331D01*
G01X180162Y155906D02*
Y157548D01*
X166295D01*
Y154331D01*
G01X166294Y147311D02*
Y149279D01*
X180161D01*
Y147311D01*
G01X169857Y182763D02*
X170087Y182918D01*
X170356Y183021D01*
X170662D01*
X171007Y182866D01*
X171275Y182608D01*
X171467Y182298D01*
X171620Y181781D01*
X171659Y181316D01*
X171582Y180851D01*
X171467Y180541D01*
X171237Y180231D01*
X170969Y180024D01*
X170700Y179921D01*
X170432D01*
X170164Y180024D01*
X169934Y180180D01*
X169742Y180386D01*
G01X167141Y179921D02*
Y183021D01*
X168559Y180800D01*
X166642D01*
G01X165152Y180283D02*
X164884Y180024D01*
X164577Y179921D01*
X164270Y180024D01*
X164002Y180335D01*
X163810Y180800D01*
X163734Y181265D01*
Y181833D01*
X163810Y182298D01*
X164002Y182711D01*
X164232Y182918D01*
X164500Y183021D01*
X164807Y182918D01*
X165037Y182711D01*
X165191Y182401D01*
X165267Y181988D01*
X165191Y181626D01*
X164999Y181265D01*
X164769Y181058D01*
X164500Y181006D01*
X164194Y181109D01*
X163964Y181368D01*
X163734Y181833D01*
G01X170054Y177645D02*
X170284Y177800D01*
X170552Y177903D01*
X170859D01*
X171204Y177748D01*
X171472Y177490D01*
X171664Y177180D01*
X171817Y176663D01*
X171856Y176198D01*
X171779Y175733D01*
X171664Y175423D01*
X171434Y175113D01*
X171166Y174906D01*
X170897Y174803D01*
X170629D01*
X170361Y174906D01*
X170131Y175061D01*
X169939Y175268D01*
G01X167337Y174803D02*
Y177903D01*
X168756Y175681D01*
X166839D01*
G01X164774Y174803D02*
X164697Y175475D01*
X164582Y176043D01*
X164429Y176560D01*
X164237Y177128D01*
X163931Y177903D01*
X165464D01*
G01X179221Y189320D02*
Y187099D01*
X179068Y186634D01*
X178761Y186324D01*
X178378Y186220D01*
X177994Y186324D01*
X177687Y186634D01*
X177534Y187099D01*
Y189320D01*
G01X174818Y186220D02*
Y189320D01*
X176236Y187099D01*
X174319D01*
G01X171041Y192308D02*
Y188982D01*
X163605D01*
Y192908D01*
X171041D01*
Y192308D01*
G01Y187583D02*
Y184257D01*
X163605D01*
Y188183D01*
X171041D01*
Y187583D01*
G01X173536Y209030D02*
X173381Y209260D01*
X173278Y209529D01*
Y209835D01*
X173433Y210180D01*
X173691Y210448D01*
X174001Y210640D01*
X174518Y210794D01*
X174983Y210832D01*
X175448Y210755D01*
X175758Y210640D01*
X176068Y210410D01*
X176275Y210142D01*
X176378Y209874D01*
Y209605D01*
X176275Y209337D01*
X176120Y209107D01*
X175913Y208915D01*
G01X175758Y207617D02*
X176120Y207387D01*
X176326Y207080D01*
X176378Y206735D01*
X176326Y206429D01*
X176068Y206122D01*
X175758Y205930D01*
X175448Y205892D01*
X175086Y205969D01*
X174828Y206237D01*
X174724Y206505D01*
Y206850D01*
G01Y206505D02*
X174570Y206275D01*
X174311Y206083D01*
X174001Y206007D01*
X173691Y206083D01*
X173433Y206275D01*
X173278Y206620D01*
X173330Y206965D01*
X173536Y207310D01*
G01X176378Y203674D02*
X176326Y203405D01*
X176171Y203099D01*
X175913Y202907D01*
X175551Y202830D01*
X175190Y202907D01*
X174880Y203137D01*
X174724Y203482D01*
Y203865D01*
X174621Y204095D01*
X174363Y204287D01*
X174001Y204364D01*
X173640Y204248D01*
X173381Y203980D01*
X173278Y203674D01*
X173381Y203367D01*
X173640Y203099D01*
X174001Y202983D01*
X174363Y203060D01*
X174621Y203252D01*
X174724Y203482D01*
Y203865D01*
X174880Y204210D01*
X175190Y204440D01*
X175551Y204517D01*
X175913Y204440D01*
X176171Y204248D01*
X176326Y203942D01*
X176378Y203674D01*
G01X168898Y201239D02*
X172286D01*
Y212145D01*
X168504D01*
G01D02*
X167084D01*
Y201239D01*
X168898D01*
G01X186196Y217802D02*
X186426Y217957D01*
X186694Y218061D01*
X187001D01*
X187346Y217906D01*
X187614Y217647D01*
X187806Y217337D01*
X187959Y216820D01*
X187997Y216356D01*
X187920Y215891D01*
X187806Y215581D01*
X187576Y215270D01*
X187307Y215064D01*
X187039Y214961D01*
X186770D01*
X186502Y215064D01*
X186272Y215219D01*
X186081Y215426D01*
G01X184667Y216252D02*
X184399Y216614D01*
X184169Y216820D01*
X183862Y216924D01*
X183594Y216820D01*
X183402Y216614D01*
X183249Y216304D01*
X183211Y215942D01*
X183249Y215632D01*
X183402Y215322D01*
X183632Y215064D01*
X183901Y214961D01*
X184207Y215064D01*
X184476Y215374D01*
X184629Y215839D01*
X184667Y216356D01*
X184591Y217027D01*
X184476Y217389D01*
X184284Y217751D01*
X184016Y218009D01*
X183747Y218061D01*
X183479Y217957D01*
X183287Y217699D01*
G01X181567Y217544D02*
X181337Y217854D01*
X181069Y218009D01*
X180762Y218061D01*
X180379Y217957D01*
X180111Y217699D01*
X180034Y217389D01*
X180072Y217079D01*
X180226Y216820D01*
X180992Y216304D01*
X181337Y215942D01*
X181567Y215426D01*
X181644Y214961D01*
X180034D01*
G01X186196Y213472D02*
X186426Y213627D01*
X186694Y213730D01*
X187001D01*
X187346Y213575D01*
X187614Y213317D01*
X187806Y213007D01*
X187959Y212490D01*
X187997Y212025D01*
X187920Y211560D01*
X187806Y211250D01*
X187576Y210940D01*
X187307Y210733D01*
X187039Y210630D01*
X186770D01*
X186502Y210733D01*
X186272Y210888D01*
X186081Y211095D01*
G01X184782D02*
X184552Y210837D01*
X184284Y210681D01*
X183939Y210630D01*
X183594Y210733D01*
X183326Y210940D01*
X183134Y211302D01*
X183096Y211715D01*
X183172Y212128D01*
X183364Y212387D01*
X183632Y212593D01*
X183901Y212645D01*
X184169Y212593D01*
X184514Y212387D01*
X184399Y213730D01*
X183364D01*
G01X180839Y210630D02*
X180570Y210681D01*
X180264Y210837D01*
X180072Y211095D01*
X179996Y211457D01*
X180072Y211818D01*
X180302Y212128D01*
X180647Y212283D01*
X181031D01*
X181261Y212387D01*
X181452Y212645D01*
X181529Y213007D01*
X181414Y213368D01*
X181146Y213627D01*
X180839Y213730D01*
X180532Y213627D01*
X180264Y213368D01*
X180149Y213007D01*
X180226Y212645D01*
X180417Y212387D01*
X180647Y212283D01*
X181031D01*
X181376Y212128D01*
X181606Y211818D01*
X181682Y211457D01*
X181606Y211095D01*
X181414Y210837D01*
X181107Y210681D01*
X180839Y210630D01*
G01X175246Y227569D02*
X178346D01*
Y226036D01*
G01Y223243D02*
X175246D01*
X177468Y224661D01*
Y222744D01*
G01X179442Y242889D02*
X179287Y243119D01*
X179183Y243387D01*
Y243694D01*
X179339Y244039D01*
X179597Y244307D01*
X179907Y244498D01*
X180424Y244652D01*
X180889Y244690D01*
X181354Y244613D01*
X181663Y244498D01*
X181974Y244269D01*
X182180Y244000D01*
X182283Y243732D01*
Y243463D01*
X182180Y243195D01*
X182025Y242965D01*
X181819Y242774D01*
G01X180992Y241360D02*
X180630Y241092D01*
X180424Y240862D01*
X180320Y240555D01*
X180424Y240287D01*
X180630Y240095D01*
X180940Y239942D01*
X181302Y239904D01*
X181612Y239942D01*
X181922Y240095D01*
X182180Y240325D01*
X182283Y240594D01*
X182180Y240900D01*
X181870Y241169D01*
X181405Y241322D01*
X180889Y241360D01*
X180217Y241283D01*
X179855Y241169D01*
X179493Y240977D01*
X179235Y240709D01*
X179183Y240440D01*
X179287Y240172D01*
X179545Y239980D01*
G01X181663Y238375D02*
X182025Y238145D01*
X182232Y237839D01*
X182283Y237494D01*
X182232Y237187D01*
X181974Y236880D01*
X181663Y236689D01*
X181354Y236650D01*
X180992Y236727D01*
X180733Y236995D01*
X180630Y237263D01*
Y237609D01*
G01Y237263D02*
X180475Y237033D01*
X180217Y236842D01*
X179907Y236765D01*
X179597Y236842D01*
X179339Y237033D01*
X179183Y237379D01*
X179235Y237724D01*
X179442Y238069D01*
G01X176777Y253324D02*
X175990D01*
Y245889D01*
X176777D01*
G01X179128Y253324D02*
X179916D01*
Y245889D01*
X179128D01*
G01X169466Y241127D02*
Y237801D01*
X162030D01*
Y241727D01*
X169466D01*
Y241127D01*
G01X179134Y262609D02*
X176034D01*
Y261650D01*
X176189Y261344D01*
X176396Y261152D01*
X176809Y261076D01*
X177222Y261152D01*
X177480Y261382D01*
X177635Y261650D01*
Y262609D01*
G01Y261650D02*
X179134Y261076D01*
G01Y258282D02*
X176034D01*
X178256Y259700D01*
Y257784D01*
G01X178772Y256294D02*
X179031Y256026D01*
X179134Y255719D01*
X179031Y255412D01*
X178720Y255144D01*
X178256Y254952D01*
X177791Y254876D01*
X177222D01*
X176757Y254952D01*
X176344Y255144D01*
X176137Y255374D01*
X176034Y255642D01*
X176137Y255949D01*
X176344Y256179D01*
X176654Y256332D01*
X177067Y256409D01*
X177429Y256332D01*
X177791Y256141D01*
X177997Y255911D01*
X178049Y255642D01*
X177946Y255335D01*
X177687Y255106D01*
X177222Y254876D01*
G01X189380Y135827D02*
Y138927D01*
X188422D01*
X188115Y138772D01*
X187924Y138565D01*
X187847Y138152D01*
X187924Y137739D01*
X188154Y137480D01*
X188422Y137325D01*
X189380D01*
G01X188422D02*
X187847Y135827D01*
G01X185514D02*
Y138927D01*
X185974Y138307D01*
G01Y135827D02*
X185054D01*
G01X183142Y138410D02*
X182912Y138720D01*
X182644Y138875D01*
X182337Y138927D01*
X181954Y138824D01*
X181685Y138565D01*
X181609Y138255D01*
X181647Y137945D01*
X181800Y137687D01*
X182567Y137170D01*
X182912Y136808D01*
X183142Y136292D01*
X183219Y135827D01*
X181609D01*
G01X189380Y144488D02*
Y147588D01*
X188422D01*
X188115Y147433D01*
X187924Y147226D01*
X187847Y146813D01*
X187924Y146400D01*
X188154Y146142D01*
X188422Y145987D01*
X189380D01*
G01X188422D02*
X187847Y144488D01*
G01X185514D02*
Y147588D01*
X185974Y146968D01*
G01Y144488D02*
X185054D01*
G01X183257Y145108D02*
X183027Y144746D01*
X182720Y144540D01*
X182376Y144488D01*
X182069Y144540D01*
X181762Y144798D01*
X181570Y145108D01*
X181532Y145418D01*
X181609Y145780D01*
X181877Y146038D01*
X182145Y146142D01*
X182491D01*
G01X182145D02*
X181915Y146296D01*
X181724Y146555D01*
X181647Y146865D01*
X181724Y147175D01*
X181915Y147433D01*
X182261Y147588D01*
X182606Y147537D01*
X182950Y147330D01*
G01X186196Y154810D02*
X186426Y154965D01*
X186694Y155069D01*
X187001D01*
X187346Y154913D01*
X187614Y154655D01*
X187806Y154345D01*
X187959Y153828D01*
X187997Y153363D01*
X187920Y152898D01*
X187806Y152589D01*
X187576Y152278D01*
X187307Y152072D01*
X187039Y151969D01*
X186770D01*
X186502Y152072D01*
X186272Y152227D01*
X186081Y152433D01*
G01X184591Y152330D02*
X184322Y152072D01*
X184016Y151969D01*
X183709Y152072D01*
X183441Y152382D01*
X183249Y152847D01*
X183172Y153312D01*
Y153880D01*
X183249Y154345D01*
X183441Y154759D01*
X183670Y154965D01*
X183939Y155069D01*
X184246Y154965D01*
X184476Y154759D01*
X184629Y154448D01*
X184706Y154035D01*
X184629Y153674D01*
X184437Y153312D01*
X184207Y153105D01*
X183939Y153054D01*
X183632Y153157D01*
X183402Y153415D01*
X183172Y153880D01*
G01X181103Y177953D02*
X197638D01*
G01D02*
Y195276D01*
G01X181103Y177953D02*
Y195276D01*
G01D02*
X197638D01*
G01X187412Y206299D02*
Y209399D01*
X186454D01*
X186147Y209244D01*
X185955Y209037D01*
X185879Y208624D01*
X185955Y208211D01*
X186185Y207953D01*
X186454Y207798D01*
X187412D01*
G01X186454D02*
X185879Y206299D01*
G01X184389Y206919D02*
X184159Y206557D01*
X183852Y206351D01*
X183507Y206299D01*
X183200Y206351D01*
X182894Y206609D01*
X182702Y206919D01*
X182664Y207229D01*
X182740Y207591D01*
X183009Y207849D01*
X183277Y207953D01*
X183622D01*
G01X183277D02*
X183047Y208107D01*
X182855Y208366D01*
X182779Y208676D01*
X182855Y208986D01*
X183047Y209244D01*
X183392Y209399D01*
X183737Y209348D01*
X184082Y209141D01*
G01X197024Y209443D02*
Y210231D01*
X189589D01*
Y209443D01*
G01X197024Y207092D02*
Y206305D01*
X189589D01*
Y207092D01*
G01Y215566D02*
Y218892D01*
X197025D01*
Y214966D01*
X189589D01*
Y215566D01*
G01Y211235D02*
Y214561D01*
X197025D01*
Y210635D01*
X189589D01*
Y211235D01*
G01X186614Y242462D02*
X183226D01*
Y231556D01*
X187008D01*
G01D02*
X188428D01*
Y242462D01*
X186614D01*
G01X188927Y219976D02*
X188883D01*
G01Y230419D02*
Y219976D01*
G01X188927Y230419D02*
X188883D01*
G01X180409Y219976D02*
X180365D01*
G01X180409Y230419D02*
Y219976D01*
G01Y230419D02*
X180365D01*
G01X194402Y246432D02*
X194247Y246662D01*
X194144Y246930D01*
Y247237D01*
X194299Y247582D01*
X194557Y247850D01*
X194867Y248042D01*
X195384Y248195D01*
X195849Y248233D01*
X196314Y248157D01*
X196624Y248042D01*
X196934Y247812D01*
X197141Y247544D01*
X197244Y247275D01*
Y247007D01*
X197141Y246739D01*
X196986Y246509D01*
X196779Y246317D01*
G01Y245019D02*
X197037Y244789D01*
X197193Y244520D01*
X197244Y244175D01*
X197141Y243830D01*
X196934Y243562D01*
X196572Y243370D01*
X196159Y243332D01*
X195746Y243409D01*
X195487Y243600D01*
X195281Y243869D01*
X195229Y244137D01*
X195281Y244405D01*
X195487Y244750D01*
X194144Y244635D01*
Y243600D01*
G01X197244Y241152D02*
X196572Y241075D01*
X196004Y240960D01*
X195487Y240807D01*
X194919Y240615D01*
X194144Y240309D01*
Y241842D01*
G01X189976Y245844D02*
X193302D01*
Y238408D01*
X189376D01*
Y245844D01*
X189976D01*
G01X217525Y85433D02*
X216567Y88533D01*
X215608Y85433D01*
G01X215953Y86518D02*
X217180D01*
G01X212623Y88275D02*
X212853Y88430D01*
X213122Y88533D01*
X213428D01*
X213773Y88378D01*
X214041Y88120D01*
X214233Y87810D01*
X214387Y87293D01*
X214425Y86828D01*
X214348Y86363D01*
X214233Y86053D01*
X214003Y85743D01*
X213735Y85536D01*
X213467Y85433D01*
X213198D01*
X212930Y85536D01*
X212700Y85691D01*
X212508Y85898D01*
G01X211248Y85433D02*
Y88533D01*
X209485Y85433D01*
Y88533D01*
G01X217333Y119685D02*
Y122785D01*
X216375D01*
X216068Y122630D01*
X215876Y122423D01*
X215800Y122010D01*
X215876Y121597D01*
X216107Y121339D01*
X216375Y121183D01*
X217333D01*
G01X216375D02*
X215800Y119685D01*
G01X214310Y120150D02*
X214080Y119892D01*
X213811Y119737D01*
X213467Y119685D01*
X213122Y119788D01*
X212853Y119995D01*
X212661Y120357D01*
X212623Y120770D01*
X212700Y121183D01*
X212892Y121442D01*
X213160Y121648D01*
X213428Y121700D01*
X213696Y121648D01*
X214041Y121442D01*
X213926Y122785D01*
X212892D01*
G01X202972Y127685D02*
Y143433D01*
G01X213972Y127685D02*
X202972D01*
G01X213972Y143433D02*
X202972D01*
G01X203457Y152337D02*
X203302Y152567D01*
X203199Y152836D01*
Y153143D01*
X203354Y153487D01*
X203613Y153756D01*
X203922Y153947D01*
X204439Y154101D01*
X204904Y154139D01*
X205369Y154062D01*
X205679Y153947D01*
X205989Y153717D01*
X206196Y153449D01*
X206299Y153181D01*
Y152912D01*
X206196Y152644D01*
X206041Y152414D01*
X205834Y152222D01*
G01X206299Y150081D02*
X206248Y149812D01*
X206093Y149506D01*
X205834Y149314D01*
X205472Y149237D01*
X205111Y149314D01*
X204801Y149544D01*
X204646Y149889D01*
Y150272D01*
X204543Y150502D01*
X204284Y150694D01*
X203922Y150771D01*
X203561Y150656D01*
X203302Y150387D01*
X203199Y150081D01*
X203302Y149774D01*
X203561Y149506D01*
X203922Y149391D01*
X204284Y149467D01*
X204543Y149659D01*
X204646Y149889D01*
Y150272D01*
X204801Y150617D01*
X205111Y150847D01*
X205472Y150924D01*
X205834Y150847D01*
X206093Y150656D01*
X206248Y150349D01*
X206299Y150081D01*
G01X215748Y145333D02*
X219137D01*
Y156240D01*
X215354D01*
G01D02*
X213934D01*
Y145333D01*
X215748D01*
G01X206299Y166546D02*
X203199D01*
Y165587D01*
X203354Y165281D01*
X203561Y165089D01*
X203974Y165013D01*
X204387Y165089D01*
X204646Y165319D01*
X204801Y165587D01*
Y166546D01*
G01Y165587D02*
X206299Y165013D01*
G01X203716Y163407D02*
X203406Y163178D01*
X203251Y162909D01*
X203199Y162602D01*
X203302Y162219D01*
X203561Y161951D01*
X203871Y161874D01*
X204181Y161913D01*
X204439Y162066D01*
X204956Y162832D01*
X205318Y163178D01*
X205834Y163407D01*
X206299Y163484D01*
Y161874D01*
G01X201969Y153947D02*
X198869D01*
Y152989D01*
X199024Y152682D01*
X199230Y152491D01*
X199644Y152414D01*
X200057Y152491D01*
X200315Y152721D01*
X200470Y152989D01*
Y153947D01*
G01Y152989D02*
X201969Y152414D01*
G01X200677Y150809D02*
X200315Y150541D01*
X200109Y150311D01*
X200005Y150004D01*
X200109Y149736D01*
X200315Y149544D01*
X200625Y149391D01*
X200987Y149352D01*
X201297Y149391D01*
X201607Y149544D01*
X201865Y149774D01*
X201969Y150043D01*
X201865Y150349D01*
X201555Y150617D01*
X201090Y150771D01*
X200574Y150809D01*
X199902Y150732D01*
X199540Y150617D01*
X199178Y150426D01*
X198920Y150157D01*
X198869Y149889D01*
X198972Y149621D01*
X199230Y149429D01*
G01X209210Y156240D02*
X208029D01*
Y145333D01*
X209210D01*
G01X212050Y156240D02*
X213231D01*
Y145333D01*
X212050D01*
G01X210579Y168209D02*
Y180609D01*
G01X229579Y168209D02*
X210579D01*
G01X205900Y168330D02*
X206687D01*
Y175765D01*
X205900D01*
G01X203549Y168330D02*
X202761D01*
Y175765D01*
X203549D01*
G01X229579Y180609D02*
X210579D01*
G01X216056Y202731D02*
X215901Y202961D01*
X215798Y203230D01*
Y203536D01*
X215953Y203881D01*
X216211Y204149D01*
X216521Y204341D01*
X217038Y204494D01*
X217503Y204533D01*
X217968Y204456D01*
X218278Y204341D01*
X218588Y204111D01*
X218794Y203843D01*
X218898Y203574D01*
Y203306D01*
X218794Y203038D01*
X218639Y202808D01*
X218433Y202616D01*
G01Y201318D02*
X218691Y201088D01*
X218846Y200819D01*
X218898Y200474D01*
X218794Y200130D01*
X218588Y199861D01*
X218226Y199669D01*
X217813Y199631D01*
X217399Y199708D01*
X217141Y199900D01*
X216934Y200168D01*
X216883Y200436D01*
X216934Y200704D01*
X217141Y201049D01*
X215798Y200934D01*
Y199900D01*
G01X217606Y198103D02*
X217244Y197834D01*
X217038Y197604D01*
X216934Y197298D01*
X217038Y197030D01*
X217244Y196838D01*
X217554Y196684D01*
X217916Y196646D01*
X218226Y196684D01*
X218536Y196838D01*
X218794Y197068D01*
X218898Y197336D01*
X218794Y197643D01*
X218484Y197911D01*
X218019Y198065D01*
X217503Y198103D01*
X216831Y198026D01*
X216469Y197911D01*
X216107Y197719D01*
X215849Y197451D01*
X215798Y197183D01*
X215901Y196915D01*
X216159Y196723D01*
G01X207456Y205991D02*
X207685Y206146D01*
X207954Y206250D01*
X208261D01*
X208606Y206094D01*
X208874Y205836D01*
X209065Y205526D01*
X209219Y205009D01*
X209257Y204544D01*
X209180Y204080D01*
X209065Y203770D01*
X208835Y203459D01*
X208567Y203253D01*
X208299Y203150D01*
X208030D01*
X207762Y203253D01*
X207532Y203408D01*
X207341Y203615D01*
G01X205927Y204441D02*
X205659Y204803D01*
X205429Y205009D01*
X205122Y205113D01*
X204854Y205009D01*
X204662Y204803D01*
X204509Y204493D01*
X204470Y204131D01*
X204509Y203821D01*
X204662Y203511D01*
X204892Y203253D01*
X205161Y203150D01*
X205467Y203253D01*
X205735Y203563D01*
X205889Y204028D01*
X205927Y204544D01*
X205850Y205216D01*
X205735Y205578D01*
X205544Y205940D01*
X205276Y206198D01*
X205007Y206250D01*
X204739Y206146D01*
X204547Y205888D01*
G01X202099Y206250D02*
X202406Y206146D01*
X202635Y205888D01*
X202789Y205578D01*
X202904Y205165D01*
X202942Y204700D01*
X202904Y204235D01*
X202789Y203821D01*
X202635Y203511D01*
X202406Y203253D01*
X202099Y203150D01*
X201792Y203253D01*
X201562Y203511D01*
X201409Y203821D01*
X201294Y204235D01*
X201256Y204700D01*
X201294Y205165D01*
X201409Y205578D01*
X201562Y205888D01*
X201792Y206146D01*
X202099Y206250D01*
G01X203763Y207692D02*
Y211018D01*
X211198D01*
Y207092D01*
X203763D01*
Y207692D01*
G01X213961Y198644D02*
X210635D01*
Y206080D01*
X214561D01*
Y198644D01*
X213961D01*
G01X205906Y218111D02*
Y216142D01*
G01X207874D02*
X205906D01*
G01X207874Y237402D02*
X205906D01*
G01D02*
Y235433D01*
G01X212998Y254505D02*
X212210D01*
Y247070D01*
X212998D01*
G01X215349Y254505D02*
X216136D01*
Y247070D01*
X215349D01*
G01X217717Y263790D02*
X214617D01*
Y262831D01*
X214772Y262525D01*
X214978Y262333D01*
X215392Y262257D01*
X215805Y262333D01*
X216063Y262563D01*
X216218Y262831D01*
Y263790D01*
G01Y262831D02*
X217717Y262257D01*
G01X217252Y260767D02*
X217510Y260537D01*
X217665Y260268D01*
X217717Y259923D01*
X217613Y259578D01*
X217407Y259310D01*
X217045Y259118D01*
X216631Y259080D01*
X216218Y259157D01*
X215960Y259348D01*
X215753Y259617D01*
X215702Y259885D01*
X215753Y260153D01*
X215960Y260498D01*
X214617Y260383D01*
Y259348D01*
G01Y256823D02*
X214720Y257130D01*
X214978Y257360D01*
X215288Y257513D01*
X215702Y257628D01*
X216167Y257667D01*
X216631Y257628D01*
X217045Y257513D01*
X217355Y257360D01*
X217613Y257130D01*
X217717Y256823D01*
X217613Y256517D01*
X217355Y256287D01*
X217045Y256133D01*
X216631Y256018D01*
X216167Y255980D01*
X215702Y256018D01*
X215288Y256133D01*
X214978Y256287D01*
X214720Y256517D01*
X214617Y256823D01*
G01X211024Y277176D02*
X207924D01*
Y276217D01*
X208079Y275911D01*
X208285Y275719D01*
X208699Y275643D01*
X209112Y275719D01*
X209370Y275949D01*
X209525Y276217D01*
Y277176D01*
G01Y276217D02*
X211024Y275643D01*
G01X210559Y274152D02*
X210817Y273922D01*
X210972Y273654D01*
X211024Y273309D01*
X210920Y272964D01*
X210714Y272696D01*
X210352Y272504D01*
X209939Y272466D01*
X209525Y272543D01*
X209267Y272734D01*
X209060Y273002D01*
X209009Y273271D01*
X209060Y273539D01*
X209267Y273884D01*
X207924Y273769D01*
Y272734D01*
G01X208440Y270937D02*
X208130Y270707D01*
X207975Y270439D01*
X207924Y270132D01*
X208027Y269749D01*
X208285Y269481D01*
X208595Y269404D01*
X208906Y269443D01*
X209164Y269596D01*
X209680Y270362D01*
X210042Y270707D01*
X210559Y270937D01*
X211024Y271014D01*
Y269404D01*
G01X208273Y263166D02*
X207486D01*
Y255731D01*
X208273D01*
G01X210624Y263166D02*
X211412D01*
Y255731D01*
X210624D01*
G01X237972Y127433D02*
X226972D01*
G01X237972Y143181D02*
X226972D01*
G01X221654Y145333D02*
X225042D01*
Y156240D01*
X221260D01*
G01D02*
X219840D01*
Y145333D01*
X221654D01*
G01X229289Y156240D02*
X228107D01*
Y145333D01*
X229289D01*
G01X232129Y156240D02*
X233310D01*
Y145333D01*
X232129D01*
G01X238276Y183415D02*
Y181193D01*
X238123Y180728D01*
X237816Y180418D01*
X237433Y180315D01*
X237049Y180418D01*
X236743Y180728D01*
X236589Y181193D01*
Y183415D01*
G01X235176Y180935D02*
X234946Y180573D01*
X234639Y180367D01*
X234294Y180315D01*
X233988Y180367D01*
X233681Y180625D01*
X233489Y180935D01*
X233451Y181245D01*
X233528Y181607D01*
X233796Y181865D01*
X234064Y181969D01*
X234409D01*
G01X234064D02*
X233834Y182123D01*
X233643Y182381D01*
X233566Y182692D01*
X233643Y183002D01*
X233834Y183260D01*
X234180Y183415D01*
X234524Y183363D01*
X234869Y183157D01*
G01X229579Y171909D02*
G02Y176909I0J2500D01*
G01Y168209D02*
Y171909D01*
G01Y176909D02*
Y180609D01*
G01X235520Y213336D02*
Y211115D01*
X235367Y210650D01*
X235060Y210339D01*
X234677Y210236D01*
X234293Y210339D01*
X233987Y210650D01*
X233833Y211115D01*
Y213336D01*
G01X231577Y210236D02*
Y213336D01*
X232037Y212716D01*
G01Y210236D02*
X231117D01*
G01X228017D02*
Y213336D01*
X229435Y211115D01*
X227519D01*
G01X227166Y218111D02*
Y216142D01*
G01D02*
X225196D01*
G01X227166Y237402D02*
X225196D01*
G01X227166D02*
Y235433D01*
G01X224798Y244708D02*
X225585D01*
Y252143D01*
X224798D01*
G01X222446Y244708D02*
X221659D01*
Y252143D01*
X222446D01*
G01X234033Y251757D02*
Y248431D01*
X226597D01*
Y252357D01*
X234033D01*
Y251757D01*
G01Y247426D02*
Y244100D01*
X226597D01*
Y248026D01*
X234033D01*
Y247426D01*
G01X217535Y254505D02*
X220861D01*
Y247070D01*
X216935D01*
Y254505D01*
X217535D01*
G01X225984Y263790D02*
X222884D01*
Y262831D01*
X223039Y262525D01*
X223246Y262333D01*
X223659Y262257D01*
X224072Y262333D01*
X224331Y262563D01*
X224486Y262831D01*
Y263790D01*
G01Y262831D02*
X225984Y262257D01*
G01X225519Y260767D02*
X225778Y260537D01*
X225933Y260268D01*
X225984Y259923D01*
X225881Y259578D01*
X225674Y259310D01*
X225313Y259118D01*
X224899Y259080D01*
X224486Y259157D01*
X224228Y259348D01*
X224021Y259617D01*
X223969Y259885D01*
X224021Y260153D01*
X224228Y260498D01*
X222884Y260383D01*
Y259348D01*
G01X225984Y256823D02*
X222884D01*
X223504Y257283D01*
G01X225984D02*
Y256363D01*
G01X233833Y263078D02*
X234063Y263233D01*
X234332Y263336D01*
X234639D01*
X234983Y263181D01*
X235252Y262923D01*
X235443Y262613D01*
X235597Y262096D01*
X235635Y261631D01*
X235558Y261166D01*
X235443Y260856D01*
X235213Y260546D01*
X234945Y260339D01*
X234677Y260236D01*
X234408D01*
X234140Y260339D01*
X233910Y260494D01*
X233719Y260701D01*
G01X232420D02*
X232190Y260443D01*
X231922Y260288D01*
X231577Y260236D01*
X231232Y260339D01*
X230963Y260546D01*
X230772Y260908D01*
X230733Y261321D01*
X230810Y261735D01*
X231002Y261993D01*
X231270Y262200D01*
X231539Y262251D01*
X231807Y262200D01*
X232152Y261993D01*
X232037Y263336D01*
X231002D01*
G01X229320Y260701D02*
X229090Y260443D01*
X228822Y260288D01*
X228477Y260236D01*
X228132Y260339D01*
X227863Y260546D01*
X227672Y260908D01*
X227633Y261321D01*
X227710Y261735D01*
X227902Y261993D01*
X228170Y262200D01*
X228439Y262251D01*
X228707Y262200D01*
X229052Y261993D01*
X228937Y263336D01*
X227902D01*
G01X233833Y259141D02*
X234063Y259296D01*
X234332Y259399D01*
X234639D01*
X234983Y259244D01*
X235252Y258986D01*
X235443Y258676D01*
X235597Y258159D01*
X235635Y257694D01*
X235558Y257229D01*
X235443Y256919D01*
X235213Y256609D01*
X234945Y256402D01*
X234677Y256299D01*
X234408D01*
X234140Y256402D01*
X233910Y256557D01*
X233719Y256764D01*
G01X232420D02*
X232190Y256506D01*
X231922Y256351D01*
X231577Y256299D01*
X231232Y256402D01*
X230963Y256609D01*
X230772Y256971D01*
X230733Y257384D01*
X230810Y257798D01*
X231002Y258056D01*
X231270Y258263D01*
X231539Y258314D01*
X231807Y258263D01*
X232152Y258056D01*
X232037Y259399D01*
X231002D01*
G01X228017Y256299D02*
Y259399D01*
X229435Y257178D01*
X227519D01*
G01X218812Y262180D02*
X218657Y262410D01*
X218554Y262678D01*
Y262985D01*
X218709Y263330D01*
X218967Y263598D01*
X219277Y263790D01*
X219794Y263943D01*
X220259Y263981D01*
X220724Y263905D01*
X221033Y263790D01*
X221344Y263560D01*
X221550Y263292D01*
X221654Y263023D01*
Y262755D01*
X221550Y262487D01*
X221395Y262257D01*
X221189Y262065D01*
G01X220362Y260652D02*
X220000Y260383D01*
X219794Y260153D01*
X219690Y259846D01*
X219794Y259578D01*
X220000Y259387D01*
X220310Y259233D01*
X220672Y259195D01*
X220982Y259233D01*
X221292Y259387D01*
X221550Y259617D01*
X221654Y259885D01*
X221550Y260192D01*
X221240Y260460D01*
X220775Y260613D01*
X220259Y260652D01*
X219587Y260575D01*
X219225Y260460D01*
X218863Y260268D01*
X218605Y260000D01*
X218554Y259731D01*
X218657Y259463D01*
X218915Y259272D01*
G01X221654Y256363D02*
X218554D01*
X220775Y257781D01*
Y255865D01*
G01X244913Y85039D02*
X245220Y85091D01*
X245488Y85298D01*
X245718Y85607D01*
X245871Y85969D01*
X245948Y86383D01*
Y86796D01*
X245871Y87209D01*
X245718Y87571D01*
X245488Y87881D01*
X245220Y88088D01*
X244913Y88139D01*
X244606Y88088D01*
X244338Y87881D01*
X244108Y87571D01*
X243955Y87209D01*
X243878Y86796D01*
Y86383D01*
X243955Y85969D01*
X244108Y85607D01*
X244338Y85298D01*
X244606Y85091D01*
X244913Y85039D01*
G01X242656Y88139D02*
Y85918D01*
X242503Y85453D01*
X242196Y85143D01*
X241813Y85039D01*
X241430Y85143D01*
X241123Y85453D01*
X240970Y85918D01*
Y88139D01*
G01X238713D02*
Y85039D01*
G01X239594Y88139D02*
X237831D01*
G01X237972Y127433D02*
Y143181D01*
G01X235741Y152337D02*
X235586Y152567D01*
X235483Y152836D01*
Y153143D01*
X235638Y153487D01*
X235896Y153756D01*
X236206Y153947D01*
X236723Y154101D01*
X237188Y154139D01*
X237653Y154062D01*
X237963Y153947D01*
X238273Y153717D01*
X238480Y153449D01*
X238583Y153181D01*
Y152912D01*
X238480Y152644D01*
X238324Y152414D01*
X238118Y152222D01*
G01Y150924D02*
X238376Y150694D01*
X238531Y150426D01*
X238583Y150081D01*
X238480Y149736D01*
X238273Y149467D01*
X237911Y149276D01*
X237498Y149237D01*
X237084Y149314D01*
X236826Y149506D01*
X236619Y149774D01*
X236568Y150043D01*
X236619Y150311D01*
X236826Y150656D01*
X235483Y150541D01*
Y149506D01*
G01X236039Y169072D02*
X239365D01*
Y161637D01*
X235439D01*
Y169072D01*
X236039D01*
G01X242913Y153947D02*
X239813D01*
Y152989D01*
X239969Y152682D01*
X240175Y152491D01*
X240589Y152414D01*
X241002Y152491D01*
X241260Y152721D01*
X241415Y152989D01*
Y153947D01*
G01Y152989D02*
X242913Y152414D01*
G01Y149621D02*
X239813D01*
X242035Y151039D01*
Y149122D01*
G01X250010Y174803D02*
Y177903D01*
X249052D01*
X248745Y177748D01*
X248554Y177541D01*
X248477Y177128D01*
X248554Y176715D01*
X248784Y176457D01*
X249052Y176302D01*
X250010D01*
G01X249052D02*
X248477Y174803D01*
G01X246144D02*
Y177903D01*
X246604Y177283D01*
G01Y174803D02*
X245684D01*
G01X242584D02*
Y177903D01*
X244002Y175681D01*
X242085D01*
G01X249780Y180320D02*
Y179533D01*
X242345D01*
Y180320D01*
G01X235741Y173597D02*
X235586Y173827D01*
X235483Y174096D01*
Y174402D01*
X235638Y174747D01*
X235896Y175015D01*
X236206Y175207D01*
X236723Y175361D01*
X237188Y175399D01*
X237653Y175322D01*
X237963Y175207D01*
X238273Y174977D01*
X238480Y174709D01*
X238583Y174441D01*
Y174172D01*
X238480Y173904D01*
X238324Y173674D01*
X238118Y173482D01*
G01X237291Y172069D02*
X236929Y171800D01*
X236723Y171570D01*
X236619Y171264D01*
X236723Y170996D01*
X236929Y170804D01*
X237239Y170650D01*
X237601Y170612D01*
X237911Y170650D01*
X238221Y170804D01*
X238480Y171034D01*
X238583Y171302D01*
X238480Y171609D01*
X238169Y171877D01*
X237704Y172031D01*
X237188Y172069D01*
X236516Y171992D01*
X236154Y171877D01*
X235793Y171685D01*
X235534Y171417D01*
X235483Y171149D01*
X235586Y170881D01*
X235844Y170689D01*
G01X242519Y192022D02*
X245669D01*
G01X238086D02*
Y197741D01*
X241811D01*
G01X250103Y192022D02*
Y197741D01*
X246535D01*
G01X249780Y182672D02*
Y183459D01*
X242345D01*
Y182672D01*
G01X253937Y212598D02*
X250197D01*
G01X252953D02*
X251378Y214173D01*
Y211024D01*
X252953Y212598D01*
G01X246944Y208952D02*
Y209909D01*
G01X257780Y208952D02*
X246944D01*
G01Y215289D02*
Y216245D01*
G01X254024Y219291D02*
Y222391D01*
X253257D01*
X252951Y222236D01*
X252721Y222030D01*
X252529Y221720D01*
X252376Y221358D01*
X252337Y220841D01*
X252376Y220325D01*
X252529Y219963D01*
X252721Y219653D01*
X252951Y219446D01*
X253257Y219291D01*
X254024D01*
G01X249621D02*
Y222391D01*
X251039Y220170D01*
X249122D01*
G01X257780Y216245D02*
X246944D01*
G01X242495Y228432D02*
X242725Y228587D01*
X242993Y228691D01*
X243300D01*
X243645Y228535D01*
X243913Y228277D01*
X244105Y227967D01*
X244258Y227450D01*
X244296Y226985D01*
X244220Y226520D01*
X244105Y226211D01*
X243875Y225900D01*
X243607Y225694D01*
X243338Y225591D01*
X243070D01*
X242802Y225694D01*
X242572Y225849D01*
X242380Y226056D01*
G01X240967Y226882D02*
X240698Y227244D01*
X240468Y227450D01*
X240161Y227554D01*
X239893Y227450D01*
X239702Y227244D01*
X239548Y226934D01*
X239510Y226572D01*
X239548Y226262D01*
X239702Y225952D01*
X239931Y225694D01*
X240200Y225591D01*
X240507Y225694D01*
X240775Y226004D01*
X240928Y226469D01*
X240967Y226985D01*
X240890Y227657D01*
X240775Y228019D01*
X240583Y228381D01*
X240315Y228639D01*
X240046Y228691D01*
X239778Y228587D01*
X239587Y228329D01*
G01X237867Y226882D02*
X237598Y227244D01*
X237368Y227450D01*
X237061Y227554D01*
X236793Y227450D01*
X236602Y227244D01*
X236448Y226934D01*
X236410Y226572D01*
X236448Y226262D01*
X236602Y225952D01*
X236831Y225694D01*
X237100Y225591D01*
X237407Y225694D01*
X237675Y226004D01*
X237828Y226469D01*
X237867Y226985D01*
X237790Y227657D01*
X237675Y228019D01*
X237483Y228381D01*
X237215Y228639D01*
X236946Y228691D01*
X236678Y228587D01*
X236487Y228329D01*
G01X243875Y232859D02*
Y229533D01*
X236440D01*
Y233459D01*
X243875D01*
Y232859D01*
G01X242101Y242212D02*
X242331Y242367D01*
X242600Y242470D01*
X242906D01*
X243251Y242315D01*
X243519Y242057D01*
X243711Y241747D01*
X243865Y241230D01*
X243903Y240765D01*
X243826Y240300D01*
X243711Y239990D01*
X243481Y239680D01*
X243213Y239473D01*
X242944Y239370D01*
X242676D01*
X242408Y239473D01*
X242178Y239628D01*
X241986Y239835D01*
G01X240573Y240662D02*
X240304Y241024D01*
X240074Y241230D01*
X239768Y241333D01*
X239500Y241230D01*
X239308Y241024D01*
X239154Y240713D01*
X239116Y240352D01*
X239154Y240042D01*
X239308Y239731D01*
X239538Y239473D01*
X239806Y239370D01*
X240113Y239473D01*
X240381Y239783D01*
X240535Y240248D01*
X240573Y240765D01*
X240496Y241437D01*
X240381Y241798D01*
X240189Y242160D01*
X239921Y242419D01*
X239653Y242470D01*
X239385Y242367D01*
X239193Y242108D01*
G01X236744Y239370D02*
Y242470D01*
X237204Y241850D01*
G01Y239370D02*
X236285D01*
G01X243875Y237583D02*
Y234257D01*
X236440D01*
Y238183D01*
X243875D01*
Y237583D01*
G01X256724Y187795D02*
X257031Y187847D01*
X257299Y188054D01*
X257529Y188363D01*
X257682Y188725D01*
X257759Y189139D01*
Y189552D01*
X257682Y189965D01*
X257529Y190327D01*
X257299Y190637D01*
X257031Y190844D01*
X256724Y190895D01*
X256417Y190844D01*
X256149Y190637D01*
X255919Y190327D01*
X255766Y189965D01*
X255689Y189552D01*
Y189139D01*
X255766Y188725D01*
X255919Y188363D01*
X256149Y188054D01*
X256417Y187847D01*
X256724Y187795D01*
G01X256417Y188622D02*
X255957Y187795D01*
G01X253624D02*
Y190895D01*
X254084Y190275D01*
G01Y187795D02*
X253164D01*
G01X253150Y214173D02*
Y210827D01*
G01X257771Y208989D02*
Y209946D01*
G01Y215289D02*
Y216245D01*
G01X256168Y208952D02*
Y216245D01*
G54D11*
G01X151659Y184758D02*
G03I-591J0D01*
G01X146148Y191057D02*
G03I-591J0D01*
G01X228546Y236612D02*
G02Y236602I590J-5D01*
G54D12*
G01X195370Y180901D02*
G02Y180911I-787J5D01*
G54D13*
G01X228123Y169846D02*
G03I-400J0D01*
G01X230879Y165909D02*
G03I-400J0D01*
M02*
