G04 ================== begin FILE IDENTIFICATION RECORD ==================*
G04 Layout Name:  ZNCZ_V03_202310270941.brd*
G04 Film Name:    BOT-SOLDER*
G04 File Format:  Gerber RS274X*
G04 File Origin:  Cadence Allegro 17.4-S037*
G04 Origin Date:  Wed Nov  1 16:20:00 2023*
G04 *
G04 Layer:  VIA CLASS/SOLDERMASK_BOTTOM*
G04 Layer:  PIN/SOLDERMASK_BOTTOM*
G04 Layer:  PACKAGE GEOMETRY/SOLDERMASK_BOTTOM*
G04 Layer:  BOARD GEOMETRY/SOLDERMASK_BOTTOM*
G04 *
G04 Offset:    (0.0000 0.0000)*
G04 Mirror:    No*
G04 Mode:      Positive*
G04 Rotation:  0*
G04 FullContactRelief:  No*
G04 UndefLineWidth:     0.1000*
G04 ================== end FILE IDENTIFICATION RECORD ====================*
%FSLAX25Y25*MOIN*%
%IR0*IPPOS*OFA0.00000B0.00000*MIA0B0*SFA1.00000B1.00000*%
%ADD21O,.035559X.08674*%
%ADD24R,.035559X.057209*%
%ADD14R,.0315X.0315*%
%ADD23C,.082677*%
%ADD10C,.062992*%
%ADD16C,.074803*%
%ADD20R,.12611X.141858*%
%ADD22R,.045402X.074929*%
%ADD25R,.04265X.045791*%
%ADD19R,.062992X.062992*%
%ADD12R,.04202X.039748*%
%ADD17R,.061031X.061031*%
%ADD11R,.039748X.04202*%
%ADD18R,.062209X.052591*%
%ADD15R,.035429X.019689*%
%ADD13R,.019689X.035429*%
G75*
%LPD*%
G75*
G36*
G01X170472Y83858D02*
X179921D01*
X181890D01*
Y106693D01*
G03X179921Y108661I-1969J0D01*
G01X172441D01*
G03X170472Y106693I0J-1969D01*
G01Y83858D01*
G37*
G36*
G01X182677Y127559D02*
Y142126D01*
Y146063D01*
X170472D01*
Y142126D01*
Y118898D01*
G03X172441Y116929I1969J0D01*
G01X190551D01*
G02X192520Y114961I0J-1969D01*
G01Y83858D01*
X203937D01*
Y123622D01*
G03X201969Y125591I-1969J0D01*
G01X184646D01*
G02X182677Y127559I0J1969D01*
G37*
G36*
G01X190551Y142126D02*
Y132677D01*
X222441D01*
G02X224409Y130709I0J-1969D01*
G01Y117323D01*
G03X226378Y115354I1969J0D01*
G01X261811D01*
G03X263780Y117323I0J1969D01*
G01Y144094D01*
G03X261811Y146063I-1969J0D01*
G01X190551D01*
Y142126D01*
G37*
G36*
G01X261811Y105118D02*
X225984D01*
G03X224016Y103150I0J-1969D01*
G01Y95276D01*
Y83858D01*
X233465D01*
Y93307D01*
G02X235433Y95276I1969J0D01*
G01X261811D01*
G03X263780Y97244I0J1969D01*
G01Y103150D01*
G03X261811Y105118I-1969J0D01*
G37*
G54D10*
X99173Y144488D03*
X109173D03*
X119173D03*
X117677Y268504D03*
X129173Y144488D03*
X137677Y268504D03*
X127677D03*
G54D11*
X83648Y176378D03*
X89580D03*
X149422Y207480D03*
X143491D03*
X149422Y216929D03*
X143491D03*
X211995Y229921D03*
X217926D03*
G54D20*
X176575Y139370D03*
X196654D03*
G54D12*
X95669Y170656D03*
Y176587D03*
X101575Y170656D03*
Y176587D03*
X143701Y194278D03*
Y200209D03*
X142913Y229344D03*
Y223413D03*
X148819Y229344D03*
Y223413D03*
X189370Y154908D03*
X183465D03*
X195276D03*
X177559D03*
X189370Y160839D03*
X183465D03*
X195276D03*
X177559D03*
X202756Y171838D03*
Y177769D03*
Y186011D03*
Y191942D03*
G54D21*
X193720Y171753D03*
X188720D03*
X183720D03*
X178720D03*
Y193800D03*
X183720D03*
X188720D03*
X193720D03*
G54D13*
X96063Y194489D03*
X92913D03*
X89763D03*
Y233070D03*
X92913D03*
X96063D03*
X114960Y194489D03*
X111811D03*
X108661D03*
X105511D03*
X102363D03*
X99213D03*
Y233070D03*
X102363D03*
X105511D03*
X108661D03*
X111811D03*
X114960D03*
X127559Y194489D03*
X124409D03*
X121259D03*
X118110D03*
Y233070D03*
X121259D03*
X124409D03*
X127559D03*
G54D22*
X193976Y205906D03*
X183976D03*
Y231889D03*
X193976D03*
G54D23*
X228821Y100003D03*
Y119847D03*
Y199217D03*
X258583Y100003D03*
Y119847D03*
Y199217D03*
G54D14*
X85236Y194291D03*
Y233268D03*
X132087Y194291D03*
Y233268D03*
G54D15*
X85433Y198031D03*
Y201181D03*
Y204331D03*
Y207481D03*
Y210630D03*
Y213780D03*
Y216930D03*
Y220078D03*
Y223228D03*
Y226378D03*
Y229528D03*
X131889Y201181D03*
Y198031D03*
Y213780D03*
Y210630D03*
Y207481D03*
Y204331D03*
Y229528D03*
Y226378D03*
Y223228D03*
Y220078D03*
Y216930D03*
G54D24*
X232481Y229921D03*
X225000D03*
X228741Y221261D03*
G54D25*
X250433Y199213D03*
X237756D03*
G54D16*
X112305Y104724D03*
X102463D03*
X177266D03*
X196951D03*
G54D17*
X100887Y206004D03*
X108661D03*
X116437D03*
Y213780D03*
X100887D03*
X108661D03*
X116437Y221556D03*
X108661Y221554D03*
X100887D03*
G54D18*
X151575Y104857D03*
Y112466D03*
Y119818D03*
Y127427D03*
Y134778D03*
Y142387D03*
Y149345D03*
Y156954D03*
Y164306D03*
Y171915D03*
X159843Y171915D03*
Y164306D03*
G54D19*
X147677Y268504D03*
M02*
