G04 ================== begin FILE IDENTIFICATION RECORD ==================*
G04 Layout Name:  ZNCZ_V03_202310270941.brd*
G04 Film Name:    OUTLINE*
G04 File Format:  Gerber RS274X*
G04 File Origin:  Cadence Allegro 17.4-S037*
G04 Origin Date:  Wed Nov  1 16:20:00 2023*
G04 *
G04 Layer:  BOARD GEOMETRY/OUTLINE*
G04 Layer:  BOARD GEOMETRY/DESIGN_OUTLINE*
G04 Layer:  BOARD GEOMETRY/CUTOUT*
G04 *
G04 Offset:    (0.0000 0.0000)*
G04 Mirror:    No*
G04 Mode:      Positive*
G04 Rotation:  0*
G04 FullContactRelief:  No*
G04 UndefLineWidth:     0.1000*
G04 ================== end FILE IDENTIFICATION RECORD ====================*
%FSLAX25Y25*MOIN*%
%IR0*IPPOS*OFA0.00000B0.00000*MIA0B0*SFA1.00000B1.00000*%
%ADD10C,.003937*%
G75*
%LPD*%
G75*
G54D10*
G01X62794Y69528D02*
Y216559D01*
G02X130431Y284197I67638J0D01*
G01X202479D01*
G02X270117Y216559I0J-67638D01*
G01Y69528D01*
G02X268148Y67559I-1969J0D01*
G01X245669D01*
G02X243701Y69528I0J1969D01*
G01Y80315D01*
G03X241732Y82283I-1969J0D01*
G01X94882D01*
G03X92913Y80315I0J-1969D01*
G01Y69528D01*
G02X90945Y67559I-1969J0D01*
G01X64763D01*
G02X62794Y69528I0J1969D01*
G01X82203Y82701D02*
G03I-6299J0D01*
G01X131890Y256299D02*
X85433D01*
G03X83465Y254331I0J-1969D01*
G01Y243701D01*
G03X85433Y241732I1969J0D01*
G01X131890D01*
G03X133858Y243701I0J1969D01*
G01Y254331D01*
G03X131890Y256299I-1969J0D01*
G01X113189Y148622D02*
Y127756D01*
X113780Y127165D01*
X114567D01*
X115157Y127756D01*
Y148622D01*
X114567Y149213D01*
X113780D01*
X113189Y148622D01*
G01X189764Y112992D02*
G03X187795Y114961I-1969J0D01*
G01X172047D01*
G03Y111024I0J-1969D01*
G01X183465D01*
G02X185433Y109055I0J-1969D01*
G01Y85827D01*
G03X187402Y83858I1969J0D01*
G01X187795D01*
G03X189764Y85827I0J1969D01*
G01Y112992D01*
G01X158187Y259867D02*
G03X174723I8268J0D01*
G03X158187I-8268J0D01*
G01X263306Y82701D02*
G03I-6299J0D01*
M02*
