G04 ================== begin FILE IDENTIFICATION RECORD ==================*
G04 Layout Name:  ZNCZ_V03_202310270941.brd*
G04 Film Name:    TOP-SILK*
G04 File Format:  Gerber RS274X*
G04 File Origin:  Cadence Allegro 17.4-S037*
G04 Origin Date:  Wed Nov  1 16:20:00 2023*
G04 *
G04 Layer:  REF DES/SILKSCREEN_TOP*
G04 Layer:  PACKAGE GEOMETRY/SILKSCREEN_TOP*
G04 Layer:  BOARD GEOMETRY/SILKSCREEN_TOP*
G04 *
G04 Offset:    (0.0000 0.0000)*
G04 Mirror:    No*
G04 Mode:      Positive*
G04 Rotation:  0*
G04 FullContactRelief:  No*
G04 UndefLineWidth:     0.1000*
G04 ================== end FILE IDENTIFICATION RECORD ====================*
%FSLAX25Y25*MOIN*%
%IR0*IPPOS*OFA0.00000B0.00000*MIA0B0*SFA1.00000B1.00000*%
%ADD10C,.003937*%
%ADD11C,.01*%
G75*
%LPD*%
G75*
G54D10*
G01X79613Y100369D02*
X79769Y100599D01*
X79872Y100867D01*
Y101174D01*
X79717Y101519D01*
X79458Y101787D01*
X79148Y101979D01*
X78631Y102132D01*
X78167Y102170D01*
X77702Y102094D01*
X77392Y101979D01*
X77081Y101749D01*
X76875Y101481D01*
X76772Y101212D01*
Y100944D01*
X76875Y100676D01*
X77030Y100446D01*
X77237Y100254D01*
G01X76772Y97652D02*
X79872D01*
X77650Y99070D01*
Y97154D01*
G01X72323Y118583D02*
X72476Y118737D01*
X72591Y118996D01*
X72668Y119357D01*
X72591Y119667D01*
X72438Y119874D01*
X72169Y120029D01*
X71135D01*
Y116929D01*
X72400D01*
X72668Y117136D01*
X72821Y117446D01*
X72898Y117807D01*
X72821Y118169D01*
X72591Y118479D01*
X72323Y118583D01*
X71135D01*
G01X75116Y116929D02*
X74809Y116981D01*
X74541Y117187D01*
X74311Y117497D01*
X74158Y117859D01*
X74081Y118272D01*
Y118686D01*
X74158Y119099D01*
X74311Y119461D01*
X74541Y119771D01*
X74809Y119978D01*
X75116Y120029D01*
X75423Y119978D01*
X75691Y119771D01*
X75921Y119461D01*
X76074Y119099D01*
X76151Y118686D01*
Y118272D01*
X76074Y117859D01*
X75921Y117497D01*
X75691Y117187D01*
X75423Y116981D01*
X75116Y116929D01*
G01X78216D02*
X77909Y116981D01*
X77641Y117187D01*
X77411Y117497D01*
X77258Y117859D01*
X77181Y118272D01*
Y118686D01*
X77258Y119099D01*
X77411Y119461D01*
X77641Y119771D01*
X77909Y119978D01*
X78216Y120029D01*
X78523Y119978D01*
X78791Y119771D01*
X79021Y119461D01*
X79174Y119099D01*
X79251Y118686D01*
Y118272D01*
X79174Y117859D01*
X79021Y117497D01*
X78791Y117187D01*
X78523Y116981D01*
X78216Y116929D01*
G01X81316Y120029D02*
Y116929D01*
G01X80435Y120029D02*
X82198D01*
G01X80999Y140551D02*
G03I-5020J0D01*
G01X65939Y145571D02*
Y135531D01*
G01D02*
X69459Y132011D01*
G01X71379Y130511D02*
X80579D01*
G01X68499Y137401D02*
X72439Y133461D01*
G01D02*
X79519D01*
G01X69459Y149091D02*
X65939Y145571D01*
G01X71379Y150591D02*
X80579D01*
G01X72049Y147641D02*
X79919D01*
G01X72049D02*
X68499Y144091D01*
G01D02*
Y137401D01*
G01X71605Y164587D02*
X71911Y164328D01*
X72257Y164173D01*
X72563D01*
X72870Y164328D01*
X73100Y164587D01*
X73215Y164948D01*
X73138Y165310D01*
X72946Y165620D01*
X72602Y165827D01*
X72141Y165930D01*
X71873Y166137D01*
X71758Y166498D01*
X71835Y166860D01*
X72026Y167118D01*
X72295Y167273D01*
X72563D01*
X72831Y167170D01*
X73061Y166911D01*
G01X74360Y167273D02*
X74896Y164173D01*
X75510Y167273D01*
X76123Y164173D01*
X76660Y167273D01*
G01X78610Y164173D02*
Y167273D01*
X78150Y166653D01*
G01Y164173D02*
X79070D01*
G01X71211Y159862D02*
X71518Y159604D01*
X71863Y159449D01*
X72169D01*
X72476Y159604D01*
X72706Y159862D01*
X72821Y160224D01*
X72744Y160585D01*
X72553Y160895D01*
X72208Y161102D01*
X71748Y161206D01*
X71480Y161412D01*
X71365Y161774D01*
X71441Y162135D01*
X71633Y162394D01*
X71901Y162549D01*
X72169D01*
X72438Y162446D01*
X72668Y162187D01*
G01X73966Y162549D02*
X74503Y159449D01*
X75116Y162549D01*
X75730Y159449D01*
X76266Y162549D01*
G01X77488Y162032D02*
X77718Y162342D01*
X77986Y162497D01*
X78293Y162549D01*
X78676Y162446D01*
X78944Y162187D01*
X79021Y161877D01*
X78983Y161567D01*
X78830Y161309D01*
X78063Y160792D01*
X77718Y160430D01*
X77488Y159914D01*
X77411Y159449D01*
X79021D01*
G01X80999Y185433D02*
G03I-5020J0D01*
G01X65939Y190453D02*
Y180413D01*
G01X69459Y193973D02*
X65939Y190453D01*
G01Y180413D02*
X69459Y176893D01*
G01X71379Y175393D02*
X80579D01*
G01X72049Y192523D02*
X79919D01*
G01X72049D02*
X68499Y188973D01*
G01D02*
Y182283D01*
G01D02*
X72439Y178343D01*
G01D02*
X79519D01*
G01X71379Y195473D02*
X80579D01*
G01X208762Y73224D02*
X90652D01*
G01X90451Y136724D02*
Y73224D01*
G01X84252Y93759D02*
X80863D01*
Y104665D01*
X84646D01*
G01D02*
X86066D01*
Y93759D01*
X84252D01*
G01X86019Y145571D02*
Y135531D01*
G01D02*
X82499Y132011D01*
G01X83069Y137011D02*
X79519Y133461D01*
G01X90945Y140945D02*
Y164567D01*
G01Y140945D02*
X96482D01*
G01X208762Y136724D02*
X90451D01*
G01X82499Y149091D02*
X86019Y145571D01*
G01X79919Y147641D02*
X83069Y144491D01*
G01D02*
Y137011D01*
G01X91339Y164567D02*
X137008D01*
G01X90576Y170952D02*
X90346Y171107D01*
X90078Y171210D01*
X89771D01*
X89426Y171055D01*
X89158Y170797D01*
X88966Y170487D01*
X88813Y169970D01*
X88774Y169505D01*
X88851Y169040D01*
X88966Y168730D01*
X89196Y168420D01*
X89464Y168213D01*
X89733Y168110D01*
X90001D01*
X90269Y168213D01*
X90499Y168369D01*
X90691Y168575D01*
G01X92833Y168110D02*
Y171210D01*
X92373Y170590D01*
G01Y168110D02*
X93293D01*
G01X96393D02*
Y171210D01*
X94974Y168989D01*
X96891D01*
G01X89764Y191743D02*
X92864D01*
Y190784D01*
X92709Y190478D01*
X92502Y190286D01*
X92089Y190209D01*
X91676Y190286D01*
X91417Y190516D01*
X91262Y190784D01*
Y191743D01*
G01Y190784D02*
X89764Y190209D01*
G01Y187109D02*
Y188643D01*
X92864D01*
Y187109D01*
G01X91365Y187723D02*
Y188643D01*
G01X90177Y185581D02*
X89919Y185274D01*
X89764Y184929D01*
Y184623D01*
X89919Y184316D01*
X90177Y184086D01*
X90539Y183971D01*
X90900Y184048D01*
X91210Y184239D01*
X91417Y184584D01*
X91520Y185044D01*
X91727Y185313D01*
X92089Y185428D01*
X92450Y185351D01*
X92709Y185159D01*
X92864Y184891D01*
Y184623D01*
X92761Y184354D01*
X92502Y184124D01*
G01X89764Y180909D02*
Y182443D01*
X92864D01*
Y180909D01*
G01X91365Y181523D02*
Y182443D01*
G01X92864Y178576D02*
X89764D01*
G01X92864Y179457D02*
Y177694D01*
G01X86019Y190453D02*
Y180413D01*
G01X82499Y193973D02*
X86019Y190453D01*
G01Y180413D02*
X82499Y176893D01*
G01X79919Y192523D02*
X83069Y189373D01*
G01Y181893D02*
X79519Y178343D01*
G01X83069Y189373D02*
Y181893D01*
G01X111865Y140945D02*
X116482D01*
G01X101865D02*
X106482D01*
G01X99270Y168504D02*
Y171893D01*
X110177D01*
Y168110D01*
G01D02*
Y166690D01*
X99270D01*
Y168504D01*
G01X105118Y178750D02*
X108218D01*
Y177792D01*
X108063Y177485D01*
X107856Y177294D01*
X107443Y177217D01*
X107030Y177294D01*
X106772Y177524D01*
X106617Y177792D01*
Y178750D01*
G01Y177792D02*
X105118Y177217D01*
G01Y174961D02*
X105790Y174884D01*
X106358Y174769D01*
X106875Y174615D01*
X107443Y174424D01*
X108218Y174117D01*
Y175650D01*
G01X116381Y178287D02*
X117562D01*
Y167381D01*
X116381D01*
G01X113541Y178287D02*
X112359D01*
Y167381D01*
X113541D01*
G01X108268Y188593D02*
X111368D01*
Y187635D01*
X111213Y187328D01*
X111006Y187136D01*
X110593Y187060D01*
X110180Y187136D01*
X109921Y187367D01*
X109766Y187635D01*
Y188593D01*
G01Y187635D02*
X108268Y187060D01*
G01Y184726D02*
X108319Y184458D01*
X108474Y184152D01*
X108733Y183960D01*
X109094Y183883D01*
X109456Y183960D01*
X109766Y184190D01*
X109921Y184535D01*
Y184918D01*
X110024Y185148D01*
X110283Y185340D01*
X110644Y185417D01*
X111006Y185301D01*
X111265Y185033D01*
X111368Y184726D01*
X111265Y184420D01*
X111006Y184152D01*
X110644Y184036D01*
X110283Y184113D01*
X110024Y184305D01*
X109921Y184535D01*
Y184918D01*
X109766Y185263D01*
X109456Y185493D01*
X109094Y185570D01*
X108733Y185493D01*
X108474Y185301D01*
X108319Y184995D01*
X108268Y184726D01*
G01X113541Y180768D02*
X112359D01*
Y191674D01*
X113541D01*
G01X116381Y180768D02*
X117562D01*
Y191674D01*
X116381D01*
G01X103834Y215852D02*
Y210133D01*
X107559D01*
G01X115851Y215852D02*
Y210133D01*
X112283D01*
G01X108630Y222835D02*
X108324Y222886D01*
X108056Y223093D01*
X107825Y223403D01*
X107672Y223765D01*
X107595Y224178D01*
Y224591D01*
X107672Y225005D01*
X107825Y225367D01*
X108056Y225676D01*
X108324Y225883D01*
X108630Y225935D01*
X108937Y225883D01*
X109205Y225676D01*
X109435Y225367D01*
X109589Y225005D01*
X109665Y224591D01*
Y224178D01*
X109589Y223765D01*
X109435Y223403D01*
X109205Y223093D01*
X108937Y222886D01*
X108630Y222835D01*
G01X108937Y223661D02*
X109397Y222835D01*
G01X111654D02*
X111730Y223506D01*
X111845Y224074D01*
X111999Y224591D01*
X112190Y225159D01*
X112497Y225935D01*
X110964D01*
G01X108267Y215852D02*
X111417D01*
G01X153504Y263504D02*
X111850D01*
G01Y273504D02*
Y263504D01*
G01X153504Y273504D02*
X111850D01*
G01X131865Y140945D02*
X137008D01*
G01X121865D02*
X126482D01*
G01X122126Y174528D02*
G03I-354J0D01*
G01X129834Y169242D02*
Y167020D01*
X129987Y166555D01*
X130294Y166245D01*
X130678Y166142D01*
X131061Y166245D01*
X131368Y166555D01*
X131521Y167020D01*
Y169242D01*
G01X133778Y166142D02*
X134046Y166193D01*
X134352Y166348D01*
X134544Y166607D01*
X134621Y166969D01*
X134544Y167330D01*
X134314Y167640D01*
X133969Y167795D01*
X133586D01*
X133356Y167898D01*
X133164Y168157D01*
X133087Y168519D01*
X133203Y168880D01*
X133471Y169139D01*
X133778Y169242D01*
X134084Y169139D01*
X134352Y168880D01*
X134468Y168519D01*
X134391Y168157D01*
X134199Y167898D01*
X133969Y167795D01*
X133586D01*
X133241Y167640D01*
X133011Y167330D01*
X132934Y166969D01*
X133011Y166607D01*
X133203Y166348D01*
X133509Y166193D01*
X133778Y166142D01*
G01X135346Y181446D02*
Y179225D01*
X135499Y178760D01*
X135806Y178450D01*
X136189Y178346D01*
X136573Y178450D01*
X136880Y178760D01*
X137033Y179225D01*
Y181446D01*
G01X138446Y178811D02*
X138676Y178553D01*
X138944Y178398D01*
X139289Y178346D01*
X139634Y178450D01*
X139903Y178656D01*
X140094Y179018D01*
X140133Y179431D01*
X140056Y179845D01*
X139864Y180103D01*
X139596Y180310D01*
X139328Y180361D01*
X139059Y180310D01*
X138715Y180103D01*
X138830Y181446D01*
X139864D01*
G01X131009Y175291D02*
Y183765D01*
G01X122535Y175291D02*
Y183765D01*
G01X129552Y196936D02*
X129322Y197091D01*
X129054Y197194D01*
X128747D01*
X128402Y197039D01*
X128134Y196781D01*
X127943Y196471D01*
X127789Y195954D01*
X127751Y195489D01*
X127828Y195024D01*
X127943Y194715D01*
X128172Y194404D01*
X128441Y194198D01*
X128709Y194094D01*
X128978D01*
X129246Y194198D01*
X129476Y194353D01*
X129667Y194559D01*
G01X131732Y194094D02*
X131809Y194766D01*
X131924Y195334D01*
X132078Y195851D01*
X132269Y196419D01*
X132576Y197194D01*
X131043D01*
G01X135375Y190551D02*
Y187163D01*
X124469D01*
Y190945D01*
G01D02*
Y192365D01*
X135375D01*
Y190551D01*
G01X133771Y207480D02*
Y210580D01*
X134538D01*
X134844Y210425D01*
X135074Y210219D01*
X135266Y209909D01*
X135420Y209547D01*
X135458Y209030D01*
X135420Y208514D01*
X135266Y208152D01*
X135074Y207842D01*
X134844Y207635D01*
X134538Y207480D01*
X133771D01*
G01X137715D02*
Y210580D01*
X137255Y209960D01*
G01Y207480D02*
X138174D01*
G01X118425Y210565D02*
Y207022D01*
G01X124647Y211644D02*
X120316D01*
X119332Y210661D01*
Y210070D01*
G01Y207314D02*
Y210070D01*
G01Y207314D02*
Y206723D01*
X120316Y205739D01*
X124647D01*
G01X130868Y205828D02*
Y211654D01*
G01X126144Y205748D02*
X130671D01*
G01X126144Y211654D02*
X130671D01*
G01X126926Y213445D02*
X125745D01*
Y224352D01*
X126926D01*
G01X129767Y213445D02*
X130948D01*
Y224352D01*
X129767D01*
G01X132677Y222451D02*
X135777D01*
Y221493D01*
X135622Y221186D01*
X135415Y220994D01*
X135002Y220918D01*
X134589Y220994D01*
X134331Y221225D01*
X134176Y221493D01*
Y222451D01*
G01Y221493D02*
X132677Y220918D01*
G01X135261Y219313D02*
X135570Y219083D01*
X135726Y218815D01*
X135777Y218508D01*
X135674Y218125D01*
X135415Y217856D01*
X135106Y217780D01*
X134795Y217818D01*
X134537Y217971D01*
X134020Y218738D01*
X133659Y219083D01*
X133142Y219313D01*
X132677Y219390D01*
Y217780D01*
G01Y215561D02*
X133349Y215485D01*
X133917Y215370D01*
X134434Y215216D01*
X135002Y215025D01*
X135777Y214718D01*
Y216251D01*
G01X134635Y276211D02*
X134827Y275900D01*
X135057Y275694D01*
X135325Y275591D01*
X135632Y275694D01*
X135862Y275900D01*
X136092Y276211D01*
X136169Y276624D01*
Y278691D01*
G01X137774Y278174D02*
X138004Y278484D01*
X138272Y278639D01*
X138579Y278691D01*
X138962Y278587D01*
X139230Y278329D01*
X139307Y278019D01*
X139269Y277709D01*
X139115Y277450D01*
X138349Y276934D01*
X138004Y276572D01*
X137774Y276056D01*
X137697Y275591D01*
X139307D01*
G01X137008Y140945D02*
Y164567D01*
G01X153174Y154417D02*
X152944Y154572D01*
X152676Y154675D01*
X152369D01*
X152024Y154520D01*
X151756Y154261D01*
X151565Y153952D01*
X151411Y153435D01*
X151373Y152970D01*
X151450Y152505D01*
X151565Y152195D01*
X151794Y151885D01*
X152063Y151678D01*
X152331Y151575D01*
X152600D01*
X152868Y151678D01*
X153098Y151833D01*
X153289Y152040D01*
G01X155431Y151575D02*
Y154675D01*
X154971Y154055D01*
G01Y151575D02*
X155891D01*
G01X157688Y152040D02*
X157918Y151781D01*
X158186Y151626D01*
X158531Y151575D01*
X158876Y151678D01*
X159144Y151885D01*
X159336Y152246D01*
X159374Y152660D01*
X159298Y153073D01*
X159106Y153331D01*
X158838Y153538D01*
X158569Y153590D01*
X158301Y153538D01*
X157956Y153331D01*
X158071Y154675D01*
X159106D01*
G01X138247Y152362D02*
Y155751D01*
X149153D01*
Y151969D01*
G01D02*
Y150548D01*
X138247D01*
Y152362D01*
G01X177953Y196850D02*
X154331D01*
G01Y220472D02*
Y196850D01*
G01X139764Y233081D02*
X142864D01*
Y232123D01*
X142709Y231816D01*
X142502Y231624D01*
X142089Y231548D01*
X141676Y231624D01*
X141417Y231855D01*
X141262Y232123D01*
Y233081D01*
G01Y232123D02*
X139764Y231548D01*
G01X142347Y229943D02*
X142657Y229713D01*
X142812Y229444D01*
X142864Y229138D01*
X142761Y228755D01*
X142502Y228486D01*
X142192Y228409D01*
X141882Y228448D01*
X141624Y228601D01*
X141107Y229368D01*
X140745Y229713D01*
X140229Y229943D01*
X139764Y230020D01*
Y228409D01*
G01X140125Y226766D02*
X139867Y226498D01*
X139764Y226191D01*
X139867Y225885D01*
X140177Y225616D01*
X140642Y225424D01*
X141107Y225348D01*
X141676D01*
X142141Y225424D01*
X142554Y225616D01*
X142761Y225846D01*
X142864Y226115D01*
X142761Y226421D01*
X142554Y226651D01*
X142244Y226805D01*
X141830Y226881D01*
X141469Y226805D01*
X141107Y226613D01*
X140900Y226383D01*
X140849Y226115D01*
X140952Y225808D01*
X141210Y225578D01*
X141676Y225348D01*
G01X146611Y223288D02*
X145430D01*
Y234194D01*
X146611D01*
G01X149452Y223288D02*
X150633D01*
Y234194D01*
X149452D01*
G01X153533Y233858D02*
Y236958D01*
X154491D01*
X154798Y236803D01*
X154990Y236596D01*
X155066Y236183D01*
X154990Y235770D01*
X154759Y235512D01*
X154491Y235357D01*
X153533D01*
G01X154491D02*
X155066Y233858D01*
G01X156556Y234478D02*
X156786Y234117D01*
X157093Y233910D01*
X157438Y233858D01*
X157744Y233910D01*
X158051Y234168D01*
X158243Y234478D01*
X158281Y234788D01*
X158205Y235150D01*
X157936Y235408D01*
X157668Y235512D01*
X157323D01*
G01X157668D02*
X157898Y235667D01*
X158090Y235925D01*
X158166Y236235D01*
X158090Y236545D01*
X157898Y236803D01*
X157553Y236958D01*
X157208Y236907D01*
X156863Y236700D01*
G01X160500Y236958D02*
X160193Y236855D01*
X159963Y236596D01*
X159809Y236287D01*
X159694Y235873D01*
X159656Y235408D01*
X159694Y234943D01*
X159809Y234530D01*
X159963Y234220D01*
X160193Y233961D01*
X160500Y233858D01*
X160806Y233961D01*
X161036Y234220D01*
X161190Y234530D01*
X161305Y234943D01*
X161343Y235408D01*
X161305Y235873D01*
X161190Y236287D01*
X161036Y236596D01*
X160806Y236855D01*
X160500Y236958D01*
G01X163326Y224564D02*
Y223383D01*
X152420D01*
Y224564D01*
G01X163326Y227404D02*
Y228585D01*
X152420D01*
Y227404D01*
G01X177953Y220472D02*
X154331D01*
G01X153504Y273504D02*
Y263504D01*
G01X142585Y273504D02*
Y263504D01*
G01X163337Y189783D02*
X163644Y189525D01*
X163989Y189370D01*
X164295D01*
X164602Y189525D01*
X164832Y189783D01*
X164947Y190145D01*
X164870Y190507D01*
X164679Y190817D01*
X164334Y191024D01*
X163874Y191127D01*
X163606Y191333D01*
X163491Y191695D01*
X163567Y192057D01*
X163759Y192315D01*
X164027Y192470D01*
X164295D01*
X164564Y192367D01*
X164794Y192108D01*
G01X166092Y192470D02*
X166629Y189370D01*
X167242Y192470D01*
X167856Y189370D01*
X168392Y192470D01*
G01X169499Y189990D02*
X169729Y189628D01*
X170035Y189422D01*
X170380Y189370D01*
X170687Y189422D01*
X170994Y189680D01*
X171185Y189990D01*
X171224Y190300D01*
X171147Y190662D01*
X170879Y190920D01*
X170611Y191024D01*
X170265D01*
G01X170611D02*
X170841Y191178D01*
X171032Y191437D01*
X171109Y191747D01*
X171032Y192057D01*
X170841Y192315D01*
X170495Y192470D01*
X170150Y192419D01*
X169806Y192212D01*
G01X172163Y208661D02*
G03I-6021J0D01*
G01X160142Y200661D02*
G03I-2000J0D01*
G01X176134Y200667D02*
G03I-2000J0D01*
G01X167741Y233157D02*
X167511Y233312D01*
X167243Y233415D01*
X166936D01*
X166591Y233260D01*
X166323Y233002D01*
X166131Y232692D01*
X165978Y232175D01*
X165940Y231710D01*
X166017Y231245D01*
X166131Y230935D01*
X166361Y230625D01*
X166630Y230418D01*
X166898Y230315D01*
X167167D01*
X167435Y230418D01*
X167665Y230573D01*
X167856Y230780D01*
G01X169998Y230315D02*
Y233415D01*
X169538Y232795D01*
G01Y230315D02*
X170458D01*
G01X172370Y231607D02*
X172638Y231969D01*
X172868Y232175D01*
X173175Y232278D01*
X173443Y232175D01*
X173635Y231969D01*
X173788Y231658D01*
X173826Y231296D01*
X173788Y230987D01*
X173635Y230676D01*
X173405Y230418D01*
X173136Y230315D01*
X172830Y230418D01*
X172561Y230728D01*
X172408Y231193D01*
X172370Y231710D01*
X172446Y232381D01*
X172561Y232743D01*
X172753Y233105D01*
X173021Y233363D01*
X173290Y233415D01*
X173558Y233312D01*
X173750Y233053D01*
G01X175926Y226772D02*
Y223383D01*
X165020D01*
Y227165D01*
G01D02*
Y228585D01*
X175926D01*
Y226772D01*
G01X160142Y216661D02*
G03I-2000J0D01*
G01X176142D02*
G03I-2000J0D01*
G01X177953Y220472D02*
Y196850D01*
G01X192489Y220079D02*
X192182Y220130D01*
X191914Y220337D01*
X191683Y220647D01*
X191530Y221009D01*
X191454Y221422D01*
Y221835D01*
X191530Y222249D01*
X191683Y222611D01*
X191914Y222920D01*
X192182Y223127D01*
X192489Y223179D01*
X192795Y223127D01*
X193063Y222920D01*
X193294Y222611D01*
X193447Y222249D01*
X193524Y221835D01*
Y221422D01*
X193447Y221009D01*
X193294Y220647D01*
X193063Y220337D01*
X192795Y220130D01*
X192489Y220079D01*
G01X192795Y220906D02*
X193255Y220079D01*
G01X195589D02*
X195857Y220130D01*
X196163Y220285D01*
X196355Y220544D01*
X196432Y220906D01*
X196355Y221267D01*
X196125Y221577D01*
X195780Y221732D01*
X195397D01*
X195167Y221835D01*
X194975Y222094D01*
X194898Y222456D01*
X195014Y222817D01*
X195282Y223076D01*
X195589Y223179D01*
X195895Y223076D01*
X196163Y222817D01*
X196279Y222456D01*
X196202Y222094D01*
X196010Y221835D01*
X195780Y221732D01*
X195397D01*
X195052Y221577D01*
X194822Y221267D01*
X194745Y220906D01*
X194822Y220544D01*
X195014Y220285D01*
X195320Y220130D01*
X195589Y220079D01*
G01X195276Y252026D02*
X191887D01*
Y262933D01*
X195669D01*
G01X189370Y252026D02*
X185981D01*
Y262933D01*
X189764D01*
G01D02*
X191184D01*
Y252026D01*
X189370D01*
G01X195755Y270448D02*
X195910Y270678D01*
X196013Y270946D01*
Y271253D01*
X195858Y271598D01*
X195600Y271866D01*
X195290Y272057D01*
X194773Y272211D01*
X194308Y272249D01*
X193843Y272172D01*
X193533Y272057D01*
X193223Y271828D01*
X193017Y271559D01*
X192913Y271291D01*
Y271022D01*
X193017Y270754D01*
X193172Y270524D01*
X193378Y270333D01*
G01X192913Y268191D02*
X196013D01*
X195393Y268651D01*
G01X192913D02*
Y267731D01*
G01Y265091D02*
X196013D01*
X195393Y265551D01*
G01X192913D02*
Y264631D01*
G01X189850Y270448D02*
X190005Y270678D01*
X190108Y270946D01*
Y271253D01*
X189953Y271598D01*
X189694Y271866D01*
X189385Y272057D01*
X188868Y272211D01*
X188403Y272249D01*
X187938Y272172D01*
X187628Y272057D01*
X187318Y271828D01*
X187111Y271559D01*
X187008Y271291D01*
Y271022D01*
X187111Y270754D01*
X187266Y270524D01*
X187473Y270333D01*
G01X187008Y268191D02*
X190108D01*
X189488Y268651D01*
G01X187008D02*
Y267731D01*
G01X187628Y265934D02*
X187266Y265704D01*
X187059Y265398D01*
X187008Y265053D01*
X187059Y264746D01*
X187318Y264439D01*
X187628Y264248D01*
X187938Y264209D01*
X188300Y264286D01*
X188558Y264554D01*
X188661Y264822D01*
Y265168D01*
G01Y264822D02*
X188816Y264593D01*
X189074Y264401D01*
X189385Y264324D01*
X189694Y264401D01*
X189953Y264593D01*
X190108Y264938D01*
X190056Y265283D01*
X189850Y265628D01*
G01X208762Y136724D02*
Y73224D01*
G01X198338Y142864D02*
Y140642D01*
X198491Y140177D01*
X198798Y139867D01*
X199181Y139764D01*
X199565Y139867D01*
X199872Y140177D01*
X200025Y140642D01*
Y142864D01*
G01X201553Y142347D02*
X201783Y142657D01*
X202052Y142812D01*
X202358Y142864D01*
X202741Y142761D01*
X203010Y142502D01*
X203087Y142192D01*
X203048Y141882D01*
X202895Y141624D01*
X202128Y141107D01*
X201783Y140745D01*
X201553Y140229D01*
X201476Y139764D01*
X203087D01*
G01X209362Y167273D02*
Y165052D01*
X209515Y164587D01*
X209822Y164276D01*
X210205Y164173D01*
X210589Y164276D01*
X210895Y164587D01*
X211048Y165052D01*
Y167273D01*
G01X213228Y164173D02*
X213305Y164845D01*
X213420Y165413D01*
X213574Y165930D01*
X213765Y166498D01*
X214072Y167273D01*
X212539D01*
G01X205031Y200787D02*
Y203887D01*
X205798D01*
X206104Y203732D01*
X206334Y203526D01*
X206526Y203216D01*
X206680Y202854D01*
X206718Y202337D01*
X206680Y201821D01*
X206526Y201459D01*
X206334Y201149D01*
X206104Y200943D01*
X205798Y200787D01*
X205031D01*
G01X208246Y203371D02*
X208476Y203681D01*
X208744Y203836D01*
X209051Y203887D01*
X209434Y203784D01*
X209703Y203526D01*
X209780Y203216D01*
X209741Y202906D01*
X209588Y202647D01*
X208821Y202131D01*
X208476Y201769D01*
X208246Y201252D01*
X208169Y200787D01*
X209780D01*
G01X200709Y210565D02*
Y207022D01*
G01X206930Y211644D02*
X202599D01*
X201615Y210661D01*
Y210070D01*
G01Y207314D02*
Y210070D01*
G01Y207314D02*
Y206723D01*
X202600Y205739D01*
X206930D01*
G01X213151Y205828D02*
Y211654D01*
G01X208427Y205748D02*
X212954D01*
G01X208427Y211654D02*
X212954D01*
G01X202756Y222544D02*
X205905D01*
G01X198322D02*
Y216826D01*
X202047D01*
G01X210339Y222544D02*
Y216826D01*
X206771D01*
G01X200938Y257839D02*
Y246254D01*
G01D02*
X227129D01*
G01X195669Y262933D02*
X197089D01*
Y252026D01*
X195276D01*
G01X200938Y257839D02*
X227129D01*
G01X218701Y95112D02*
X226040D01*
G01X218701Y209612D02*
Y95112D01*
G01X231602D02*
X255800D01*
G01X218701Y209612D02*
X268701D01*
G01X236700Y237377D02*
X236855Y237607D01*
X236958Y237875D01*
Y238182D01*
X236803Y238527D01*
X236545Y238795D01*
X236235Y238987D01*
X235718Y239140D01*
X235253Y239178D01*
X234788Y239102D01*
X234478Y238987D01*
X234168Y238757D01*
X233961Y238489D01*
X233858Y238220D01*
Y237952D01*
X233961Y237683D01*
X234117Y237454D01*
X234323Y237262D01*
G01X233858Y235120D02*
X236958D01*
X236338Y235580D01*
G01X233858D02*
Y234660D01*
G01X236442Y232748D02*
X236752Y232519D01*
X236907Y232250D01*
X236958Y231943D01*
X236855Y231560D01*
X236596Y231292D01*
X236287Y231215D01*
X235976Y231254D01*
X235718Y231407D01*
X235202Y232173D01*
X234840Y232519D01*
X234323Y232748D01*
X233858Y232825D01*
Y231215D01*
G01X227943Y219685D02*
Y222785D01*
X228901D01*
X229207Y222630D01*
X229399Y222423D01*
X229476Y222010D01*
X229399Y221597D01*
X229169Y221339D01*
X228901Y221183D01*
X227943D01*
G01X228901D02*
X229476Y219685D01*
G01X231081Y222269D02*
X231311Y222578D01*
X231579Y222733D01*
X231886Y222785D01*
X232269Y222682D01*
X232537Y222423D01*
X232614Y222113D01*
X232576Y221803D01*
X232422Y221545D01*
X231656Y221028D01*
X231311Y220667D01*
X231081Y220150D01*
X231004Y219685D01*
X232614D01*
G01X234909D02*
X235178Y219737D01*
X235484Y219892D01*
X235676Y220150D01*
X235752Y220512D01*
X235676Y220873D01*
X235446Y221183D01*
X235101Y221339D01*
X234717D01*
X234487Y221442D01*
X234296Y221700D01*
X234219Y222062D01*
X234334Y222423D01*
X234602Y222682D01*
X234909Y222785D01*
X235216Y222682D01*
X235484Y222423D01*
X235599Y222062D01*
X235522Y221700D01*
X235331Y221442D01*
X235101Y221339D01*
X234717D01*
X234372Y221183D01*
X234143Y220873D01*
X234066Y220512D01*
X234143Y220150D01*
X234334Y219892D01*
X234641Y219737D01*
X234909Y219685D01*
G01X215020Y222286D02*
Y223467D01*
X225926D01*
Y222286D01*
G01X215020Y219446D02*
Y218265D01*
X225926D01*
Y219446D01*
G01X227129Y257839D02*
Y246254D01*
G01X233858Y240611D02*
X232438D01*
Y251517D01*
X234252D01*
G01X230622Y259793D02*
Y257571D01*
X230775Y257106D01*
X231081Y256796D01*
X231465Y256693D01*
X231848Y256796D01*
X232155Y257106D01*
X232308Y257571D01*
Y259793D01*
G01X233837Y257985D02*
X234105Y258346D01*
X234335Y258553D01*
X234642Y258656D01*
X234910Y258553D01*
X235102Y258346D01*
X235255Y258036D01*
X235293Y257674D01*
X235255Y257365D01*
X235102Y257054D01*
X234872Y256796D01*
X234603Y256693D01*
X234296Y256796D01*
X234028Y257106D01*
X233875Y257571D01*
X233837Y258088D01*
X233913Y258759D01*
X234028Y259121D01*
X234220Y259483D01*
X234488Y259741D01*
X234757Y259793D01*
X235025Y259690D01*
X235217Y259431D01*
G01X242606Y237377D02*
X242761Y237607D01*
X242864Y237875D01*
Y238182D01*
X242709Y238527D01*
X242450Y238795D01*
X242141Y238987D01*
X241624Y239140D01*
X241159Y239178D01*
X240694Y239102D01*
X240384Y238987D01*
X240074Y238757D01*
X239867Y238489D01*
X239764Y238220D01*
Y237952D01*
X239867Y237683D01*
X240022Y237454D01*
X240229Y237262D01*
G01X239764Y235120D02*
X242864D01*
X242244Y235580D01*
G01X239764D02*
Y234660D01*
G01X242864Y232020D02*
X242761Y232327D01*
X242502Y232557D01*
X242192Y232710D01*
X241779Y232825D01*
X241314Y232863D01*
X240849Y232825D01*
X240435Y232710D01*
X240125Y232557D01*
X239867Y232327D01*
X239764Y232020D01*
X239867Y231713D01*
X240125Y231483D01*
X240435Y231330D01*
X240849Y231215D01*
X241314Y231177D01*
X241779Y231215D01*
X242192Y231330D01*
X242502Y231483D01*
X242761Y231713D01*
X242864Y232020D01*
G01X240157Y251517D02*
X243546D01*
Y240611D01*
X239764D01*
G01D02*
X238344D01*
Y251517D01*
X240157D01*
G01X234252D02*
X237641D01*
Y240611D01*
X233858D01*
G01X268701Y209612D02*
Y95112D01*
G01X261362D02*
X268701D01*
G54D11*
G01X95909Y150393D02*
G03I-1420J0D01*
M02*
